GeoramaCondensed-Regular.ufo
<glyph name="exclam" format="2">
  <advance width="161.86800000000002"/>
  <unicode hex="0021"/>
  <outline>
    <contour>
      <point x="48.769000000000005" y="262.45" type="line"/>
      <point x="112.75799999999998" y="262.45" type="line"/>
      <point x="117.842" y="740.0" type="line"/>
      <point x="44.522000000000006" y="740.0" type="line"/>
    </contour>
    <contour>
      <point x="40.067" y="44.775999999999996" type="curve" smooth="yes"/>
      <point x="40.067" y="9.649"/>
      <point x="50.033" y="-3.1310000000000002"/>
      <point x="80.93400000000001" y="-3.1310000000000002" type="curve" smooth="yes"/>
      <point x="112.52499999999999" y="-3.1310000000000002"/>
      <point x="121.801" y="9.649"/>
      <point x="121.801" y="44.775999999999996" type="curve" smooth="yes"/>
      <point x="121.801" y="80.21300000000001"/>
      <point x="112.52499999999999" y="92.99300000000001"/>
      <point x="80.93400000000001" y="92.99300000000001" type="curve" smooth="yes"/>
      <point x="49.343" y="92.99300000000001"/>
      <point x="40.067" y="80.21300000000001"/>
    </contour>
  </outline>
</glyph>
<glyph name="numbersign" format="2">
  <advance width="376.326"/>
  <unicode hex="0023"/>
  <outline>
    <contour>
      <point x="45.522000000000006" y="454.207" type="line"/>
      <point x="103.506" y="454.207" type="line"/>
      <point x="76.51299999999999" y="242.17200000000003" type="line"/>
      <point x="22.054" y="242.17200000000003" type="line"/>
      <point x="22.054" y="179.127" type="line"/>
      <point x="71.447" y="179.127" type="line"/>
      <point x="50.103" y="0.0" type="line"/>
      <point x="108.38799999999999" y="0.0" type="line"/>
      <point x="129.73200000000003" y="179.127" type="line"/>
      <point x="210.08599999999998" y="179.127" type="line"/>
      <point x="188.742" y="0.0" type="line"/>
      <point x="247.027" y="0.0" type="line"/>
      <point x="268.371" y="179.127" type="line"/>
      <point x="330.835" y="179.127" type="line"/>
      <point x="330.835" y="242.17200000000003" type="line"/>
      <point x="273.437" y="242.17200000000003" type="line"/>
      <point x="300.43" y="454.207" type="line"/>
      <point x="354.303" y="454.207" type="line"/>
      <point x="354.303" y="517.748" type="line"/>
      <point x="306.017" y="517.748" type="line"/>
      <point x="328.023" y="700.0" type="line"/>
      <point x="269.738" y="700.0" type="line"/>
      <point x="247.732" y="517.748" type="line"/>
      <point x="167.378" y="517.748" type="line"/>
      <point x="189.384" y="700.0" type="line"/>
      <point x="131.099" y="700.0" type="line"/>
      <point x="109.093" y="517.748" type="line"/>
      <point x="45.522000000000006" y="517.748" type="line"/>
    </contour>
    <contour>
      <point x="161.791" y="454.207" type="line"/>
      <point x="242.14499999999998" y="454.207" type="line"/>
      <point x="215.15200000000002" y="242.17200000000003" type="line"/>
      <point x="134.798" y="242.17200000000003" type="line"/>
    </contour>
  </outline>
</glyph>
<glyph name="dollar" format="2">
  <advance width="376.326"/>
  <unicode hex="0024"/>
  <outline>
    <contour>
      <point x="166.61900000000003" y="-10.0" type="curve" smooth="yes"/>
      <point x="262.911" y="-10.372"/>
      <point x="335.72900000000004" y="42.75"/>
      <point x="335.72900000000004" y="154.11399999999998" type="curve" smooth="yes"/>
      <point x="335.72900000000004" y="260.06"/>
      <point x="281.85400000000004" y="320.29699999999997"/>
      <point x="219.58100000000002" y="375.983" type="curve" smooth="yes"/>
      <point x="164.241" y="427.258"/>
      <point x="121.757" y="476.99300000000005"/>
      <point x="121.757" y="549.797" type="curve" smooth="yes"/>
      <point x="121.757" y="607.952"/>
      <point x="152.66300000000004" y="642.1999999999999"/>
      <point x="208.13700000000003" y="642.1999999999999" type="curve" smooth="yes"/>
      <point x="240.56200000000004" y="642.1999999999999"/>
      <point x="272.88900000000007" y="635.1659999999999"/>
      <point x="299.71000000000004" y="624.175" type="curve"/>
      <point x="316.004" y="686.6719999999999" type="line"/>
      <point x="287.09299999999996" y="700.555"/>
      <point x="242.153" y="710.0"/>
      <point x="198.86" y="710.0" type="curve" smooth="yes"/>
      <point x="106.84100000000002" y="709.862"/>
      <point x="50.166" y="648.416"/>
      <point x="50.166" y="548.743" type="curve" smooth="yes"/>
      <point x="50.166" y="446.56500000000005"/>
      <point x="100.19900000000001" y="382.07399999999996"/>
      <point x="159.37900000000002" y="325.39500000000004" type="curve" smooth="yes"/>
      <point x="218.46299999999997" y="270.30600000000004"/>
      <point x="265.10600000000005" y="221.282"/>
      <point x="265.10600000000005" y="149.36800000000002" type="curve" smooth="yes"/>
      <point x="265.10600000000005" y="92.61399999999999"/>
      <point x="230.159" y="56.499"/>
      <point x="170.206" y="56.499" type="curve" smooth="yes"/>
      <point x="134.689" y="56.499"/>
      <point x="94.371" y="64.649"/>
      <point x="56.177" y="80.02100000000002" type="curve"/>
      <point x="40.659" y="17.181" type="line"/>
      <point x="74.682" y="1.1820000000000002"/>
      <point x="124.031" y="-9.876000000000001"/>
    </contour>
    <contour>
      <point x="159.79100000000003" y="-105.0" type="line"/>
      <point x="224.772" y="-105.0" type="line"/>
      <point x="224.772" y="7.374999999999999" type="line"/>
      <point x="159.79100000000003" y="0.736" type="line"/>
    </contour>
    <contour>
      <point x="159.79100000000003" y="694.3960000000001" type="line"/>
      <point x="224.772" y="700.1639999999999" type="line"/>
      <point x="224.772" y="804.442" type="line"/>
      <point x="159.79100000000003" y="804.442" type="line"/>
    </contour>
  </outline>
</glyph>
<glyph name="ampersand" format="2">
  <advance width="459.899"/>
  <unicode hex="0026"/>
  <outline>
    <contour>
      <point x="380.681" y="-10.463999999999999" type="line"/>
      <point x="455.88199999999995" y="-2.7629999999999995" type="line"/>
      <point x="180.75199999999998" y="413.42900000000003" type="line" smooth="yes"/>
      <point x="149.361" y="462.983"/>
      <point x="138.01899999999998" y="503.923"/>
      <point x="138.01899999999998" y="542.579" type="curve" smooth="yes"/>
      <point x="138.01899999999998" y="609.151"/>
      <point x="163.68699999999998" y="642.5699999999999"/>
      <point x="210.851" y="642.5699999999999" type="curve" smooth="yes"/>
      <point x="256.983" y="642.5699999999999"/>
      <point x="278.505" y="607.2679999999999"/>
      <point x="278.505" y="547.0519999999999" type="curve" smooth="yes"/>
      <point x="278.505" y="503.458"/>
      <point x="270.45300000000003" y="468.92499999999995"/>
      <point x="244.092" y="443.51399999999995" type="curve"/>
      <point x="274.051" y="404.962" type="line"/>
      <point x="320.96199999999993" y="441.1019999999999"/>
      <point x="341.75" y="493.35099999999994"/>
      <point x="341.75" y="560.832" type="curve" smooth="yes"/>
      <point x="341.75" y="657.7310000000001"/>
      <point x="295.836" y="710.0"/>
      <point x="209.76599999999996" y="710.0" type="curve" smooth="yes"/>
      <point x="114.53999999999999" y="710.0"/>
      <point x="66.24900000000001" y="651.4780000000001"/>
      <point x="66.24900000000001" y="544.129" type="curve" smooth="yes"/>
      <point x="66.24900000000001" y="489.991"/>
      <point x="84.42200000000001" y="433.34499999999997"/>
      <point x="122.188" y="373.524" type="curve" smooth="yes"/>
    </contour>
    <contour>
      <point x="192.684" y="-10.0" type="curve" smooth="yes"/>
      <point x="258.693" y="-10.0"/>
      <point x="304.76899999999995" y="19.847"/>
      <point x="337.761" y="77.281" type="curve"/>
      <point x="305.33" y="128.328" type="line"/>
      <point x="282.30199999999996" y="79.22"/>
      <point x="254.043" y="52.47"/>
      <point x="199.969" y="52.47" type="curve" smooth="yes"/>
      <point x="132.76999999999998" y="52.47"/>
      <point x="90.66" y="109.213"/>
      <point x="90.66" y="187.312" type="curve" smooth="yes"/>
      <point x="90.66" y="259.969"/>
      <point x="111.706" y="302.537"/>
      <point x="158.88199999999998" y="348.277" type="curve"/>
      <point x="127.673" y="397.84499999999997" type="line"/>
      <point x="54.008" y="343.36"/>
      <point x="22.765" y="276.579"/>
      <point x="22.765" y="180.647" type="curve" smooth="yes"/>
      <point x="22.765" y="67.84799999999998"/>
      <point x="86.723" y="-10.0"/>
    </contour>
    <contour>
      <point x="370.10800000000006" y="111.50200000000001" type="line"/>
      <point x="396.59400000000005" y="167.60399999999998"/>
      <point x="413.624" y="236.278"/>
      <point x="413.624" y="311.651" type="curve" smooth="yes"/>
      <point x="413.624" y="334.33500000000004"/>
      <point x="412.35499999999996" y="352.186"/>
      <point x="409.165" y="370.80300000000005" type="curve"/>
      <point x="351.415" y="368.736" type="line"/>
      <point x="354.14000000000004" y="352.75399999999996"/>
      <point x="355.216" y="338.421"/>
      <point x="355.06100000000004" y="319.401" type="curve" smooth="yes"/>
      <point x="354.906" y="260.89300000000003"/>
      <point x="345.87699999999995" y="209.911"/>
      <point x="331.6" y="173.533" type="curve"/>
    </contour>
  </outline>
</glyph>
<glyph name="quotesingle" format="2">
  <advance width="147.09699999999998"/>
  <unicode hex="0027"/>
  <outline>
    <contour>
      <point x="44.5" y="427.0" type="line"/>
      <point x="101.75999999999999" y="427.0" type="line"/>
      <point x="108.031" y="700.0" type="line"/>
      <point x="39.065999999999995" y="700.0" type="line"/>
    </contour>
  </outline>
</glyph>
<glyph name="parenleft" format="2">
  <advance width="220.52599999999998"/>
  <unicode hex="0028"/>
  <outline>
    <contour>
      <point x="47.105000000000004" y="265.0" type="curve" smooth="yes"/>
      <point x="47.105000000000004" y="-9.894"/>
      <point x="102.379" y="-194.585"/>
      <point x="211.665" y="-220.621" type="curve"/>
      <point x="211.665" y="-154.42600000000002" type="line"/>
      <point x="145.12499999999997" y="-120.636"/>
      <point x="108.709" y="11.727"/>
      <point x="108.709" y="265.0" type="curve" smooth="yes"/>
      <point x="108.709" y="518.273"/>
      <point x="145.12499999999997" y="650.636"/>
      <point x="211.665" y="684.426" type="curve"/>
      <point x="211.665" y="750.621" type="line"/>
      <point x="102.379" y="724.585"/>
      <point x="47.105000000000004" y="539.894"/>
    </contour>
  </outline>
</glyph>
<glyph name="parenright" format="2">
  <advance width="220.52599999999998"/>
  <unicode hex="0029"/>
  <outline>
    <contour>
      <point x="8.861" y="-154.42600000000002" type="curve"/>
      <point x="8.861" y="-220.621" type="line"/>
      <point x="118.147" y="-194.585"/>
      <point x="173.421" y="-9.894"/>
      <point x="173.421" y="265.0" type="curve" smooth="yes"/>
      <point x="173.421" y="539.894"/>
      <point x="118.147" y="724.585"/>
      <point x="8.861" y="750.621" type="curve"/>
      <point x="8.861" y="684.426" type="line"/>
      <point x="75.401" y="650.636"/>
      <point x="111.817" y="518.273"/>
      <point x="111.817" y="265.0" type="curve" smooth="yes"/>
      <point x="111.817" y="11.727"/>
      <point x="75.401" y="-120.636"/>
    </contour>
  </outline>
</glyph>
<glyph name="asterisk" format="2">
  <advance width="255.536"/>
  <unicode hex="002A"/>
  <outline>
    <contour>
      <point x="69.24300000000001" y="396.771" type="line"/>
      <point x="127.83699999999999" y="483.92900000000003" type="line"/>
      <point x="186.15500000000003" y="396.702" type="line"/>
      <point x="217.72599999999997" y="418.413" type="line"/>
      <point x="164.342" y="512.6089999999999" type="line"/>
      <point x="252.53100000000003" y="556.345" type="line"/>
      <point x="239.748" y="592.147" type="line"/>
      <point x="150.918" y="557.324" type="line"/>
      <point x="147.38400000000001" y="670.069" type="line"/>
      <point x="108.28999999999999" y="670.069" type="line"/>
      <point x="104.756" y="557.324" type="line"/>
      <point x="15.787999999999998" y="592.147" type="line"/>
      <point x="3.0050000000000003" y="556.345" type="line"/>
      <point x="91.33200000000001" y="512.6089999999999" type="line"/>
      <point x="37.603" y="418.551" type="line"/>
    </contour>
  </outline>
</glyph>
<glyph name="plus" format="2">
  <advance width="409.832"/>
  <unicode hex="002B"/>
  <outline>
    <contour>
      <point x="171.883" y="97.85400000000001" type="line"/>
      <point x="237.91799999999998" y="97.85400000000001" type="line"/>
      <point x="237.91799999999998" y="269.235" type="line"/>
      <point x="367.688" y="269.235" type="line"/>
      <point x="367.688" y="334.03000000000003" type="line"/>
      <point x="237.91799999999998" y="334.03000000000003" type="line"/>
      <point x="237.91799999999998" y="505.38" type="line"/>
      <point x="171.883" y="505.38" type="line"/>
      <point x="171.883" y="334.03000000000003" type="line"/>
      <point x="42.144" y="334.03000000000003" type="line"/>
      <point x="42.144" y="269.235" type="line"/>
      <point x="171.883" y="269.235" type="line"/>
    </contour>
  </outline>
</glyph>
<glyph name="comma" format="2">
  <advance width="139.029"/>
  <unicode hex="002C"/>
  <outline>
    <contour>
      <point x="33.262" y="57.456" type="line"/>
      <point x="40.035000000000004" y="31.534999999999997"/>
      <point x="42.964" y="5.534999999999999"/>
      <point x="42.964" y="-10.918" type="curve" smooth="yes"/>
      <point x="42.964" y="-68.86"/>
      <point x="24.574" y="-134.08"/>
      <point x="-15.662999999999997" y="-174.201" type="curve"/>
      <point x="35.461" y="-196.06699999999998" type="line"/>
      <point x="90.87500000000001" y="-146.04299999999998"/>
      <point x="111.262" y="-71.865"/>
      <point x="111.262" y="-9.602000000000002" type="curve" smooth="yes"/>
      <point x="111.262" y="16.493"/>
      <point x="107.187" y="40.56099999999999"/>
      <point x="100.43799999999999" y="62.73400000000001" type="curve"/>
    </contour>
  </outline>
</glyph>
<glyph name="hyphen" format="2">
  <advance width="245.87699999999998"/>
  <unicode hex="002D"/>
  <outline>
    <contour>
      <point x="23.798" y="248.49" type="line"/>
      <point x="222.07899999999998" y="248.49" type="line"/>
      <point x="222.07899999999998" y="317.284" type="line"/>
      <point x="23.798" y="317.284" type="line"/>
    </contour>
  </outline>
</glyph>
<glyph name="period" format="2">
  <advance width="139.52499999999998"/>
  <unicode hex="002E"/>
  <outline>
    <contour>
      <point x="28.930000000000003" y="45.613" type="curve" smooth="yes"/>
      <point x="28.930000000000003" y="10.485999999999999"/>
      <point x="38.896" y="-2.294"/>
      <point x="69.797" y="-2.294" type="curve" smooth="yes"/>
      <point x="101.38799999999999" y="-2.294"/>
      <point x="110.664" y="10.485999999999999"/>
      <point x="110.664" y="45.613" type="curve" smooth="yes"/>
      <point x="110.664" y="81.05"/>
      <point x="101.38799999999999" y="93.83"/>
      <point x="69.797" y="93.83" type="curve" smooth="yes"/>
      <point x="38.206" y="93.83"/>
      <point x="28.930000000000003" y="81.05"/>
    </contour>
  </outline>
</glyph>
<glyph name="slash" format="2">
  <advance width="277.293"/>
  <unicode hex="002F"/>
  <outline>
    <contour>
      <point x="-0.5479999999999997" y="-210.0" type="line"/>
      <point x="61.315" y="-210.0" type="line"/>
      <point x="277.841" y="740.0" type="line"/>
      <point x="215.699" y="740.0" type="line"/>
    </contour>
  </outline>
</glyph>
<glyph name="zero" format="2">
  <advance width="376.326"/>
  <unicode hex="0030"/>
  <outline>
    <contour>
      <point x="18.428" y="350.0" type="curve" smooth="yes"/>
      <point x="18.428" y="73.80600000000001"/>
      <point x="74.623" y="-10.0"/>
      <point x="188.163" y="-10.0" type="curve" smooth="yes"/>
      <point x="300.928" y="-10.0"/>
      <point x="357.898" y="74.922"/>
      <point x="357.898" y="350.0" type="curve" smooth="yes"/>
      <point x="357.898" y="625.978"/>
      <point x="305.113" y="710.0"/>
      <point x="188.163" y="710.0" type="curve" smooth="yes"/>
      <point x="73.786" y="710.0"/>
      <point x="18.428" y="628.2099999999999"/>
    </contour>
    <contour>
      <point x="91.40700000000001" y="346.37300000000005" type="curve" smooth="yes"/>
      <point x="91.40700000000001" y="590.727"/>
      <point x="125.981" y="643.8100000000001"/>
      <point x="188.163" y="643.8100000000001" type="curve" smooth="yes"/>
      <point x="250.407" y="643.8100000000001"/>
      <point x="284.981" y="591.006"/>
      <point x="284.981" y="346.37300000000005" type="curve" smooth="yes"/>
      <point x="284.981" y="111.568"/>
      <point x="251.244" y="56.19"/>
      <point x="188.163" y="56.19" type="curve" smooth="yes"/>
      <point x="125.144" y="56.19"/>
      <point x="91.40700000000001" y="111.289"/>
    </contour>
  </outline>
</glyph>
<glyph name="one" format="2">
  <advance width="376.326"/>
  <unicode hex="0031"/>
  <outline>
    <contour>
      <point x="38.287" y="0.0" type="line"/>
      <point x="356.953" y="0.0" type="line"/>
      <point x="356.953" y="64.95" type="line"/>
      <point x="242.28300000000002" y="64.95" type="line"/>
      <point x="242.28300000000002" y="700.69" type="line"/>
      <point x="204.46" y="700.69" type="line"/>
      <point x="23.475" y="592.8870000000001" type="line"/>
      <point x="41.213" y="524.9810000000001" type="line"/>
      <point x="169.83100000000002" y="606.953" type="line"/>
      <point x="169.83100000000002" y="64.95" type="line"/>
      <point x="38.287" y="64.95" type="line"/>
    </contour>
  </outline>
</glyph>
<glyph name="two" format="2">
  <advance width="376.55"/>
  <unicode hex="0032"/>
  <outline>
    <contour>
      <point x="37.05500000000001" y="57.3" type="curve"/>
      <point x="40.582499999999996" y="0.0" type="line"/>
      <point x="347.4875" y="0.0" type="line"/>
      <point x="347.4875" y="65.105" type="line"/>
      <point x="123.6925" y="65.105" type="line"/>
      <point x="274.1575" y="304.7575"/>
      <point x="314.0375" y="411.7475"/>
      <point x="314.0375" y="521.6500000000001" type="curve" smooth="yes"/>
      <point x="314.0375" y="649.8475"/>
      <point x="261.4425" y="710.0"/>
      <point x="169.9375" y="710.0" type="curve" smooth="yes"/>
      <point x="117.61250000000001" y="710.0"/>
      <point x="71.25250000000001" y="693.1925"/>
      <point x="28.89" y="653.0375" type="curve"/>
      <point x="57.35500000000001" y="586.4425" type="line"/>
      <point x="88.80250000000001" y="616.37"/>
      <point x="118.925" y="628.3025000000001"/>
      <point x="154.51500000000001" y="628.3025000000001" type="curve" smooth="yes"/>
      <point x="207.2125" y="628.3025000000001"/>
      <point x="240.32250000000002" y="593.7700000000001"/>
      <point x="240.32250000000002" y="503.45" type="curve" smooth="yes"/>
      <point x="240.32250000000002" y="413.5375"/>
      <point x="191.9475" y="295.6775"/>
    </contour>
  </outline>
</glyph>
<glyph name="three" format="2">
  <advance width="376.54999999999995"/>
  <unicode hex="0033"/>
  <outline>
    <contour>
      <point x="12.839999999999998" y="38.4225" type="line"/>
      <point x="55.5175" y="4.665"/>
      <point x="97.3675" y="-10.0"/>
      <point x="157.0925" y="-10.0" type="curve" smooth="yes"/>
      <point x="268.80999999999995" y="-10.0"/>
      <point x="334.895" y="68.42999999999999"/>
      <point x="334.895" y="201.42" type="curve" smooth="yes"/>
      <point x="334.895" y="286.055"/>
      <point x="303.07749999999993" y="346.7625"/>
      <point x="242.595" y="371.1625" type="curve"/>
      <point x="290.82500000000005" y="398.665"/>
      <point x="317.90000000000003" y="459.08750000000003"/>
      <point x="317.90000000000003" y="533.5775" type="curve" smooth="yes"/>
      <point x="317.90000000000003" y="641.5600000000001"/>
      <point x="262.14" y="710.0"/>
      <point x="160.79749999999999" y="710.0" type="curve" smooth="yes"/>
      <point x="107.9925" y="710.0"/>
      <point x="59.847500000000004" y="694.8649999999999"/>
      <point x="25.294999999999998" y="667.475" type="curve"/>
      <point x="50.2625" y="608.2499999999999" type="line"/>
      <point x="78.08" y="626.44"/>
      <point x="111.69" y="635.2850000000001"/>
      <point x="146.77" y="635.2850000000001" type="curve" smooth="yes"/>
      <point x="213.085" y="635.2850000000001"/>
      <point x="246.13" y="588.175"/>
      <point x="246.13" y="513.7375000000001" type="curve" smooth="yes"/>
      <point x="246.13" y="442.7575"/>
      <point x="216.22" y="393.9575"/>
      <point x="166.785" y="393.9575" type="curve" smooth="yes"/>
      <point x="97.3825" y="393.9575" type="line"/>
      <point x="97.3825" y="332.34000000000003" type="line"/>
      <point x="155.16" y="332.34000000000003" type="line" smooth="yes"/>
      <point x="225.19" y="332.34000000000003"/>
      <point x="262.42749999999995" y="289.845"/>
      <point x="262.42749999999995" y="206.38" type="curve" smooth="yes"/>
      <point x="262.42749999999995" y="115.1425"/>
      <point x="220.62500000000003" y="61.15"/>
      <point x="149.395" y="61.15" type="curve" smooth="yes"/>
      <point x="104.77" y="61.15"/>
      <point x="73.44250000000001" y="72.36749999999999"/>
      <point x="41.582499999999996" y="96.64750000000001" type="curve"/>
    </contour>
  </outline>
</glyph>
<glyph name="four" format="2">
  <advance width="376.55"/>
  <unicode hex="0034"/>
  <outline>
    <contour>
      <point x="20.32" y="157.575" type="line"/>
      <point x="221.595" y="157.575" type="line"/>
      <point x="221.595" y="0.0" type="line"/>
      <point x="293.675" y="0.0" type="line"/>
      <point x="293.675" y="157.575" type="line"/>
      <point x="363.34499999999997" y="157.575" type="line"/>
      <point x="363.34499999999997" y="222.215" type="line"/>
      <point x="293.675" y="222.215" type="line"/>
      <point x="293.675" y="699.155" type="line"/>
      <point x="217.91500000000002" y="703.105" type="line"/>
      <point x="16.05" y="221.54" type="line"/>
    </contour>
    <contour>
      <point x="76.38" y="222.215" type="line"/>
      <point x="224.385" y="580.9300000000001" type="line"/>
      <point x="224.385" y="222.215" type="line"/>
    </contour>
  </outline>
</glyph>
<glyph name="five" format="2">
  <advance width="376.512"/>
  <unicode hex="0035"/>
  <outline>
    <contour>
      <point x="26.43" y="38.2345" type="line"/>
      <point x="64.99000000000001" y="6.829999999999999"/>
      <point x="106.51700000000001" y="-9.962000000000002"/>
      <point x="163.518" y="-9.962000000000002" type="curve" smooth="yes"/>
      <point x="275.6155" y="-9.962000000000002"/>
      <point x="348.0865" y="67.983"/>
      <point x="348.0865" y="208.17499999999998" type="curve" smooth="yes"/>
      <point x="348.0865" y="332.813"/>
      <point x="294.762" y="397.26449999999994"/>
      <point x="197.1335" y="398.892" type="curve" smooth="yes"/>
      <point x="126.256" y="399.35699999999997" type="line"/>
      <point x="140.5435" y="632.0275" type="line"/>
      <point x="325.01949999999994" y="632.0275" type="line"/>
      <point x="325.01949999999994" y="700.0" type="line"/>
      <point x="81.6675" y="700.0" type="line"/>
      <point x="55.805" y="349.437" type="line"/>
      <point x="65.33999999999999" y="337.972" type="line"/>
      <point x="162.81900000000002" y="337.972" type="line" smooth="yes"/>
      <point x="239.33900000000003" y="337.972"/>
      <point x="274.76649999999995" y="292.57099999999997"/>
      <point x="274.76649999999995" y="205.695" type="curve" smooth="yes"/>
      <point x="274.76649999999995" y="114.782"/>
      <point x="235.24749999999997" y="61.342999999999996"/>
      <point x="156.31050000000002" y="61.342999999999996" type="curve" smooth="yes"/>
      <point x="106.9335" y="61.342999999999996"/>
      <point x="76.07650000000001" y="78.1215"/>
      <point x="49.0995" y="98.3575" type="curve"/>
    </contour>
  </outline>
</glyph>
<glyph name="six" format="2">
  <advance width="376.512"/>
  <unicode hex="0036"/>
  <outline>
    <contour>
      <point x="193.5495" y="-10.0" type="curve" smooth="yes"/>
      <point x="296.941" y="-10.0"/>
      <point x="355.55750000000006" y="73.15200000000002"/>
      <point x="355.55750000000006" y="216.94700000000003" type="curve" smooth="yes"/>
      <point x="355.55750000000006" y="345.24"/>
      <point x="304.4665" y="420.2245"/>
      <point x="217.19349999999997" y="420.2245" type="curve" smooth="yes"/>
      <point x="159.85249999999996" y="420.2245"/>
      <point x="107.99450000000002" y="383.81600000000003"/>
      <point x="86.0375" y="330.37550000000005" type="curve"/>
      <point x="88.825" y="266.30150000000003" type="line"/>
      <point x="109.167" y="324.4265000000001"/>
      <point x="149.2595" y="360.654"/>
      <point x="195.6165" y="360.654" type="curve" smooth="yes"/>
      <point x="250.507" y="360.654"/>
      <point x="283.78749999999997" y="307.7105"/>
      <point x="283.78749999999997" y="213.36349999999996" type="curve" smooth="yes"/>
      <point x="283.78749999999997" y="112.36800000000001"/>
      <point x="248.83199999999997" y="54.033500000000004"/>
      <point x="194.99" y="54.033500000000004" type="curve" smooth="yes"/>
      <point x="127.92399999999999" y="54.033500000000004"/>
      <point x="96.1405" y="119.443"/>
      <point x="96.1405" y="337.31199999999995" type="curve" smooth="yes"/>
      <point x="96.1405" y="544.8299999999999"/>
      <point x="128.6875" y="642.4014999999999"/>
      <point x="228.3075" y="642.4014999999999" type="curve" smooth="yes"/>
      <point x="262.75750000000005" y="642.4014999999999"/>
      <point x="289.3165" y="631.4455"/>
      <point x="317.8455" y="614.3799999999999" type="curve"/>
      <point x="342.671" y="674.4105" type="line"/>
      <point x="310.00999999999993" y="696.8345"/>
      <point x="266.364" y="710.0"/>
      <point x="219.38150000000002" y="710.0" type="curve" smooth="yes"/>
      <point x="87.0125" y="710.0"/>
      <point x="21.270500000000002" y="597.8460000000001"/>
      <point x="21.270500000000002" y="328.029" type="curve" smooth="yes"/>
      <point x="21.270500000000002" y="83.621"/>
      <point x="75.38800000000002" y="-10.0"/>
    </contour>
  </outline>
</glyph>
<glyph name="seven" format="2">
  <advance width="376.512"/>
  <unicode hex="0037"/>
  <outline>
    <contour>
      <point x="117.06150000000001" y="0.0" type="curve"/>
      <point x="192.47400000000002" y="0.0" type="line"/>
      <point x="193.3585" y="134.21200000000002"/>
      <point x="212.47099999999998" y="238.89399999999998"/>
      <point x="253.50400000000002" y="361.07699999999994" type="curve" smooth="yes"/>
      <point x="348.92249999999996" y="647.1175" type="line"/>
      <point x="348.92249999999996" y="700.0" type="line"/>
      <point x="26.294499999999996" y="700.0" type="line"/>
      <point x="26.294499999999996" y="631.2525" type="line"/>
      <point x="269.5785" y="631.2525" type="line"/>
      <point x="190.32600000000002" y="404.79699999999997" type="line" smooth="yes"/>
      <point x="136.68" y="250.7345"/>
      <point x="117.06150000000001" y="138.18099999999998"/>
    </contour>
  </outline>
</glyph>
<glyph name="eight" format="2">
  <advance width="376.55"/>
  <unicode hex="0038"/>
  <outline>
    <contour>
      <point x="198.6825" y="379.1275" type="curve"/>
      <point x="240.17000000000002" y="351.3375" type="line"/>
      <point x="315.9825" y="404.25750000000005"/>
      <point x="344.6275" y="466.37"/>
      <point x="344.6275" y="542.53" type="curve" smooth="yes"/>
      <point x="344.6275" y="648.5899999999999"/>
      <point x="288.57750000000004" y="710.0"/>
      <point x="191.57500000000002" y="710.0" type="curve" smooth="yes"/>
      <point x="91.025" y="710.0"/>
      <point x="33.387499999999996" y="647.34"/>
      <point x="33.387499999999996" y="535.6850000000001" type="curve" smooth="yes"/>
      <point x="33.387499999999996" y="311.75999999999993"/>
      <point x="288.3575" y="364.28000000000003"/>
      <point x="288.3575" y="171.21749999999997" type="curve" smooth="yes"/>
      <point x="288.3575" y="95.105"/>
      <point x="253.11249999999998" y="52.934999999999995"/>
      <point x="190.0575" y="52.934999999999995" type="curve" smooth="yes"/>
      <point x="124.16" y="52.934999999999995"/>
      <point x="88.0725" y="98.2775"/>
      <point x="88.0725" y="181.535" type="curve" smooth="yes"/>
      <point x="88.0725" y="257.3975"/>
      <point x="114.7875" y="309.63"/>
      <point x="173.6675" y="349.2375" type="curve"/>
      <point x="130.0775" y="381.8" type="line"/>
      <point x="51.325" y="330.79749999999996"/>
      <point x="17.2325" y="262.0525"/>
      <point x="17.2325" y="175.51250000000002" type="curve" smooth="yes"/>
      <point x="17.2325" y="56.894999999999996"/>
      <point x="77.585" y="-10.0"/>
      <point x="186.44" y="-10.0" type="curve" smooth="yes"/>
      <point x="298.515" y="-10.0"/>
      <point x="359.9725" y="55.5925"/>
      <point x="359.9725" y="173.97250000000003" type="curve" smooth="yes"/>
      <point x="359.9725" y="414.97"/>
      <point x="102.3675" y="359.88750000000005"/>
      <point x="102.3675" y="538.72" type="curve" smooth="yes"/>
      <point x="102.3675" y="606.2525"/>
      <point x="134.465" y="646.1274999999999"/>
      <point x="189.01749999999998" y="646.1274999999999" type="curve" smooth="yes"/>
      <point x="246.66250000000002" y="646.1274999999999"/>
      <point x="277.9725" y="606.4175"/>
      <point x="277.9725" y="531.9200000000001" type="curve" smooth="yes"/>
      <point x="277.9725" y="466.915"/>
      <point x="260.08750000000003" y="421.54"/>
    </contour>
  </outline>
</glyph>
<glyph name="nine" format="2">
  <advance width="376.512"/>
  <unicode hex="0039"/>
  <outline>
    <contour>
      <point x="159.2855" y="-10.0" type="curve" smooth="yes"/>
      <point x="291.6545" y="-10.0"/>
      <point x="354.94350000000003" y="101.99899999999998"/>
      <point x="354.94350000000003" y="371.506" type="curve" smooth="yes"/>
      <point x="354.94350000000003" y="616.0689999999998"/>
      <point x="302.841" y="710.0"/>
      <point x="185.1145" y="710.0" type="curve" smooth="yes"/>
      <point x="80.96000000000001" y="710.0"/>
      <point x="20.6565" y="627.076"/>
      <point x="20.6565" y="483.091" type="curve" smooth="yes"/>
      <point x="20.6565" y="354.678"/>
      <point x="72.0545" y="279.7755"/>
      <point x="159.79549999999998" y="279.7755" type="curve" smooth="yes"/>
      <point x="216.2065" y="279.7755"/>
      <point x="267.90950000000004" y="316.713"/>
      <point x="290.17650000000003" y="370.15349999999995" type="curve"/>
      <point x="291.766" y="440.7475" type="line"/>
      <point x="269.0805" y="374.22400000000005"/>
      <point x="226.7995" y="339.346"/>
      <point x="180.5975" y="339.346" type="curve" smooth="yes"/>
      <point x="126.54899999999999" y="339.346"/>
      <point x="92.27150000000002" y="392.36249999999995"/>
      <point x="92.27150000000002" y="486.8295" type="curve" smooth="yes"/>
      <point x="92.27150000000002" y="588.015"/>
      <point x="129.06900000000002" y="645.9664999999999"/>
      <point x="184.139" y="645.9664999999999" type="curve" smooth="yes"/>
      <point x="250.30499999999998" y="645.9664999999999"/>
      <point x="280.0735" y="580.5569999999998"/>
      <point x="280.0735" y="362.6880000000001" type="curve" smooth="yes"/>
      <point x="280.0735" y="155.17"/>
      <point x="249.82450000000003" y="57.5985"/>
      <point x="150.3595" y="57.5985" type="curve" smooth="yes"/>
      <point x="115.75450000000001" y="57.5985"/>
      <point x="86.89750000000001" y="68.5545"/>
      <point x="58.368500000000004" y="85.61999999999999" type="curve"/>
      <point x="33.543000000000006" y="25.8995" type="line"/>
      <point x="66.20400000000001" y="3.4755"/>
      <point x="112.30300000000001" y="-10.0"/>
    </contour>
  </outline>
</glyph>
<glyph name="less" format="2">
  <advance width="409.832"/>
  <unicode hex="003C"/>
  <outline>
    <contour>
      <point x="372.926" y="90.813" type="line"/>
      <point x="372.926" y="153.45600000000002" type="line"/>
      <point x="104.226" y="296.93699999999995" type="line"/>
      <point x="372.926" y="441.425" type="line"/>
      <point x="372.926" y="502.54" type="line"/>
      <point x="36.906" y="329.00899999999996" type="line"/>
      <point x="36.906" y="264.772" type="line"/>
    </contour>
  </outline>
</glyph>
<glyph name="equal" format="2">
  <advance width="404.252"/>
  <unicode hex="003D"/>
  <outline>
    <contour>
      <point x="362.108" y="223.474" type="line"/>
      <point x="42.144" y="223.474" type="line"/>
      <point x="42.144" y="158.67899999999997" type="line"/>
      <point x="362.108" y="158.67899999999997" type="line"/>
    </contour>
    <contour>
      <point x="362.108" y="436.333" type="line"/>
      <point x="42.144" y="436.333" type="line"/>
      <point x="42.144" y="371.538" type="line"/>
      <point x="362.108" y="371.538" type="line"/>
    </contour>
  </outline>
</glyph>
<glyph name="greater" format="2">
  <advance width="409.832"/>
  <unicode hex="003E"/>
  <outline>
    <contour>
      <point x="372.926" y="264.151" type="line"/>
      <point x="372.926" y="328.388" type="line"/>
      <point x="36.906" y="502.54" type="line"/>
      <point x="36.906" y="440.11400000000003" type="line"/>
      <point x="305.606" y="296.316" type="line"/>
      <point x="36.906" y="152.214" type="line"/>
      <point x="36.906" y="90.813" type="line"/>
    </contour>
  </outline>
</glyph>
<glyph name="question" format="2">
  <advance width="313.708"/>
  <unicode hex="003F"/>
  <outline>
    <contour>
      <point x="111.113" y="262.243" type="line"/>
      <point x="175.38100000000003" y="262.243" type="line"/>
      <point x="175.443" y="336.96599999999995" type="line"/>
      <point x="259.306" y="402.069"/>
      <point x="298.657" y="458.635"/>
      <point x="298.657" y="565.71" type="curve" smooth="yes"/>
      <point x="298.657" y="691.11"/>
      <point x="230.62099999999998" y="749.721"/>
      <point x="142.835" y="749.721" type="curve" smooth="yes"/>
      <point x="93.12800000000001" y="749.721"/>
      <point x="43.68" y="728.297"/>
      <point x="8.152000000000001" y="695.106" type="curve"/>
      <point x="35.948" y="633.4319999999999" type="line"/>
      <point x="70.597" y="664.409"/>
      <point x="102.9" y="675.658"/>
      <point x="133.163" y="675.658" type="curve" smooth="yes"/>
      <point x="184.478" y="675.658"/>
      <point x="223.786" y="630.4619999999999"/>
      <point x="223.786" y="555.947" type="curve" smooth="yes"/>
      <point x="223.786" y="484.04200000000003"/>
      <point x="199.62800000000001" y="433.497"/>
      <point x="109.78" y="369.51300000000003" type="curve"/>
    </contour>
    <contour>
      <point x="102.33500000000001" y="44.775999999999996" type="curve" smooth="yes"/>
      <point x="102.33500000000001" y="9.649"/>
      <point x="113.26400000000001" y="-3.1310000000000002"/>
      <point x="143.82300000000004" y="-3.1310000000000002" type="curve" smooth="yes"/>
      <point x="174.514" y="-3.1310000000000002"/>
      <point x="184.69" y="9.649"/>
      <point x="184.69" y="44.775999999999996" type="curve" smooth="yes"/>
      <point x="184.69" y="80.21300000000001"/>
      <point x="174.514" y="92.99300000000001"/>
      <point x="143.82300000000004" y="92.99300000000001" type="curve" smooth="yes"/>
      <point x="111.953" y="92.99300000000001"/>
      <point x="102.33500000000001" y="80.21300000000001"/>
    </contour>
  </outline>
</glyph>
<glyph name="at" format="2">
  <advance width="573.7919999999999"/>
  <unicode hex="0040"/>
  <outline>
    <contour>
      <point x="294.084" y="-123.62" type="curve" smooth="yes"/>
      <point x="354.442" y="-123.62"/>
      <point x="415.566" y="-97.22999999999999"/>
      <point x="445.27200000000005" y="-67.96" type="curve"/>
      <point x="428.872" y="-36.794000000000004" type="line"/>
      <point x="395.83599999999996" y="-63.39"/>
      <point x="349.14" y="-83.596"/>
      <point x="295.014" y="-83.596" type="curve" smooth="yes"/>
      <point x="153.19799999999998" y="-83.596"/>
      <point x="70.562" y="2.086"/>
      <point x="70.562" y="266.47799999999995" type="curve" smooth="yes"/>
      <point x="70.562" y="501.716"/>
      <point x="131.65" y="672.178"/>
      <point x="296.04400000000004" y="672.178" type="curve" smooth="yes"/>
      <point x="458.462" y="672.178"/>
      <point x="506.41999999999996" y="559.5640000000001"/>
      <point x="506.41999999999996" y="345.80400000000003" type="curve" smooth="yes"/>
      <point x="506.41999999999996" y="212.68399999999997"/>
      <point x="487.18000000000006" y="104.656"/>
      <point x="444.31999999999994" y="104.656" type="curve" smooth="yes"/>
      <point x="418.64599999999996" y="104.656"/>
      <point x="394.33000000000004" y="125.88399999999999"/>
      <point x="401.168" y="248.544" type="curve" smooth="yes"/>
      <point x="417.764" y="520.186" type="line"/>
      <point x="378.10200000000003" y="536.622"/>
      <point x="343.302" y="545.434"/>
      <point x="305.21400000000006" y="545.434" type="curve" smooth="yes"/>
      <point x="193.882" y="545.434"/>
      <point x="152.852" y="415.938"/>
      <point x="152.852" y="266.018" type="curve" smooth="yes"/>
      <point x="152.852" y="109.32199999999999"/>
      <point x="190.43" y="57.624"/>
      <point x="247.37400000000002" y="57.624" type="curve" smooth="yes"/>
      <point x="304.476" y="57.624"/>
      <point x="327.32599999999996" y="107.24"/>
      <point x="347.272" y="185.024" type="curve"/>
      <point x="352.70599999999996" y="85.28000000000002"/>
      <point x="378.24600000000004" y="53.198"/>
      <point x="432.75" y="53.198" type="curve" smooth="yes"/>
      <point x="516.8620000000001" y="53.198"/>
      <point x="549.818" y="187.208"/>
      <point x="549.818" y="350.82599999999996" type="curve" smooth="yes"/>
      <point x="549.818" y="595.5440000000001"/>
      <point x="473.036" y="709.962"/>
      <point x="301.3140000000001" y="709.962" type="curve" smooth="yes"/>
      <point x="103.46000000000001" y="709.962"/>
      <point x="24.708" y="525.7900000000001"/>
      <point x="24.708" y="270.26" type="curve" smooth="yes"/>
      <point x="24.708" y="-17.787999999999997"/>
      <point x="122.716" y="-123.62"/>
    </contour>
    <contour>
      <point x="271.68" y="124.706" type="curve" smooth="yes"/>
      <point x="245.80599999999998" y="124.706"/>
      <point x="225.056" y="157.034"/>
      <point x="225.056" y="264.406" type="curve" smooth="yes"/>
      <point x="225.056" y="373.04400000000004"/>
      <point x="248.43600000000004" y="492.91600000000005"/>
      <point x="304.40000000000003" y="492.91600000000005" type="curve" smooth="yes"/>
      <point x="317.948" y="492.91600000000005"/>
      <point x="333.35600000000005" y="488.65"/>
      <point x="349.838" y="481.61999999999995" type="curve"/>
      <point x="340.76000000000005" y="362.48" type="line" smooth="yes"/>
      <point x="324.008" y="150.92600000000002"/>
      <point x="306.41200000000003" y="124.706"/>
    </contour>
  </outline>
</glyph>
<glyph name="A" format="2">
  <advance width="399.87300000000005"/>
  <unicode hex="0041"/>
  <anchor x="386.081" y="0.0" name="ogonek"/>
  <anchor x="199.674" y="0.0" name="bottom"/>
  <anchor x="200.23200000000003" y="700.0" name="top"/>
  <outline>
    <contour>
      <point x="13.854000000000001" y="0.0" type="line"/>
      <point x="87.56" y="0.0" type="line"/>
      <point x="122.36199999999998" y="180.73799999999997" type="line"/>
      <point x="276.072" y="180.73799999999997" type="line"/>
      <point x="310.911" y="0.0" type="line"/>
      <point x="386.081" y="0.0" type="line"/>
      <point x="245.893" y="706.9" type="line"/>
      <point x="153.751" y="706.9" type="line"/>
    </contour>
    <contour>
      <point x="132.19" y="253.399" type="line"/>
      <point x="199.66" y="629.166" type="line"/>
      <point x="266.282" y="253.399" type="line"/>
    </contour>
  </outline>
</glyph>
<glyph name="B" format="2">
  <advance width="393.69"/>
  <unicode hex="0042"/>
  <anchor x="189.42000000000002" y="700.0" name="top"/>
  <anchor x="189.42000000000002" y="0.0" name="bottom"/>
  <outline>
    <contour>
      <point x="44.979499999999994" y="-1.7844999999999998" type="line"/>
      <point x="112.84" y="-8.5365"/>
      <point x="132.476" y="-10.0"/>
      <point x="183.05800000000002" y="-10.0" type="curve" smooth="yes"/>
      <point x="315.494" y="-10.0"/>
      <point x="372.18649999999997" y="52.3205"/>
      <point x="372.18649999999997" y="191.72400000000002" type="curve" smooth="yes"/>
      <point x="372.18649999999997" y="281.3735"/>
      <point x="334.583" y="346.0315"/>
      <point x="270.411" y="368.3425" type="curve"/>
      <point x="270.411" y="369.76800000000003" type="line"/>
      <point x="319.548" y="394.219"/>
      <point x="349.9435" y="457.5205"/>
      <point x="349.9435" y="535.4680000000001" type="curve" smooth="yes"/>
      <point x="349.9435" y="655.6899999999999"/>
      <point x="298.7785" y="710.0"/>
      <point x="181.64000000000001" y="710.0" type="curve" smooth="yes"/>
      <point x="144.729" y="710.0"/>
      <point x="102.12550000000002" y="706.9164999999999"/>
      <point x="44.979499999999994" y="700.4805" type="curve"/>
    </contour>
    <contour>
      <point x="117.9895" y="384.44800000000004" type="line"/>
      <point x="117.9895" y="638.5245" type="line"/>
      <point x="145.361" y="642.1765"/>
      <point x="156.88100000000003" y="643.1765"/>
      <point x="181.41649999999998" y="643.1765" type="curve" smooth="yes"/>
      <point x="251.9685" y="643.1765"/>
      <point x="283.056" y="602.3655"/>
      <point x="283.056" y="516.3255000000001" type="curve" smooth="yes"/>
      <point x="283.056" y="439.31449999999995"/>
      <point x="249.748" y="384.44800000000004"/>
      <point x="196.6205" y="384.44800000000004" type="curve" smooth="yes"/>
    </contour>
    <contour>
      <point x="117.9895" y="61.048500000000004" type="curve"/>
      <point x="117.9895" y="323.14050000000003" type="line"/>
      <point x="198.2575" y="323.14050000000003" type="line" smooth="yes"/>
      <point x="263.876" y="323.14050000000003"/>
      <point x="299.40900000000005" y="274.09950000000003"/>
      <point x="299.40900000000005" y="194.16000000000003" type="curve" smooth="yes"/>
      <point x="299.40900000000005" y="97.241"/>
      <point x="266.4445" y="57.1275"/>
      <point x="181.64450000000002" y="57.1275" type="curve" smooth="yes"/>
      <point x="165.20800000000003" y="57.1275"/>
      <point x="150.527" y="58.35850000000001"/>
    </contour>
  </outline>
</glyph>
<glyph name="C" format="2">
  <advance width="358.281"/>
  <unicode hex="0043"/>
  <anchor x="212.492" y="700.0" name="top"/>
  <anchor x="213.76199999999997" y="0.0" name="bottom"/>
  <outline>
    <contour>
      <point x="27.363" y="339.69599999999997" type="curve" smooth="yes"/>
      <point x="27.363" y="68.983"/>
      <point x="95.83999999999999" y="-10.0"/>
      <point x="221.40500000000003" y="-10.0" type="curve" smooth="yes"/>
      <point x="263.771" y="-10.0"/>
      <point x="308.76800000000003" y="-4.161"/>
      <point x="342.2" y="8.187000000000001" type="curve"/>
      <point x="329.196" y="74.19" type="line"/>
      <point x="303.23900000000003" y="65.47"/>
      <point x="260.671" y="59.288"/>
      <point x="233.248" y="59.288" type="curve" smooth="yes"/>
      <point x="147.403" y="59.288"/>
      <point x="100.745" y="120.24499999999999"/>
      <point x="100.745" y="338.64200000000005" type="curve" smooth="yes"/>
      <point x="100.745" y="577.159"/>
      <point x="148.534" y="640.215"/>
      <point x="236.53000000000003" y="640.215" type="curve" smooth="yes"/>
      <point x="265.491" y="640.215"/>
      <point x="290.538" y="636.478"/>
      <point x="321.473" y="627.086" type="curve"/>
      <point x="336.058" y="692.2199999999999" type="line"/>
      <point x="303.044" y="704.589"/>
      <point x="267.66400000000004" y="710.0"/>
      <point x="227.911" y="710.0" type="curve" smooth="yes"/>
      <point x="93.026" y="710.0"/>
      <point x="27.363" y="614.262"/>
    </contour>
  </outline>
</glyph>
<glyph name="D" format="2">
  <advance width="414.575"/>
  <unicode hex="0044"/>
  <anchor x="197.06300000000002" y="700.0" name="top"/>
  <outline>
    <contour>
      <point x="180.54799999999997" y="-10.0" type="curve" smooth="yes"/>
      <point x="326.224" y="-10.0"/>
      <point x="387.1655" y="92.96950000000001"/>
      <point x="387.1655" y="350.471" type="curve" smooth="yes"/>
      <point x="387.1655" y="607.4879999999999"/>
      <point x="331.982" y="710.0"/>
      <point x="180.0145" y="710.0" type="curve" smooth="yes"/>
      <point x="134.48250000000002" y="710.0"/>
      <point x="92.889" y="707.5745"/>
      <point x="44.979499999999994" y="701.8330000000001" type="curve"/>
      <point x="44.979499999999994" y="-3.7570000000000006" type="line"/>
      <point x="85.266" y="-7.880000000000001"/>
      <point x="132.06" y="-10.0"/>
    </contour>
    <contour>
      <point x="179.78400000000002" y="56.048500000000004" type="curve" smooth="yes"/>
      <point x="161.74600000000004" y="56.048500000000004"/>
      <point x="138.18900000000002" y="57.3555"/>
      <point x="117.757" y="59.391999999999996" type="curve"/>
      <point x="117.757" y="639.336" type="line"/>
      <point x="137.718" y="641.488"/>
      <point x="162.6" y="642.757"/>
      <point x="179.9725" y="642.757" type="curve" smooth="yes"/>
      <point x="276.457" y="642.757"/>
      <point x="311.5280000000001" y="574.658"/>
      <point x="311.5280000000001" y="349.42400000000004" type="curve" smooth="yes"/>
      <point x="311.5280000000001" y="128.6335"/>
      <point x="275.875" y="56.048500000000004"/>
    </contour>
  </outline>
</glyph>
<glyph name="E" format="2">
  <advance width="347.6225"/>
  <unicode hex="0045"/>
  <anchor x="332.314" y="0.0" name="ogonek"/>
  <anchor x="188.7205" y="0.0" name="bottom"/>
  <anchor x="185.27500000000003" y="700.0" name="top"/>
  <outline>
    <contour>
      <point x="44.979499999999994" y="0.0" type="line"/>
      <point x="332.469" y="0.0" type="line"/>
      <point x="332.469" y="70.99499999999999" type="line"/>
      <point x="118.1445" y="70.99499999999999" type="line"/>
      <point x="118.1445" y="326.20199999999994" type="line"/>
      <point x="301.3735" y="326.20199999999994" type="line"/>
      <point x="301.3735" y="394.1425" type="line"/>
      <point x="118.1445" y="394.1425" type="line"/>
      <point x="118.1445" y="627.8425" type="line"/>
      <point x="320.2745" y="627.8425" type="line"/>
      <point x="320.2745" y="700.0" type="line"/>
      <point x="44.979499999999994" y="700.0" type="line"/>
    </contour>
  </outline>
</glyph>
<glyph name="F" format="2">
  <advance width="328.78200000000004"/>
  <unicode hex="0046"/>
  <outline>
    <contour>
      <point x="44.979499999999994" y="0.0" type="line"/>
      <point x="118.37700000000001" y="0.0" type="line"/>
      <point x="118.37700000000001" y="301.404" type="line"/>
      <point x="285.18" y="301.404" type="line"/>
      <point x="285.18" y="372.677" type="line"/>
      <point x="117.757" y="372.677" type="line"/>
      <point x="117.757" y="627.5325" type="line"/>
      <point x="319.577" y="627.5325" type="line"/>
      <point x="319.577" y="700.0" type="line"/>
      <point x="44.979499999999994" y="700.0" type="line"/>
    </contour>
  </outline>
</glyph>
<glyph name="G" format="2">
  <advance width="390.13200000000006"/>
  <unicode hex="0047"/>
  <anchor x="212.44500000000002" y="700.0" name="top"/>
  <anchor x="213.805" y="0.0" name="bottom"/>
  <outline>
    <contour>
      <point x="27.363" y="340.254" type="curve" smooth="yes"/>
      <point x="27.363" y="98.664"/>
      <point x="85.021" y="-10.0"/>
      <point x="214.551" y="-10.0" type="curve" smooth="yes"/>
      <point x="270.984" y="-10.0"/>
      <point x="320.916" y="-0.7769999999999996"/>
      <point x="355.256" y="17.95" type="curve"/>
      <point x="355.256" y="361.148" type="line"/>
      <point x="199.145" y="361.148" type="line"/>
      <point x="199.145" y="294.37" type="line"/>
      <point x="287.85699999999997" y="294.37" type="line"/>
      <point x="287.85699999999997" y="65.213" type="line"/>
      <point x="270.466" y="58.933"/>
      <point x="247.803" y="56.002"/>
      <point x="218.55100000000002" y="56.002" type="curve" smooth="yes"/>
      <point x="137.488" y="56.002"/>
      <point x="100.187" y="138.479"/>
      <point x="100.187" y="336.689" type="curve" smooth="yes"/>
      <point x="100.187" y="552.118"/>
      <point x="141.395" y="640.773"/>
      <point x="233.695" y="640.773" type="curve" smooth="yes"/>
      <point x="263.82700000000006" y="640.773"/>
      <point x="297.502" y="635.568"/>
      <point x="327.842" y="625.91" type="curve"/>
      <point x="341.21799999999996" y="691.4639999999999" type="line"/>
      <point x="309.726" y="702.92"/>
      <point x="266.258" y="710.0"/>
      <point x="226.47099999999998" y="710.0" type="curve" smooth="yes"/>
      <point x="89.18499999999999" y="710.0"/>
      <point x="27.363" y="597.939"/>
    </contour>
  </outline>
</glyph>
<glyph name="H" format="2">
  <advance width="429.952"/>
  <unicode hex="0048"/>
  <anchor x="215.15" y="700.0" name="top"/>
  <outline>
    <contour>
      <point x="44.964" y="0.0" type="line"/>
      <point x="117.509" y="0.0" type="line"/>
      <point x="117.509" y="270.874" type="line"/>
      <point x="312.44300000000004" y="270.874" type="line"/>
      <point x="312.44300000000004" y="0.0" type="line"/>
      <point x="384.988" y="0.0" type="line"/>
      <point x="384.988" y="700.0" type="line"/>
      <point x="312.44300000000004" y="700.0" type="line"/>
      <point x="312.44300000000004" y="343.108" type="line"/>
      <point x="117.509" y="343.108" type="line"/>
      <point x="117.509" y="700.0" type="line"/>
      <point x="44.964" y="700.0" type="line"/>
    </contour>
  </outline>
</glyph>
<glyph name="I" format="2">
  <advance width="162.473"/>
  <unicode hex="0049"/>
  <anchor x="117.509" y="0.0" name="ogonek"/>
  <anchor x="81.376" y="0.0" name="bottom"/>
  <anchor x="81.376" y="700.0" name="top"/>
  <outline>
    <contour>
      <point x="44.964" y="0.0" type="line"/>
      <point x="117.509" y="0.0" type="line"/>
      <point x="117.509" y="700.0" type="line"/>
      <point x="44.964" y="700.0" type="line"/>
    </contour>
  </outline>
</glyph>
<glyph name="J" format="2">
  <advance width="293.982"/>
  <unicode hex="004A"/>
  <anchor x="147.029" y="700.0" name="top"/>
  <outline>
    <contour>
      <point x="5.478000000000001" y="8.863999999999997" type="line"/>
      <point x="37.544" y="-2.649"/>
      <point x="75.515" y="-10.068999999999999"/>
      <point x="112.489" y="-10.068999999999999" type="curve" smooth="yes"/>
      <point x="217.736" y="-10.068999999999999"/>
      <point x="254.96800000000002" y="51.44599999999999"/>
      <point x="254.96800000000002" y="150.624" type="curve" smooth="yes"/>
      <point x="254.96800000000002" y="700.0" type="line"/>
      <point x="31.105999999999998" y="700.0" type="line"/>
      <point x="31.105999999999998" y="628.82" type="line"/>
      <point x="182.423" y="628.82" type="line"/>
      <point x="182.423" y="170.151" type="line" smooth="yes"/>
      <point x="182.423" y="86.19399999999999"/>
      <point x="152.582" y="59.158"/>
      <point x="91.037" y="59.158" type="curve" smooth="yes"/>
      <point x="70.421" y="59.158"/>
      <point x="43.703" y="62.980999999999995"/>
      <point x="19.041" y="70.49499999999999" type="curve"/>
    </contour>
  </outline>
</glyph>
<glyph name="K" format="2">
  <advance width="392.325"/>
  <unicode hex="004B"/>
  <anchor x="198.01000000000002" y="700.0" name="top"/>
  <anchor x="207.94" y="0.0" name="bottom"/>
  <outline>
    <contour>
      <point x="367.65000000000003" y="-10.0" type="curve" smooth="yes"/>
      <point x="372.665" y="-10.0"/>
      <point x="378.25" y="-10.0"/>
      <point x="386.11" y="-8.0" type="curve"/>
      <point x="386.11" y="77.695" type="line"/>
      <point x="382.99" y="77.315"/>
      <point x="379.43" y="77.315"/>
      <point x="376.56" y="77.315" type="curve" smooth="yes"/>
      <point x="356.085" y="77.41000000000001"/>
      <point x="336.755" y="87.30000000000001"/>
      <point x="284.935" y="170.655" type="curve" smooth="yes"/>
      <point x="118.25999999999999" y="439.195" type="line"/>
      <point x="118.25999999999999" y="700.0" type="line"/>
      <point x="45.25" y="700.0" type="line"/>
      <point x="45.25" y="0.0" type="line"/>
      <point x="118.25999999999999" y="0.0" type="line"/>
      <point x="118.25999999999999" y="310.76500000000004" type="line"/>
      <point x="256.15500000000003" y="89.10499999999999" type="line" smooth="yes"/>
      <point x="298.875" y="20.565"/>
      <point x="328.685" y="-10.0"/>
    </contour>
    <contour>
      <point x="185.665" y="290.83" type="line"/>
      <point x="259.59499999999997" y="376.52500000000003"/>
      <point x="336.45" y="505.555"/>
      <point x="373.015" y="683.5500000000001" type="curve"/>
      <point x="310.4" y="702.345" type="line"/>
      <point x="274.455" y="536.35"/>
      <point x="199.83" y="416.86499999999995"/>
      <point x="145.25" y="348.245" type="curve"/>
    </contour>
  </outline>
</glyph>
<glyph name="L" format="2">
  <advance width="315.33"/>
  <unicode hex="004C"/>
  <anchor x="157.839" y="350.0" name="center"/>
  <anchor x="81.376" y="700.0" name="top"/>
  <anchor x="208.07500000000002" y="700.0" name="topright"/>
  <anchor x="176.469" y="0.0" name="bottom"/>
  <outline>
    <contour>
      <point x="44.964" y="0.0" type="line"/>
      <point x="306.97" y="0.0" type="line"/>
      <point x="306.97" y="70.28099999999999" type="line"/>
      <point x="117.788" y="70.28099999999999" type="line"/>
      <point x="117.788" y="700.0" type="line"/>
      <point x="44.964" y="700.0" type="line"/>
    </contour>
  </outline>
</glyph>
<glyph name="M" format="2">
  <advance width="483.757"/>
  <unicode hex="004D"/>
  <outline>
    <contour>
      <point x="45.064" y="0.0" type="line"/>
      <point x="111.81200000000001" y="0.0" type="line"/>
      <point x="111.81200000000001" y="559.8639999999999" type="line"/>
      <point x="221.748" y="231.225" type="line"/>
      <point x="260.451" y="231.225" type="line"/>
      <point x="371.945" y="560.046" type="line"/>
      <point x="371.945" y="0.0" type="line"/>
      <point x="438.693" y="0.0" type="line"/>
      <point x="438.693" y="700.0" type="line"/>
      <point x="363.91" y="700.0" type="line"/>
      <point x="243.262" y="347.06899999999996" type="line"/>
      <point x="122.612" y="700.0" type="line"/>
      <point x="45.064" y="700.0" type="line"/>
    </contour>
  </outline>
</glyph>
<glyph name="N" format="2">
  <advance width="429.4925"/>
  <unicode hex="004E"/>
  <anchor x="215.005" y="700.0" name="top"/>
  <anchor x="215.005" y="0.0" name="bottom"/>
  <outline>
    <contour>
      <point x="45.017500000000005" y="0.0" type="line"/>
      <point x="110.7425" y="0.0" type="line"/>
      <point x="110.7425" y="532.9325" type="line"/>
      <point x="310.56" y="-0.31" type="line"/>
      <point x="384.47499999999997" y="-0.31" type="line"/>
      <point x="384.47499999999997" y="700.0" type="line"/>
      <point x="318.75" y="700.0" type="line"/>
      <point x="318.75" y="157.1275" type="line"/>
      <point x="119.07000000000001" y="700.69" type="line"/>
      <point x="45.017500000000005" y="700.69" type="line"/>
    </contour>
  </outline>
</glyph>
<glyph name="O" format="2">
  <advance width="426.0775"/>
  <unicode hex="004F"/>
  <anchor x="261.665" y="3.255" name="ogonek"/>
  <anchor x="212.405" y="700.0" name="top"/>
  <anchor x="314.3075" y="690.47" name="topright"/>
  <anchor x="212.4825" y="0.0" name="bottom"/>
  <outline>
    <contour>
      <point x="212.405" y="56.765" type="curve" smooth="yes"/>
      <point x="142.5675" y="56.765"/>
      <point x="101.8525" y="113.425"/>
      <point x="101.8525" y="349.0775" type="curve" smooth="yes"/>
      <point x="101.8525" y="587.4375"/>
      <point x="142.4125" y="643.855"/>
      <point x="212.405" y="643.855" type="curve" smooth="yes"/>
      <point x="283.5525" y="643.855"/>
      <point x="324.05249999999995" y="587.92"/>
      <point x="324.05249999999995" y="349.62" type="curve" smooth="yes"/>
      <point x="324.05249999999995" y="113.32000000000001"/>
      <point x="283.5525" y="56.765"/>
    </contour>
    <contour>
      <point x="212.4825" y="-10.0" type="curve" smooth="yes"/>
      <point x="332.7725" y="-10.0"/>
      <point x="398.32" y="66.25999999999999"/>
      <point x="398.32" y="350.6625" type="curve" smooth="yes"/>
      <point x="398.32" y="634.05"/>
      <point x="333.0725" y="710.0"/>
      <point x="212.405" y="710.0" type="curve" smooth="yes"/>
      <point x="92.3925" y="710.0"/>
      <point x="27.7575" y="633.3349999999999"/>
      <point x="27.7575" y="349.155" type="curve" smooth="yes"/>
      <point x="27.7575" y="66.925"/>
      <point x="93.09" y="-10.0"/>
    </contour>
  </outline>
</glyph>
<glyph name="P" format="2">
  <advance width="382.335"/>
  <unicode hex="0050"/>
  <outline>
    <contour>
      <point x="44.964" y="0.0" type="line"/>
      <point x="117.788" y="0.0" type="line"/>
      <point x="117.788" y="249.425" type="line"/>
      <point x="147.979" y="247.28799999999998"/>
      <point x="162.229" y="247.219"/>
      <point x="192.20499999999998" y="247.219" type="curve" smooth="yes"/>
      <point x="311.037" y="247.219"/>
      <point x="364.359" y="318.101"/>
      <point x="364.359" y="487.059" type="curve" smooth="yes"/>
      <point x="364.359" y="649.0269999999999"/>
      <point x="321.79799999999994" y="710.0"/>
      <point x="178.42400000000004" y="710.0" type="curve" smooth="yes"/>
      <point x="153.281" y="710.0"/>
      <point x="110.929" y="708.2479999999999"/>
      <point x="44.964" y="703.042" type="curve"/>
    </contour>
    <contour>
      <point x="118.06700000000001" y="640.08" type="line"/>
      <point x="148.75799999999998" y="643.456"/>
      <point x="166.479" y="644.2149999999999"/>
      <point x="183.23000000000002" y="644.2149999999999" type="curve" smooth="yes"/>
      <point x="270.516" y="644.2149999999999"/>
      <point x="291.318" y="599.638"/>
      <point x="291.318" y="488.513" type="curve" smooth="yes"/>
      <point x="291.318" y="360.796"/>
      <point x="259.97900000000004" y="313.502"/>
      <point x="179.248" y="313.502" type="curve" smooth="yes"/>
      <point x="155.766" y="313.502"/>
      <point x="140.51000000000002" y="313.74"/>
      <point x="118.06700000000001" y="315.25000000000006" type="curve"/>
    </contour>
  </outline>
</glyph>
<glyph name="Q" format="2">
  <advance width="426.124"/>
  <unicode hex="0051"/>
  <outline>
    <contour>
      <point x="263.496" y="19.991999999999997" type="curve"/>
      <point x="206.36999999999998" y="3.9659999999999997" type="line"/>
      <point x="227.30800000000002" y="-141.61999999999998"/>
      <point x="254.77200000000002" y="-195.893"/>
      <point x="318.015" y="-195.893" type="curve" smooth="yes"/>
      <point x="337.487" y="-195.893"/>
      <point x="359.808" y="-190.548"/>
      <point x="381.907" y="-181.889" type="curve"/>
      <point x="371.565" y="-113.801" type="line"/>
      <point x="356.721" y="-120.846"/>
      <point x="342.205" y="-125.09800000000001"/>
      <point x="330.195" y="-125.09800000000001" type="curve" smooth="yes"/>
      <point x="296.14099999999996" y="-125.09800000000001"/>
      <point x="280.615" y="-88.053"/>
    </contour>
    <component base="O"/>
  </outline>
</glyph>
<glyph name="R" format="2">
  <advance width="402.64000000000004"/>
  <unicode hex="0052"/>
  <anchor x="196.355" y="700.0" name="top"/>
  <anchor x="203.1" y="0.0" name="bottom"/>
  <outline>
    <contour>
      <point x="370.315" y="-10.0" type="curve" smooth="yes"/>
      <point x="382.575" y="-10.0"/>
      <point x="390.77000000000004" y="-7.25"/>
      <point x="396.965" y="-5.5" type="curve"/>
      <point x="394.085" y="70.28" type="line"/>
      <point x="391.765" y="69.89999999999999"/>
      <point x="384.525" y="69.365"/>
      <point x="382.835" y="69.365" type="curve" smooth="yes"/>
      <point x="354.805" y="69.365"/>
      <point x="327.13" y="95.03999999999999"/>
      <point x="264.07" y="295.7" type="curve"/>
      <point x="328.58" y="320.815"/>
      <point x="362.495" y="389.815"/>
      <point x="362.495" y="505.185" type="curve" smooth="yes"/>
      <point x="362.495" y="655.355"/>
      <point x="305.48" y="710.0"/>
      <point x="180.42499999999998" y="710.0" type="curve" smooth="yes"/>
      <point x="135.26" y="710.0"/>
      <point x="94.225" y="707.38"/>
      <point x="45.25" y="702.51" type="curve"/>
      <point x="45.25" y="0.0" type="line"/>
      <point x="117.33" y="0.0" type="line"/>
      <point x="117.33" y="272.425" type="line"/>
      <point x="132.51" y="271.33"/>
      <point x="151.56" y="271.235"/>
      <point x="169.25" y="271.235" type="curve" smooth="yes"/>
      <point x="178.16" y="271.235"/>
      <point x="190.1" y="272.08"/>
      <point x="198.725" y="273.365" type="curve"/>
      <point x="279.02" y="17.889999999999997"/>
      <point x="314.19" y="-10.0"/>
    </contour>
    <contour>
      <point x="177.535" y="337.425" type="curve" smooth="yes"/>
      <point x="156.43499999999997" y="337.425"/>
      <point x="138.36" y="338.14"/>
      <point x="117.33" y="339.39" type="curve"/>
      <point x="117.33" y="639.915" type="line"/>
      <point x="142.625" y="643.165"/>
      <point x="158.43" y="644.01"/>
      <point x="179.875" y="644.01" type="curve" smooth="yes"/>
      <point x="263.165" y="644.01"/>
      <point x="288.4" y="601.33"/>
      <point x="288.4" y="494.16" type="curve" smooth="yes"/>
      <point x="288.4" y="383.17"/>
      <point x="252.57" y="337.425"/>
    </contour>
  </outline>
</glyph>
<glyph name="S" format="2">
  <advance width="359.82499999999993"/>
  <unicode hex="0053"/>
  <anchor x="186.24249999999998" y="700.0" name="top"/>
  <anchor x="177.665" y="0.0" name="bottom"/>
  <outline>
    <contour>
      <point x="317.21250000000003" y="686.61" type="line"/>
      <point x="290.855" y="698.7625"/>
      <point x="240.11249999999998" y="710.0"/>
      <point x="194.445" y="710.0" type="curve" smooth="yes"/>
      <point x="83.60499999999999" y="710.0"/>
      <point x="27.5" y="639.2525"/>
      <point x="27.5" y="546.1275" type="curve" smooth="yes"/>
      <point x="27.5" y="449.125"/>
      <point x="75.22" y="385.92499999999995"/>
      <point x="145.0675" y="328.57" type="curve" smooth="yes"/>
      <point x="216.125" y="271.26"/>
      <point x="266.21250000000003" y="222.8125"/>
      <point x="266.21250000000003" y="151.7525" type="curve" smooth="yes"/>
      <point x="266.21250000000003" y="86.80999999999999"/>
      <point x="218.7" y="56.81"/>
      <point x="157.4775" y="56.81" type="curve" smooth="yes"/>
      <point x="118.66250000000001" y="56.81"/>
      <point x="72.80499999999999" y="64.9375"/>
      <point x="32.3425" y="80.805" type="curve"/>
      <point x="15.507499999999999" y="18.225000000000005" type="line"/>
      <point x="53.655" y="0.3874999999999999"/>
      <point x="111.27749999999999" y="-10.0"/>
      <point x="158.48499999999999" y="-10.0" type="curve" smooth="yes"/>
      <point x="267.40000000000003" y="-10.0"/>
      <point x="338.69750000000005" y="51.2175"/>
      <point x="338.69750000000005" y="156.6725" type="curve" smooth="yes"/>
      <point x="338.69750000000005" y="256.7325"/>
      <point x="287.3425" y="317.46000000000004"/>
      <point x="213.98999999999998" y="374.66999999999996" type="curve" smooth="yes"/>
      <point x="145.1275" y="429.07"/>
      <point x="100.91499999999999" y="475.48999999999995"/>
      <point x="100.91499999999999" y="546.205" type="curve" smooth="yes"/>
      <point x="100.91499999999999" y="607.17"/>
      <point x="139.20749999999998" y="642.615"/>
      <point x="199.32750000000001" y="642.615" type="curve" smooth="yes"/>
      <point x="234.92000000000002" y="642.615"/>
      <point x="269.4125" y="636.615"/>
      <point x="300.395" y="624.3075000000001" type="curve"/>
    </contour>
  </outline>
</glyph>
<glyph name="T" format="2">
  <advance width="347.086"/>
  <unicode hex="0054"/>
  <anchor x="173.543" y="700.0" name="top"/>
  <anchor x="173.543" y="0.0" name="bottom"/>
  <outline>
    <contour>
      <point x="339.69200000000006" y="628.672" type="line"/>
      <point x="339.69200000000006" y="700.0" type="line"/>
      <point x="7.393999999999999" y="700.0" type="line"/>
      <point x="7.393999999999999" y="628.672" type="line"/>
      <point x="137.41" y="628.672" type="line"/>
      <point x="137.41" y="0.0" type="line"/>
      <point x="209.95499999999998" y="0.0" type="line"/>
      <point x="209.95499999999998" y="628.672" type="line"/>
    </contour>
  </outline>
</glyph>
<glyph name="U" format="2">
  <advance width="417.19000000000005"/>
  <unicode hex="0055"/>
  <anchor x="254.306" y="0.558" name="ogonek"/>
  <anchor x="209.04500000000002" y="700.0" name="top"/>
  <anchor x="378.176" y="700.0" name="topright"/>
  <anchor x="209.04500000000002" y="0.0" name="bottom"/>
  <outline>
    <contour>
      <point x="39.014" y="170.57199999999997" type="line"/>
      <point x="39.014" y="29.140000000000004"/>
      <point x="115.08600000000001" y="-10.0"/>
      <point x="208.487" y="-10.0" type="curve" smooth="yes"/>
      <point x="303.841" y="-10.0"/>
      <point x="378.176" y="29.140000000000004"/>
      <point x="378.176" y="170.57199999999997" type="curve" smooth="yes"/>
      <point x="378.176" y="700.0" type="line"/>
      <point x="305.321" y="700.0" type="line"/>
      <point x="305.321" y="164.589" type="line" smooth="yes"/>
      <point x="305.321" y="75.641"/>
      <point x="257.881" y="56.841"/>
      <point x="208.57999999999998" y="56.841" type="curve" smooth="yes"/>
      <point x="159.77499999999998" y="56.841"/>
      <point x="111.311" y="75.362"/>
      <point x="111.311" y="164.589" type="curve" smooth="yes"/>
      <point x="111.311" y="700.0" type="line"/>
      <point x="39.014" y="700.0" type="line"/>
    </contour>
  </outline>
</glyph>
<glyph name="V" format="2">
  <advance width="386.27299999999997"/>
  <unicode hex="0056"/>
  <outline>
    <contour>
      <point x="149.761" y="0.0" type="line"/>
      <point x="238.775" y="0.0" type="line"/>
      <point x="379.803" y="699.275" type="line"/>
      <point x="304.04599999999994" y="701.756" type="line"/>
      <point x="194.32999999999998" y="92.64999999999999" type="line"/>
      <point x="82.32" y="701.756" type="line"/>
      <point x="6.470000000000001" y="699.275" type="line"/>
    </contour>
  </outline>
</glyph>
<glyph name="W" format="2">
  <advance width="519.08"/>
  <unicode hex="0057"/>
  <anchor x="259.415" y="700.0" name="top"/>
  <anchor x="259.415" y="0.0" name="bottom"/>
  <outline>
    <contour>
      <point x="420.112" y="0.0" type="line"/>
      <point x="512.866" y="699.463" type="line"/>
      <point x="434.55699999999996" y="701.568" type="line"/>
      <point x="378.156" y="107.263" type="line"/>
      <point x="290.951" y="680.626" type="line"/>
      <point x="230.95" y="680.626" type="line"/>
      <point x="143.218" y="107.13900000000001" type="line"/>
      <point x="84.337" y="701.568" type="line"/>
      <point x="6.214" y="699.463" type="line"/>
      <point x="98.78800000000001" y="0.0" type="line"/>
      <point x="175.41" y="0.0" type="line"/>
      <point x="257.797" y="542.265" type="line"/>
      <point x="338.60900000000004" y="0.0" type="line"/>
    </contour>
  </outline>
</glyph>
<glyph name="X" format="2">
  <advance width="396.66"/>
  <unicode hex="0058"/>
  <outline>
    <contour>
      <point x="15.079999999999998" y="1.725" type="line"/>
      <point x="97.37" y="-3.1049999999999995" type="line"/>
      <point x="197.1225" y="300.07250000000005" type="line"/>
      <point x="297.70500000000004" y="-3.1049999999999995" type="line"/>
      <point x="380.44250000000005" y="1.725" type="line"/>
      <point x="249.44" y="358.3025" type="line"/>
      <point x="372.3475" y="697.6625" type="line"/>
      <point x="291.7025" y="702.3375" type="line"/>
      <point x="200.4925" y="417.41499999999996" type="line"/>
      <point x="106.60999999999999" y="702.3375" type="line"/>
      <point x="24.6475" y="697.6625" type="line"/>
      <point x="148.4" y="358.64" type="line"/>
    </contour>
  </outline>
</glyph>
<glyph name="Y" format="2">
  <advance width="379.47999999999996"/>
  <unicode hex="0059"/>
  <anchor x="190.361" y="700.0" name="top"/>
  <anchor x="190.223" y="0.0" name="bottom"/>
  <outline>
    <contour>
      <point x="154.43200000000002" y="0.0" type="line"/>
      <point x="226.97699999999998" y="0.0" type="line"/>
      <point x="226.97699999999998" y="282.25" type="line"/>
      <point x="371.247" y="697.5849999999999" type="line"/>
      <point x="292.126" y="702.4150000000001" type="line"/>
      <point x="190.90599999999998" y="341.64599999999996" type="line"/>
      <point x="84.994" y="702.4150000000001" type="line"/>
      <point x="5.749" y="697.5849999999999" type="line"/>
      <point x="154.43200000000002" y="282.25" type="line"/>
    </contour>
  </outline>
</glyph>
<glyph name="Z" format="2">
  <advance width="363.988"/>
  <unicode hex="005A"/>
  <anchor x="187.381" y="350.0" name="center"/>
  <anchor x="187.381" y="0.0" name="bottom"/>
  <anchor x="187.668" y="700.0" name="top"/>
  <outline>
    <contour>
      <point x="16.604999999999997" y="0.0" type="line"/>
      <point x="351.941" y="0.0" type="line"/>
      <point x="351.941" y="68.01800000000001" type="line"/>
      <point x="91.641" y="68.01800000000001" type="line"/>
      <point x="91.641" y="69.553" type="line"/>
      <point x="337.462" y="633.5400000000001" type="line"/>
      <point x="337.462" y="700.0" type="line"/>
      <point x="30.895999999999997" y="700.0" type="line"/>
      <point x="30.895999999999997" y="632.4469999999999" type="line"/>
      <point x="261.496" y="632.4469999999999" type="line"/>
      <point x="261.496" y="630.447" type="line"/>
      <point x="16.604999999999997" y="66.92500000000001" type="line"/>
    </contour>
  </outline>
</glyph>
<glyph name="bracketleft" format="2">
  <advance width="220.52599999999998"/>
  <unicode hex="005B"/>
  <outline>
    <contour>
      <point x="104.45200000000001" y="-150.01" type="line"/>
      <point x="104.45200000000001" y="680.0100000000001" type="line"/>
      <point x="210.216" y="680.0100000000001" type="line"/>
      <point x="210.216" y="740.0" type="line"/>
      <point x="46.415" y="740.0" type="line"/>
      <point x="46.415" y="-210.0" type="line"/>
      <point x="210.216" y="-210.0" type="line"/>
      <point x="210.216" y="-150.01" type="line"/>
    </contour>
  </outline>
</glyph>
<glyph name="backslash" format="2">
  <advance width="277.293"/>
  <unicode hex="005C"/>
  <outline>
    <contour>
      <point x="61.594" y="740.0" type="line"/>
      <point x="-0.5479999999999997" y="740.0" type="line"/>
      <point x="215.97799999999998" y="-210.0" type="line"/>
      <point x="277.841" y="-210.0" type="line"/>
    </contour>
  </outline>
</glyph>
<glyph name="bracketright" format="2">
  <advance width="220.52599999999998"/>
  <unicode hex="005D"/>
  <outline>
    <contour>
      <point x="10.31" y="-150.01" type="line"/>
      <point x="10.31" y="-210.0" type="line"/>
      <point x="174.111" y="-210.0" type="line"/>
      <point x="174.111" y="740.0" type="line"/>
      <point x="10.31" y="740.0" type="line"/>
      <point x="10.31" y="680.0100000000001" type="line"/>
      <point x="116.074" y="680.0100000000001" type="line"/>
      <point x="116.074" y="-150.01" type="line"/>
    </contour>
  </outline>
</glyph>
<glyph name="asciicircum" format="2">
  <advance width="409.832"/>
  <unicode hex="005E"/>
  <outline>
    <contour>
      <point x="40.095" y="266.08299999999997" type="line"/>
      <point x="96.883" y="266.08299999999997" type="line"/>
      <point x="204.916" y="631.1629999999999" type="line"/>
      <point x="313.259" y="266.08299999999997" type="line"/>
      <point x="369.73699999999997" y="266.08299999999997" type="line"/>
      <point x="240.36700000000002" y="706.9" type="line"/>
      <point x="169.465" y="706.9" type="line"/>
    </contour>
  </outline>
</glyph>
<glyph name="underscore" format="2">
  <advance width="653.4620000000001"/>
  <unicode hex="005F"/>
  <outline>
    <contour>
      <point x="6.2" y="-158.661" type="line"/>
      <point x="647.2620000000001" y="-158.661" type="line"/>
      <point x="647.2620000000001" y="-92.781" type="line"/>
      <point x="6.2" y="-92.781" type="line"/>
    </contour>
  </outline>
</glyph>
<glyph name="a" format="2">
  <advance width="354.41999999999996"/>
  <unicode hex="0061"/>
  <anchor x="354.62" y="4.58" name="ogonek"/>
  <anchor x="168.865" y="0.0" name="bottom"/>
  <anchor x="168.20499999999998" y="536.2" name="top"/>
  <outline>
    <contour>
      <point x="13.209999999999999" y="125.17" type="curve" smooth="yes"/>
      <point x="13.209999999999999" y="44.08"/>
      <point x="51.045" y="-10.0"/>
      <point x="120.3" y="-10.0" type="curve" smooth="yes"/>
      <point x="168.635" y="-10.0"/>
      <point x="202.98499999999999" y="11.505"/>
      <point x="233.845" y="41.505" type="curve"/>
      <point x="240.975" y="8.365"/>
      <point x="262.47" y="-10.0"/>
      <point x="299.40000000000003" y="-10.0" type="curve" smooth="yes"/>
      <point x="321.37" y="-10.0"/>
      <point x="338.2" y="-4.745"/>
      <point x="354.62" y="4.735" type="curve"/>
      <point x="346.165" y="66.995" type="line"/>
      <point x="337.395" y="62.614999999999995"/>
      <point x="329.075" y="61.235"/>
      <point x="321.505" y="61.235" type="curve" smooth="yes"/>
      <point x="308.915" y="61.235"/>
      <point x="300.75" y="69.375"/>
      <point x="300.75" y="97.99" type="curve" smooth="yes"/>
      <point x="300.75" y="395.34000000000003" type="line" smooth="yes"/>
      <point x="300.75" y="492.30499999999995"/>
      <point x="258.56" y="546.2"/>
      <point x="157.48000000000002" y="546.2" type="curve" smooth="yes"/>
      <point x="122.88499999999999" y="546.2"/>
      <point x="78.27" y="538.41"/>
      <point x="38.24" y="523.24" type="curve"/>
      <point x="54.290000000000006" y="458.155" type="line"/>
      <point x="94.275" y="471.76500000000004"/>
      <point x="127.18499999999999" y="475.05"/>
      <point x="150.755" y="475.05" type="curve" smooth="yes"/>
      <point x="200.87" y="475.05"/>
      <point x="228.92000000000002" y="445.695"/>
      <point x="228.92000000000002" y="393.325" type="curve" smooth="yes"/>
      <point x="228.92000000000002" y="300.21" type="line"/>
      <point x="95.355" y="278.31"/>
      <point x="13.209999999999999" y="243.655"/>
    </contour>
    <contour>
      <point x="84.82499999999999" y="133.42499999999998" type="curve" smooth="yes"/>
      <point x="84.82499999999999" y="213.315"/>
      <point x="150.44" y="235.465"/>
      <point x="228.92000000000002" y="248.35" type="curve"/>
      <point x="228.92000000000002" y="95.19999999999999" type="line"/>
      <point x="209.085" y="70.985"/>
      <point x="177.6" y="49.455"/>
      <point x="143.595" y="49.455" type="curve" smooth="yes"/>
      <point x="107.35000000000001" y="49.455"/>
      <point x="84.82499999999999" y="78.39500000000001"/>
    </contour>
  </outline>
</glyph>
<glyph name="b" format="2">
  <advance width="362.969"/>
  <unicode hex="0062"/>
  <outline>
    <contour>
      <point x="42.855" y="9.947000000000001" type="line"/>
      <point x="87.685" y="-3.137"/>
      <point x="128.885" y="-10.0"/>
      <point x="163.836" y="-10.0" type="curve" smooth="yes"/>
      <point x="287.59400000000005" y="-10.0"/>
      <point x="336.165" y="70.01299999999999"/>
      <point x="336.165" y="281.73599999999993" type="curve" smooth="yes"/>
      <point x="336.165" y="455.93100000000004"/>
      <point x="292.885" y="546.2"/>
      <point x="209.12" y="546.2" type="curve" smooth="yes"/>
      <point x="178.136" y="546.2"/>
      <point x="142.03600000000003" y="534.3380000000001"/>
      <point x="114.78" y="515.5649999999999" type="curve"/>
      <point x="114.78" y="740.0" type="line"/>
      <point x="42.855" y="740.0" type="line"/>
    </contour>
    <contour>
      <point x="114.78" y="56.415" type="curve"/>
      <point x="114.78" y="454.29" type="line"/>
      <point x="142.579" y="473.07599999999996"/>
      <point x="161.081" y="479.64"/>
      <point x="185.555" y="479.64" type="curve" smooth="yes"/>
      <point x="234.80200000000002" y="479.64"/>
      <point x="261.047" y="413.51300000000003"/>
      <point x="261.047" y="275.443" type="curve" smooth="yes"/>
      <point x="261.047" y="102.771"/>
      <point x="235.04399999999998" y="48.21300000000001"/>
      <point x="165.288" y="48.21300000000001" type="curve" smooth="yes"/>
      <point x="151.09799999999998" y="48.21300000000001"/>
      <point x="137.505" y="50.51"/>
    </contour>
  </outline>
</glyph>
<glyph name="c" format="2">
  <advance width="308.681"/>
  <unicode hex="0063"/>
  <anchor x="186.56500000000003" y="536.2" name="top"/>
  <anchor x="189.046" y="0.0" name="bottom"/>
  <outline>
    <contour>
      <point x="27.114" y="263.688" type="curve" smooth="yes"/>
      <point x="27.114" y="73.412"/>
      <point x="79.687" y="-10.0"/>
      <point x="189.381" y="-10.0" type="curve" smooth="yes"/>
      <point x="224.167" y="-10.0"/>
      <point x="268.448" y="-3.4849999999999994"/>
      <point x="293.784" y="4.963000000000001" type="curve"/>
      <point x="279.461" y="67.214" type="line"/>
      <point x="256.771" y="62.146"/>
      <point x="226.236" y="58.049"/>
      <point x="204.22699999999998" y="58.049" type="curve" smooth="yes"/>
      <point x="137.04100000000003" y="58.049"/>
      <point x="100.992" y="111.42299999999999"/>
      <point x="100.992" y="261.977" type="curve" smooth="yes"/>
      <point x="100.992" y="423.05899999999997"/>
      <point x="136.22299999999998" y="478.027"/>
      <point x="207.596" y="478.027" type="curve" smooth="yes"/>
      <point x="230.395" y="478.027"/>
      <point x="253.43600000000004" y="474.875"/>
      <point x="275.111" y="469.33000000000004" type="curve"/>
      <point x="287.14" y="533.6270000000001" type="line"/>
      <point x="262.85999999999996" y="541.87"/>
      <point x="227.502" y="546.2"/>
      <point x="197.865" y="546.2" type="curve" smooth="yes"/>
      <point x="82.37100000000001" y="546.2"/>
      <point x="27.114" y="460.454"/>
    </contour>
  </outline>
</glyph>
<glyph name="d" format="2">
  <advance width="363.31"/>
  <unicode hex="0064"/>
  <anchor x="181.20900000000003" y="275.0" name="center"/>
  <anchor x="181.6105" y="740.0" name="top"/>
  <anchor x="378.02000000000004" y="740.0" name="topright"/>
  <anchor x="181.20900000000003" y="0.0" name="bottom"/>
  <outline>
    <contour>
      <point x="257.139" y="-0.155" type="line"/>
      <point x="320.5325" y="-0.155" type="line"/>
      <point x="320.5325" y="740.0" type="line"/>
      <point x="248.1425" y="740.0" type="line"/>
      <point x="248.1425" y="538.0585" type="line"/>
      <point x="226.59500000000003" y="543.779"/>
      <point x="205.949" y="546.2"/>
      <point x="187.043" y="546.2" type="curve" smooth="yes"/>
      <point x="76.39800000000001" y="546.2"/>
      <point x="26.757499999999997" y="459.491"/>
      <point x="26.757499999999997" y="256.9905" type="curve" smooth="yes"/>
      <point x="26.757499999999997" y="81.50600000000001"/>
      <point x="71.201" y="-10.0"/>
      <point x="154.51950000000002" y="-10.0" type="curve" smooth="yes"/>
      <point x="188.03" y="-10.0"/>
      <point x="221.27299999999997" y="0.62"/>
      <point x="249.46" y="21.0775" type="curve"/>
    </contour>
    <contour>
      <point x="248.1425" y="80.329" type="line"/>
      <point x="221.21150000000003" y="62.535"/>
      <point x="202.08950000000002" y="55.893499999999996"/>
      <point x="177.382" y="55.893499999999996" type="curve" smooth="yes"/>
      <point x="128.601" y="55.893499999999996"/>
      <point x="102.325" y="122.71"/>
      <point x="102.325" y="265.438" type="curve" smooth="yes"/>
      <point x="102.325" y="433.429"/>
      <point x="128.2195" y="486.964"/>
      <point x="197.588" y="486.964" type="curve" smooth="yes"/>
      <point x="212.181" y="486.964"/>
      <point x="225.96099999999998" y="484.7755000000001"/>
      <point x="248.1425" y="478.049" type="curve"/>
    </contour>
  </outline>
</glyph>
<glyph name="e" format="2">
  <advance width="350.614"/>
  <unicode hex="0065"/>
  <anchor x="288.757" y="5.368999999999999" name="ogonek"/>
  <anchor x="185.53" y="0.0" name="bottom"/>
  <anchor x="184.78199999999998" y="536.2" name="top"/>
  <outline>
    <contour>
      <point x="186.08299999999997" y="-10.0" type="curve" smooth="yes"/>
      <point x="234.381" y="-10.0"/>
      <point x="278.50800000000004" y="-1.877"/>
      <point x="319.355" y="14.583" type="curve"/>
      <point x="308.658" y="75.59399999999998" type="line"/>
      <point x="273.00800000000004" y="63.977"/>
      <point x="235.82600000000002" y="56.623"/>
      <point x="201.46" y="56.623" type="curve" smooth="yes"/>
      <point x="129.803" y="56.623"/>
      <point x="100.775" y="100.185"/>
      <point x="100.775" y="238.662" type="curve" smooth="yes"/>
      <point x="100.775" y="244.805"/>
      <point x="100.813" y="251.097"/>
      <point x="101.00600000000001" y="257.202" type="curve"/>
      <point x="194.775" y="257.97700000000003"/>
      <point x="282.786" y="268.752"/>
      <point x="326.45099999999996" y="274.94800000000004" type="curve"/>
      <point x="326.644" y="284.417"/>
      <point x="327.606" y="307.87800000000004"/>
      <point x="327.606" y="316.47499999999997" type="curve" smooth="yes"/>
      <point x="327.606" y="480.898"/>
      <point x="283.824" y="546.2"/>
      <point x="191.475" y="546.2" type="curve" smooth="yes"/>
      <point x="91.386" y="546.2"/>
      <point x="26.990000000000002" y="479.257"/>
      <point x="26.990000000000002" y="255.077" type="curve" smooth="yes"/>
      <point x="26.990000000000002" y="63.469"/>
      <point x="77.95700000000001" y="-10.0"/>
    </contour>
    <contour>
      <point x="101.275" y="311.238" type="curve"/>
      <point x="108.44999999999999" y="456.46"/>
      <point x="144.693" y="487.82399999999996"/>
      <point x="187.755" y="487.82399999999996" type="curve" smooth="yes"/>
      <point x="233.308" y="487.82399999999996"/>
      <point x="255.798" y="446.686"/>
      <point x="256.108" y="321.249" type="curve"/>
      <point x="234.857" y="317.22300000000007"/>
      <point x="165.40800000000002" y="311.39300000000003"/>
    </contour>
  </outline>
</glyph>
<glyph name="f" format="2">
  <advance width="253.038"/>
  <unicode hex="0066"/>
  <outline>
    <contour>
      <point x="73.90599999999999" y="0.0" type="line"/>
      <point x="144.591" y="0.0" type="line"/>
      <point x="144.591" y="435.977" type="line"/>
      <point x="239.76" y="435.977" type="line"/>
      <point x="239.76" y="496.555" type="line"/>
      <point x="144.87" y="496.555" type="line"/>
      <point x="144.87" y="520.778" type="line" smooth="yes"/>
      <point x="144.87" y="637.8670000000001"/>
      <point x="171.608" y="685.864"/>
      <point x="228.55499999999998" y="685.864" type="curve" smooth="yes"/>
      <point x="245.16400000000002" y="685.864"/>
      <point x="261.872" y="683.6089999999999"/>
      <point x="282.67600000000004" y="677.033" type="curve"/>
      <point x="294.03" y="734.262" type="line"/>
      <point x="264.271" y="745.602"/>
      <point x="239.081" y="750.0690000000001"/>
      <point x="212.15900000000002" y="750.0690000000001" type="curve" smooth="yes"/>
      <point x="120.286" y="750.0690000000001"/>
      <point x="73.90599999999999" y="678.616"/>
      <point x="73.90599999999999" y="521.5219999999999" type="curve" smooth="yes"/>
      <point x="73.90599999999999" y="496.555" type="line"/>
      <point x="11.765" y="489.911" type="line"/>
      <point x="11.765" y="435.977" type="line"/>
      <point x="73.90599999999999" y="435.977" type="line"/>
    </contour>
  </outline>
</glyph>
<glyph name="g" format="2">
  <advance width="366.521"/>
  <unicode hex="0067"/>
  <anchor x="179.792" y="536.2" name="top"/>
  <anchor x="185.676" y="-211.0" name="bottom"/>
  <outline>
    <contour>
      <point x="178.487" y="-220.0" type="curve" smooth="yes"/>
      <point x="293.109" y="-220.0"/>
      <point x="355.842" y="-158.221"/>
      <point x="355.842" y="-55.979" type="curve" smooth="yes"/>
      <point x="355.842" y="32.645"/>
      <point x="312.113" y="83.57600000000001"/>
      <point x="231.86599999999999" y="83.57600000000001" type="curve" smooth="yes"/>
      <point x="155.276" y="83.57600000000001" type="line" smooth="yes"/>
      <point x="112.974" y="83.57600000000001"/>
      <point x="95.427" y="103.352"/>
      <point x="95.427" y="135.225" type="curve" smooth="yes"/>
      <point x="95.427" y="167.092"/>
      <point x="109.05499999999999" y="188.61599999999999"/>
      <point x="136.566" y="208.73499999999999" type="curve"/>
      <point x="96.742" y="227.184" type="line"/>
      <point x="59.589999999999996" y="199.15800000000002"/>
      <point x="37.17399999999999" y="163.635"/>
      <point x="37.17399999999999" y="116.751" type="curve" smooth="yes"/>
      <point x="37.17399999999999" y="57.118"/>
      <point x="73.469" y="15.713000000000003"/>
      <point x="147.722" y="15.713000000000003" type="curve" smooth="yes"/>
      <point x="216.863" y="15.713000000000003" type="line" smooth="yes"/>
      <point x="264.32599999999996" y="15.713000000000003"/>
      <point x="288.41200000000003" y="-12.624000000000002"/>
      <point x="288.41200000000003" y="-62.723" type="curve" smooth="yes"/>
      <point x="288.41200000000003" y="-122.76299999999999"/>
      <point x="252.69699999999997" y="-157.71699999999998"/>
      <point x="183.137" y="-157.71699999999998" type="curve" smooth="yes"/>
      <point x="116.461" y="-157.71699999999998"/>
      <point x="82.243" y="-126.44999999999999"/>
      <point x="82.243" y="-63.679" type="curve" smooth="yes"/>
      <point x="82.243" y="-23.111"/>
      <point x="96.632" y="5.609"/>
      <point x="126.31200000000001" y="29.093000000000004" type="curve"/>
      <point x="81.16899999999998" y="45.82" type="line"/>
      <point x="40.20100000000001" y="16.394000000000002"/>
      <point x="20.858000000000004" y="-23.591"/>
      <point x="20.858000000000004" y="-78.752" type="curve" smooth="yes"/>
      <point x="20.858000000000004" y="-171.43"/>
      <point x="76.76" y="-220.0"/>
    </contour>
    <contour>
      <point x="179.90699999999998" y="192.05900000000003" type="curve" smooth="yes"/>
      <point x="270.45700000000005" y="192.05900000000003"/>
      <point x="316.80099999999993" y="251.434"/>
      <point x="316.80099999999993" y="368.9" type="curve" smooth="yes"/>
      <point x="316.80099999999993" y="486.521"/>
      <point x="270.45700000000005" y="546.2"/>
      <point x="179.90699999999998" y="546.2" type="curve" smooth="yes"/>
      <point x="88.89200000000001" y="546.2"/>
      <point x="42.548" y="486.521"/>
      <point x="42.548" y="368.9" type="curve" smooth="yes"/>
      <point x="42.548" y="251.434"/>
      <point x="88.89200000000001" y="192.05900000000003"/>
    </contour>
    <contour>
      <point x="179.90699999999998" y="250.584" type="curve" smooth="yes"/>
      <point x="133.75199999999998" y="250.584"/>
      <point x="112.303" y="285.18699999999995"/>
      <point x="112.303" y="368.9" type="curve" smooth="yes"/>
      <point x="112.303" y="453.26500000000004"/>
      <point x="133.75199999999998" y="487.83"/>
      <point x="179.90699999999998" y="487.83" type="curve" smooth="yes"/>
      <point x="226.06199999999998" y="487.83"/>
      <point x="247.04600000000002" y="453.26500000000004"/>
      <point x="247.04600000000002" y="368.9" type="curve" smooth="yes"/>
      <point x="247.04600000000002" y="285.18699999999995"/>
      <point x="226.06199999999998" y="250.584"/>
    </contour>
    <contour>
      <point x="288.003" y="454.258" type="line"/>
      <point x="301.023" y="481.491"/>
      <point x="315.973" y="493.479"/>
      <point x="334.759" y="493.479" type="curve" smooth="yes"/>
      <point x="342.80899999999997" y="493.479"/>
      <point x="347.517" y="492.82099999999997"/>
      <point x="352.56999999999994" y="491.435" type="curve"/>
      <point x="361.668" y="555.1449999999999" type="line"/>
      <point x="354.334" y="558.546"/>
      <point x="345.555" y="560.2889999999999"/>
      <point x="334.13899999999995" y="560.2889999999999" type="curve" smooth="yes"/>
      <point x="301.644" y="560.2889999999999"/>
      <point x="274.515" y="541.2860000000001"/>
      <point x="259.602" y="506.66499999999996" type="curve"/>
    </contour>
  </outline>
</glyph>
<glyph name="h" format="2">
  <advance width="367.5535"/>
  <unicode hex="0068"/>
  <anchor x="183.69549999999998" y="395.0" name="center"/>
  <anchor x="184.00549999999998" y="0.0" name="bottom"/>
  <anchor x="188.1635" y="740.0" name="top"/>
  <outline>
    <contour>
      <point x="42.777499999999996" y="0.0" type="line"/>
      <point x="114.935" y="0.0" type="line"/>
      <point x="114.935" y="452.47" type="line"/>
      <point x="138.65599999999998" y="467.975"/>
      <point x="167.8895" y="478.6015"/>
      <point x="193.334" y="478.6015" type="curve" smooth="yes"/>
      <point x="232.577" y="478.6015"/>
      <point x="252.85099999999997" y="455.47299999999996"/>
      <point x="252.85099999999997" y="410.9385" type="curve" smooth="yes"/>
      <point x="252.85099999999997" y="0.0" type="line"/>
      <point x="325.24100000000004" y="0.0" type="line"/>
      <point x="325.24100000000004" y="428.2985" type="line" smooth="yes"/>
      <point x="325.24100000000004" y="512.436"/>
      <point x="283.8415" y="546.2"/>
      <point x="224.248" y="546.2" type="curve" smooth="yes"/>
      <point x="186.1415" y="546.2"/>
      <point x="147.637" y="532.7394999999999"/>
      <point x="114.935" y="509.81750000000005" type="curve"/>
      <point x="114.935" y="740.0" type="line"/>
      <point x="42.777499999999996" y="740.0" type="line"/>
    </contour>
  </outline>
</glyph>
<glyph name="i" format="2">
  <advance width="157.63500000000002"/>
  <unicode hex="0069"/>
  <anchor x="114.711" y="0.0" name="ogonek"/>
  <anchor x="78.95700000000001" y="0.0" name="bottom"/>
  <outline>
    <contour>
      <point x="78.95700000000001" y="643.5509999999999" type="curve" smooth="yes"/>
      <point x="110.641" y="643.5509999999999"/>
      <point x="121.746" y="655.742"/>
      <point x="121.746" y="689.381" type="curve" smooth="yes"/>
      <point x="121.746" y="723.578"/>
      <point x="110.083" y="735.49"/>
      <point x="78.95700000000001" y="735.49" type="curve" smooth="yes"/>
      <point x="47.55200000000001" y="735.49"/>
      <point x="35.889" y="723.578"/>
      <point x="35.889" y="689.381" type="curve" smooth="yes"/>
      <point x="35.889" y="655.463"/>
      <point x="48.242000000000004" y="643.5509999999999"/>
    </contour>
    <contour>
      <point x="42.855" y="0.0" type="line"/>
      <point x="114.78" y="0.0" type="line"/>
      <point x="114.78" y="536.2" type="line"/>
      <point x="42.855" y="536.2" type="line"/>
    </contour>
  </outline>
</glyph>
<glyph name="j" format="2">
  <advance width="158.02000000000004"/>
  <unicode hex="006A"/>
  <outline>
    <contour>
      <point x="115.23400000000001" y="536.2" type="line"/>
      <point x="43.309" y="536.2" type="line"/>
      <point x="43.309" y="18.154000000000003" type="line" smooth="yes"/>
      <point x="43.309" y="-63.209"/>
      <point x="26.795" y="-111.054"/>
      <point x="-6.2219999999999995" y="-133.134" type="curve" smooth="yes"/>
      <point x="-13.520000000000003" y="-136.65300000000002"/>
      <point x="-20.259999999999998" y="-138.645"/>
      <point x="-29.084999999999997" y="-139.38899999999998" type="curve"/>
      <point x="-30.649" y="-207.026" type="line"/>
      <point x="-13.879000000000003" y="-207.055"/>
      <point x="1.9909999999999999" y="-204.68200000000002"/>
      <point x="16.297" y="-200.54200000000003" type="curve" smooth="yes"/>
      <point x="85.36800000000001" y="-175.15"/>
      <point x="115.23400000000001" y="-106.368"/>
      <point x="115.23400000000001" y="13.473" type="curve" smooth="yes"/>
    </contour>
    <contour>
      <point x="79.273" y="643.5509999999999" type="curve" smooth="yes"/>
      <point x="110.336" y="643.5509999999999"/>
      <point x="122.062" y="655.742"/>
      <point x="122.062" y="689.381" type="curve" smooth="yes"/>
      <point x="122.062" y="723.578"/>
      <point x="109.778" y="735.49"/>
      <point x="79.273" y="735.49" type="curve" smooth="yes"/>
      <point x="47.867999999999995" y="735.49"/>
      <point x="36.205" y="723.578"/>
      <point x="36.205" y="689.381" type="curve" smooth="yes"/>
      <point x="36.205" y="655.463"/>
      <point x="48.558" y="643.5509999999999"/>
    </contour>
  </outline>
</glyph>
<glyph name="k" format="2">
  <advance width="343.37"/>
  <unicode hex="006B"/>
  <anchor x="77.345" y="740.0" name="top"/>
  <anchor x="187.72" y="0.0" name="bottom"/>
  <outline>
    <contour>
      <point x="321.88" y="-7.585" type="curve" smooth="yes"/>
      <point x="330.72999999999996" y="-7.585"/>
      <point x="339.21" y="-6.204999999999999"/>
      <point x="347.025" y="-3.8350000000000004" type="curve"/>
      <point x="345.395" y="73.85000000000001" type="line"/>
      <point x="341.455" y="73.47000000000001"/>
      <point x="336.91999999999996" y="72.47000000000001"/>
      <point x="333.47999999999996" y="72.47000000000001" type="curve" smooth="yes"/>
      <point x="311.665" y="72.47000000000001"/>
      <point x="296.11" y="85.0"/>
      <point x="228.745" y="189.605" type="curve" smooth="yes"/>
      <point x="111.68" y="372.465" type="line"/>
      <point x="111.68" y="740.0" type="line"/>
      <point x="43.010000000000005" y="740.0" type="line"/>
      <point x="43.010000000000005" y="0.0" type="line"/>
      <point x="111.68" y="0.0" type="line"/>
      <point x="111.68" y="250.92000000000002" type="line"/>
      <point x="205.92" y="105.57" type="line" smooth="yes"/>
      <point x="271.595" y="4.48"/>
      <point x="287.87999999999994" y="-7.585"/>
    </contour>
    <contour>
      <point x="174.49" y="231.93" type="line"/>
      <point x="235.465" y="313.565"/>
      <point x="305.115" y="418.13"/>
      <point x="327.88" y="537.235" type="curve"/>
      <point x="257.74" y="545.2" type="line"/>
      <point x="237.015" y="424.84000000000003"/>
      <point x="182.62" y="349.075"/>
      <point x="127.66" y="277.865" type="curve"/>
    </contour>
  </outline>
</glyph>
<glyph name="l" format="2">
  <advance width="189.50300000000001"/>
  <unicode hex="006C"/>
  <anchor x="95.205" y="395.0" name="center"/>
  <anchor x="78.95700000000001" y="740.0" name="top"/>
  <anchor x="172.345" y="740.0" name="topright"/>
  <anchor x="116.075" y="0.0" name="bottom"/>
  <outline>
    <contour>
      <point x="114.78" y="740.0" type="line"/>
      <point x="42.855" y="740.0" type="line"/>
      <point x="42.855" y="120.42699999999999" type="line" smooth="yes"/>
      <point x="42.855" y="19.09"/>
      <point x="72.543" y="-10.0"/>
      <point x="132.39700000000002" y="-10.0" type="curve" smooth="yes"/>
      <point x="152.739" y="-10.0"/>
      <point x="173.201" y="-3.935"/>
      <point x="188.80200000000002" y="3.7899999999999996" type="curve"/>
      <point x="182.198" y="65.70100000000001" type="line"/>
      <point x="168.547" y="61.417"/>
      <point x="158.822" y="59.879000000000005"/>
      <point x="151.12099999999998" y="59.879000000000005" type="curve" smooth="yes"/>
      <point x="129.048" y="59.879000000000005"/>
      <point x="114.78" y="71.081"/>
      <point x="114.78" y="128.39399999999998" type="curve" smooth="yes"/>
    </contour>
  </outline>
</glyph>
<glyph name="m" format="2">
  <advance width="557.989"/>
  <unicode hex="006D"/>
  <outline>
    <contour>
      <point x="42.855" y="0.0" type="line"/>
      <point x="115.059" y="0.0" type="line"/>
      <point x="115.059" y="454.533" type="line"/>
      <point x="136.504" y="468.686"/>
      <point x="162.71699999999998" y="478.334"/>
      <point x="185.745" y="478.334" type="curve" smooth="yes"/>
      <point x="226.813" y="478.334"/>
      <point x="243.344" y="450.878"/>
      <point x="243.344" y="410.671" type="curve" smooth="yes"/>
      <point x="243.344" y="0.0" type="line"/>
      <point x="315.548" y="0.0" type="line"/>
      <point x="315.548" y="413.957" type="line" smooth="yes"/>
      <point x="315.548" y="428.322"/>
      <point x="313.547" y="441.20300000000003"/>
      <point x="309.652" y="451.98" type="curve"/>
      <point x="331.997" y="467.506"/>
      <point x="359.942" y="478.71"/>
      <point x="385.73699999999997" y="478.71" type="curve" smooth="yes"/>
      <point x="427.05000000000007" y="478.71"/>
      <point x="443.488" y="451.21599999999995"/>
      <point x="443.488" y="410.947" type="curve" smooth="yes"/>
      <point x="443.488" y="0.0" type="line"/>
      <point x="515.6919999999999" y="0.0" type="line"/>
      <point x="515.6919999999999" y="429.64000000000004" type="line" smooth="yes"/>
      <point x="515.6919999999999" y="505.43600000000004"/>
      <point x="480.15999999999997" y="546.2"/>
      <point x="417.209" y="546.2" type="curve" smooth="yes"/>
      <point x="369.685" y="546.2"/>
      <point x="328.733" y="527.92"/>
      <point x="297.219" y="504.30100000000004" type="curve"/>
      <point x="280.941" y="531.329"/>
      <point x="253.85" y="545.855"/>
      <point x="216.876" y="545.855" type="curve" smooth="yes"/>
      <point x="179.515" y="545.855"/>
      <point x="143.128" y="533.6610000000001"/>
      <point x="109.355" y="510.924" type="curve"/>
      <point x="109.355" y="536.2" type="line"/>
      <point x="42.855" y="536.2" type="line"/>
    </contour>
  </outline>
</glyph>
<glyph name="n" format="2">
  <advance width="367.693"/>
  <unicode hex="006E"/>
  <anchor x="186.16" y="536.2" name="top"/>
  <anchor x="187.54" y="0.0" name="bottom"/>
  <outline>
    <contour>
      <point x="42.855" y="0.0" type="line"/>
      <point x="115.059" y="0.0" type="line"/>
      <point x="115.059" y="452.53200000000004" type="line"/>
      <point x="138.563" y="467.851"/>
      <point x="168.091" y="478.834"/>
      <point x="193.644" y="478.834" type="curve" smooth="yes"/>
      <point x="232.887" y="478.834"/>
      <point x="253.192" y="455.597"/>
      <point x="253.192" y="411.01599999999996" type="curve" smooth="yes"/>
      <point x="253.192" y="0.0" type="line"/>
      <point x="325.396" y="0.0" type="line"/>
      <point x="325.396" y="429.709" type="line" smooth="yes"/>
      <point x="325.396" y="509.80100000000004"/>
      <point x="286.027" y="546.2"/>
      <point x="224.403" y="546.2" type="curve" smooth="yes"/>
      <point x="184.42100000000002" y="546.2"/>
      <point x="145.584" y="533.5609999999999"/>
      <point x="109.355" y="509.33700000000005" type="curve"/>
      <point x="109.355" y="536.2" type="line"/>
      <point x="42.855" y="536.2" type="line"/>
    </contour>
  </outline>
</glyph>
<glyph name="o" format="2">
  <advance width="363.894"/>
  <unicode hex="006F"/>
  <anchor x="234.903" y="2.8520000000000003" name="ogonek"/>
  <anchor x="181.947" y="536.2" name="top"/>
  <anchor x="266.004" y="526.8900000000001" name="topright"/>
  <anchor x="181.94699999999997" y="0.0" name="bottom"/>
  <outline>
    <contour>
      <point x="26.834999999999997" y="268.579" type="curve" smooth="yes"/>
      <point x="26.834999999999997" y="69.049"/>
      <point x="65.161" y="-10.0"/>
      <point x="181.94699999999997" y="-10.0" type="curve" smooth="yes"/>
      <point x="298.733" y="-10.0"/>
      <point x="337.059" y="69.049"/>
      <point x="337.059" y="268.579" type="curve" smooth="yes"/>
      <point x="337.059" y="466.809"/>
      <point x="300.433" y="546.2"/>
      <point x="181.94699999999997" y="546.2" type="curve" smooth="yes"/>
      <point x="63.398999999999994" y="546.2"/>
      <point x="26.834999999999997" y="466.809"/>
    </contour>
    <contour>
      <point x="101.395" y="268.579" type="curve" smooth="yes"/>
      <point x="101.395" y="438.657"/>
      <point x="122.65500000000002" y="481.19"/>
      <point x="181.947" y="481.19" type="curve" smooth="yes"/>
      <point x="240.96" y="481.19"/>
      <point x="262.43699999999995" y="438.657"/>
      <point x="262.43699999999995" y="268.579" type="curve" smooth="yes"/>
      <point x="262.43699999999995" y="97.563"/>
      <point x="239.63200000000003" y="55.28900000000001"/>
      <point x="181.947" y="55.28900000000001" type="curve" smooth="yes"/>
      <point x="123.98300000000002" y="55.28900000000001"/>
      <point x="101.395" y="97.563"/>
    </contour>
  </outline>
</glyph>
<glyph name="p" format="2">
  <advance width="363.24800000000005"/>
  <unicode hex="0070"/>
  <outline>
    <contour>
      <point x="42.855" y="-210.0" type="line"/>
      <point x="115.09" y="-210.0" type="line"/>
      <point x="115.09" y="-1.6809999999999996" type="line"/>
      <point x="138.14600000000002" y="-7.548"/>
      <point x="158.62300000000002" y="-10.0"/>
      <point x="176.112" y="-10.0" type="curve" smooth="yes"/>
      <point x="286.75699999999995" y="-10.0"/>
      <point x="336.444" y="76.98799999999999"/>
      <point x="336.444" y="279.504" type="curve" smooth="yes"/>
      <point x="336.444" y="453.141"/>
      <point x="292.60600000000005" y="546.2"/>
      <point x="211.073" y="546.2" type="curve" smooth="yes"/>
      <point x="176.989" y="546.2"/>
      <point x="142.346" y="534.989"/>
      <point x="112.703" y="514.573" type="curve"/>
      <point x="109.355" y="542.41" type="line"/>
      <point x="42.855" y="542.41" type="line"/>
    </contour>
    <contour>
      <point x="165.567" y="49.329" type="curve" smooth="yes"/>
      <point x="151.09799999999998" y="49.329"/>
      <point x="137.505" y="51.904999999999994"/>
      <point x="115.059" y="58.368" type="curve"/>
      <point x="115.059" y="456.243" type="line"/>
      <point x="142.3" y="474.471"/>
      <point x="161.081" y="480.75600000000003"/>
      <point x="185.27599999999998" y="480.75600000000003" type="curve" smooth="yes"/>
      <point x="234.80200000000002" y="480.75600000000003"/>
      <point x="261.047" y="414.07099999999997"/>
      <point x="261.047" y="270.979" type="curve" smooth="yes"/>
      <point x="261.047" y="103.329"/>
      <point x="235.04399999999998" y="49.329"/>
    </contour>
  </outline>
</glyph>
<glyph name="q" format="2">
  <advance width="363.527"/>
  <unicode hex="0071"/>
  <outline>
    <contour>
      <point x="320.67199999999997" y="527.99" type="line"/>
      <point x="276.211" y="540.516"/>
      <point x="236.595" y="546.2"/>
      <point x="199.691" y="546.2" type="curve" smooth="yes"/>
      <point x="78.72300000000001" y="546.2"/>
      <point x="26.804" y="464.23400000000004"/>
      <point x="26.804" y="262.276" type="curve" smooth="yes"/>
      <point x="26.804" y="82.285"/>
      <point x="70.426" y="-10.0"/>
      <point x="154.407" y="-10.0" type="curve" smooth="yes"/>
      <point x="185.949" y="-10.0"/>
      <point x="222.049" y="1.8620000000000003"/>
      <point x="248.747" y="20.356" type="curve"/>
      <point x="248.747" y="-210.0" type="line"/>
      <point x="320.67199999999997" y="-210.0" type="line"/>
    </contour>
    <contour>
      <point x="248.46800000000002" y="478.60599999999994" type="curve"/>
      <point x="248.46800000000002" y="81.35199999999999" type="line"/>
      <point x="221.22700000000003" y="62.845000000000006"/>
      <point x="202.446" y="56.002"/>
      <point x="177.972" y="56.002" type="curve" smooth="yes"/>
      <point x="129.34599999999998" y="56.002"/>
      <point x="102.48" y="123.371"/>
      <point x="102.48" y="260.199" type="curve" smooth="yes"/>
      <point x="102.48" y="432.87100000000004"/>
      <point x="128.483" y="487.42900000000003"/>
      <point x="198.239" y="487.42900000000003" type="curve" smooth="yes"/>
      <point x="211.56000000000003" y="487.42900000000003"/>
      <point x="226.02200000000002" y="485.132"/>
    </contour>
  </outline>
</glyph>
<glyph name="r" format="2">
  <advance width="262.628"/>
  <unicode hex="0072"/>
  <anchor x="148.643" y="536.2" name="top"/>
  <anchor x="78.67800000000001" y="0.0" name="bottom"/>
  <outline>
    <contour>
      <point x="109.07600000000001" y="536.2" type="line"/>
      <point x="42.855" y="536.2" type="line"/>
      <point x="42.855" y="0.0" type="line"/>
      <point x="114.501" y="0.0" type="line"/>
      <point x="114.501" y="426.583" type="line"/>
      <point x="146.055" y="459.86"/>
      <point x="174.048" y="472.541"/>
      <point x="204.282" y="472.541" type="curve" smooth="yes"/>
      <point x="217.553" y="472.541"/>
      <point x="234.18" y="470.561"/>
      <point x="249.904" y="465.992" type="curve"/>
      <point x="263.17400000000004" y="537.697" type="line"/>
      <point x="245.89300000000003" y="543.9029999999999"/>
      <point x="228.971" y="546.2"/>
      <point x="212.872" y="546.2" type="curve" smooth="yes"/>
      <point x="172.57700000000003" y="546.2"/>
      <point x="140.129" y="528.2680000000001"/>
      <point x="109.07600000000001" y="492.09900000000005" type="curve"/>
    </contour>
  </outline>
</glyph>
<glyph name="s" format="2">
  <advance width="298.82500000000005"/>
  <unicode hex="0073"/>
  <anchor x="148.75" y="536.2" name="top"/>
  <anchor x="147.10999999999999" y="0.0" name="bottom"/>
  <outline>
    <contour>
      <point x="9.919999999999998" y="14.884999999999998" type="line"/>
      <point x="43.98" y="-1.88"/>
      <point x="87.125" y="-10.0"/>
      <point x="132.59" y="-10.0" type="curve" smooth="yes"/>
      <point x="224.115" y="-10.0"/>
      <point x="284.735" y="39.01"/>
      <point x="284.735" y="134.57999999999998" type="curve" smooth="yes"/>
      <point x="284.735" y="229.83999999999997"/>
      <point x="233.48000000000002" y="267.26"/>
      <point x="173.02" y="303.75" type="curve" smooth="yes"/>
      <point x="125.685" y="333.03499999999997"/>
      <point x="89.39999999999999" y="359.635"/>
      <point x="89.39999999999999" y="410.765" type="curve" smooth="yes"/>
      <point x="89.39999999999999" y="454.47"/>
      <point x="117.195" y="480.475"/>
      <point x="165.73499999999999" y="480.475" type="curve" smooth="yes"/>
      <point x="196.97" y="480.475"/>
      <point x="225.68" y="473.95"/>
      <point x="252.06" y="464.34000000000003" type="curve"/>
      <point x="264.925" y="526.515" type="line"/>
      <point x="238.655" y="538.59"/>
      <point x="200.925" y="546.2"/>
      <point x="164.34" y="546.2" type="curve" smooth="yes"/>
      <point x="71.97" y="546.2"/>
      <point x="20.575" y="491.07"/>
      <point x="20.575" y="403.945" type="curve" smooth="yes"/>
      <point x="20.575" y="325.38"/>
      <point x="63.114999999999995" y="281.25"/>
      <point x="121.745" y="246.17499999999998" type="curve" smooth="yes"/>
      <point x="176.09" y="214.26"/>
      <point x="215.445" y="185.82500000000002"/>
      <point x="215.445" y="130.85999999999999" type="curve" smooth="yes"/>
      <point x="215.445" y="82.14999999999999"/>
      <point x="182.725" y="54.795"/>
      <point x="131.04" y="54.795" type="curve" smooth="yes"/>
      <point x="95.155" y="54.795"/>
      <point x="49.655" y="62.475"/>
      <point x="22.055" y="75.07" type="curve"/>
    </contour>
  </outline>
</glyph>
<glyph name="t" format="2">
  <advance width="262.028"/>
  <unicode hex="0074"/>
  <anchor x="129.669" y="275.0" name="center"/>
  <anchor x="107.73200000000001" y="661.931" name="top"/>
  <anchor x="216.526" y="752.32" name="topright"/>
  <anchor x="157.016" y="0.0" name="bottom"/>
  <outline>
    <contour>
      <point x="177.92399999999998" y="-10.0" type="curve" smooth="yes"/>
      <point x="201.669" y="-10.0"/>
      <point x="231.639" y="-6.6209999999999996"/>
      <point x="262.63800000000003" y="5.143000000000001" type="curve"/>
      <point x="251.432" y="65.0" type="line"/>
      <point x="233.60199999999998" y="59.440000000000005"/>
      <point x="216.70999999999998" y="57.15"/>
      <point x="200.334" y="57.15" type="curve" smooth="yes"/>
      <point x="156.489" y="57.15"/>
      <point x="138.01999999999998" y="81.272"/>
      <point x="138.01999999999998" y="145.266" type="curve" smooth="yes"/>
      <point x="138.01999999999998" y="475.622" type="line"/>
      <point x="250.743" y="475.622" type="line"/>
      <point x="250.743" y="536.2" type="line"/>
      <point x="138.01999999999998" y="536.2" type="line"/>
      <point x="138.01999999999998" y="661.931" type="line"/>
      <point x="76.82300000000001" y="661.931" type="line"/>
      <point x="66.095" y="536.2" type="line"/>
      <point x="7.315" y="529.835" type="line"/>
      <point x="7.315" y="475.90099999999995" type="line"/>
      <point x="66.095" y="475.90099999999995" type="line"/>
      <point x="66.095" y="138.694" type="line" smooth="yes"/>
      <point x="66.095" y="46.08599999999999"/>
      <point x="94.315" y="-10.0"/>
    </contour>
  </outline>
</glyph>
<glyph name="u" format="2">
  <advance width="376.282"/>
  <unicode hex="0075"/>
  <anchor x="375.793" y="4.6419999999999995" name="ogonek"/>
  <anchor x="182.037" y="536.2" name="top"/>
  <anchor x="321.59200000000004" y="536.2" name="topright"/>
  <anchor x="188.62199999999999" y="0.0" name="bottom"/>
  <outline>
    <contour>
      <point x="144.697" y="-10.0" type="curve" smooth="yes"/>
      <point x="185.91100000000003" y="-10.0"/>
      <point x="224.07899999999998" y="4.592"/>
      <point x="258.178" y="27.212999999999997" type="curve"/>
      <point x="267.575" y="4.2940000000000005"/>
      <point x="289.185" y="-10.0"/>
      <point x="317.614" y="-10.0" type="curve" smooth="yes"/>
      <point x="339.708" y="-10.0"/>
      <point x="358.114" y="-4.5520000000000005"/>
      <point x="375.793" y="4.6419999999999995" type="curve"/>
      <point x="367.21900000000005" y="66.182" type="line"/>
      <point x="359.13399999999996" y="62.32899999999999"/>
      <point x="350.757" y="60.56999999999999"/>
      <point x="342.945" y="60.56999999999999" type="curve" smooth="yes"/>
      <point x="329.387" y="60.56999999999999"/>
      <point x="321.59200000000004" y="68.965"/>
      <point x="321.59200000000004" y="93.13900000000001" type="curve" smooth="yes"/>
      <point x="321.59200000000004" y="536.2" type="line"/>
      <point x="249.667" y="536.2" type="line"/>
      <point x="249.667" y="83.413" type="line"/>
      <point x="226.836" y="67.85999999999999"/>
      <point x="197.646" y="57.242"/>
      <point x="173.038" y="57.242" type="curve" smooth="yes"/>
      <point x="134.83700000000002" y="57.242"/>
      <point x="114.501" y="80.134"/>
      <point x="114.501" y="123.37" type="curve" smooth="yes"/>
      <point x="114.501" y="536.2" type="line"/>
      <point x="42.297000000000004" y="536.2" type="line"/>
      <point x="42.297000000000004" y="112.086" type="line" smooth="yes"/>
      <point x="42.297000000000004" y="23.330000000000002"/>
      <point x="86.46700000000001" y="-10.0"/>
    </contour>
  </outline>
</glyph>
<glyph name="v" format="2">
  <advance width="347.8405"/>
  <unicode hex="0076"/>
  <outline>
    <contour>
      <point x="130.558" y="0.0" type="line"/>
      <point x="216.7485" y="0.0" type="line"/>
      <point x="337.707" y="534.5440000000001" type="line"/>
      <point x="261.563" y="537.856" type="line"/>
      <point x="174.45850000000002" y="82.439" type="line"/>
      <point x="86.66499999999999" y="537.856" type="line"/>
      <point x="10.056" y="534.5440000000001" type="line"/>
    </contour>
  </outline>
</glyph>
<glyph name="w" format="2">
  <advance width="511.99699999999996"/>
  <unicode hex="0077"/>
  <anchor x="255.88899999999998" y="536.2" name="top"/>
  <anchor x="255.88899999999998" y="0.0" name="bottom"/>
  <outline>
    <contour>
      <point x="100.944" y="0.0" type="line"/>
      <point x="186.79299999999998" y="0.0" type="line"/>
      <point x="256.106" y="433.741" type="line"/>
      <point x="325.613" y="0.0" type="line"/>
      <point x="410.687" y="0.0" type="line"/>
      <point x="502.828" y="533.942" type="line"/>
      <point x="430.87399999999997" y="537.266" type="line"/>
      <point x="364.807" y="83.975" type="line"/>
      <point x="294.161" y="536.2" type="line"/>
      <point x="217.58599999999998" y="536.2" type="line"/>
      <point x="147.82" y="83.818" type="line"/>
      <point x="81.712" y="537.266" type="line"/>
      <point x="8.918999999999999" y="533.942" type="line"/>
    </contour>
  </outline>
</glyph>
<glyph name="x" format="2">
  <advance width="362.655"/>
  <unicode hex="0078"/>
  <outline>
    <contour>
      <point x="6.734999999999999" y="-3.105000000000001" type="line"/>
      <point x="85.0475" y="-6.65" type="line"/>
      <point x="180.995" y="226.68999999999997" type="line"/>
      <point x="278.8225" y="-6.65" type="line"/>
      <point x="356.9975" y="-3.105000000000001" type="line"/>
      <point x="231.7625" y="272.73" type="line"/>
      <point x="347.0125" y="534.4750000000001" type="line"/>
      <point x="271.085" y="538.175" type="line"/>
      <point x="183.055" y="317.3975" type="line"/>
      <point x="94.145" y="538.6925" type="line"/>
      <point x="16.9" y="533.8625" type="line"/>
      <point x="131.8225" y="275.18" type="line"/>
    </contour>
  </outline>
</glyph>
<glyph name="y" format="2">
  <advance width="349.1805"/>
  <unicode hex="0079"/>
  <anchor x="172.6835" y="536.2" name="top"/>
  <anchor x="295.51250000000005" y="0.0" name="bottom"/>
  <outline>
    <contour>
      <point x="107.732" y="-208.444" type="line"/>
      <point x="184.139" y="-212.51799999999997" type="line"/>
      <point x="338.16150000000005" y="534.9200000000001" type="line"/>
      <point x="261.2905" y="538.094" type="line"/>
      <point x="180.928" y="75.54599999999999" type="line"/>
      <point x="88.743" y="538.132" type="line"/>
      <point x="10.677" y="534.82" type="line"/>
      <point x="137.9065" y="0.0" type="line"/>
      <point x="151.832" y="0.0" type="line"/>
    </contour>
  </outline>
</glyph>
<glyph name="z" format="2">
  <advance width="325.36550000000005"/>
  <unicode hex="007A"/>
  <anchor x="164.226" y="536.2" name="top"/>
  <outline>
    <contour>
      <point x="19.369499999999995" y="0.0" type="line"/>
      <point x="310.67100000000005" y="0.0" type="line"/>
      <point x="310.67100000000005" y="64.60799999999999" type="line"/>
      <point x="99.87299999999999" y="64.60799999999999" type="line"/>
      <point x="296.967" y="478.2875" type="line"/>
      <point x="296.967" y="536.2" type="line"/>
      <point x="27.971500000000002" y="536.2" type="line"/>
      <point x="27.971500000000002" y="472.21199999999993" type="line"/>
      <point x="217.658" y="472.21199999999993" type="line"/>
      <point x="19.369499999999995" y="58.76499999999999" type="line"/>
    </contour>
  </outline>
</glyph>
<glyph name="braceleft" format="2">
  <advance width="234.80899999999997"/>
  <unicode hex="007B"/>
  <outline>
    <contour>
      <point x="65.85600000000001" y="-60.603" type="curve" smooth="yes"/>
      <point x="65.85600000000001" y="-151.06600000000003"/>
      <point x="103.05399999999999" y="-210.279"/>
      <point x="168.38500000000002" y="-210.279" type="curve" smooth="yes"/>
      <point x="209.526" y="-210.279" type="line"/>
      <point x="209.526" y="-150.289" type="line"/>
      <point x="183.26500000000001" y="-150.289" type="line" smooth="yes"/>
      <point x="142.705" y="-150.289"/>
      <point x="127.458" y="-106.656"/>
      <point x="127.458" y="-53.163000000000004" type="curve" smooth="yes"/>
      <point x="127.458" y="19.093"/>
      <point x="157.69899999999998" y="77.514"/>
      <point x="157.69899999999998" y="155.596" type="curve" smooth="yes"/>
      <point x="157.69899999999998" y="193.867"/>
      <point x="146.597" y="242.377"/>
      <point x="111.967" y="265.0" type="curve"/>
      <point x="146.528" y="290.229"/>
      <point x="157.69899999999998" y="335.71599999999995"/>
      <point x="157.69899999999998" y="373.98699999999997" type="curve" smooth="yes"/>
      <point x="157.69899999999998" y="447.998"/>
      <point x="127.458" y="506.074"/>
      <point x="127.458" y="582.746" type="curve" smooth="yes"/>
      <point x="127.458" y="636.239"/>
      <point x="142.705" y="680.0100000000001"/>
      <point x="183.26500000000001" y="680.0100000000001" type="curve" smooth="yes"/>
      <point x="209.526" y="680.0100000000001" type="line"/>
      <point x="209.526" y="740.0" type="line"/>
      <point x="168.38500000000002" y="740.0" type="line" smooth="yes"/>
      <point x="103.05399999999999" y="740.0"/>
      <point x="65.85600000000001" y="680.649"/>
      <point x="65.85600000000001" y="590.186" type="curve" smooth="yes"/>
      <point x="65.85600000000001" y="496.01"/>
      <point x="98.732" y="441.039"/>
      <point x="98.732" y="370.887" type="curve" smooth="yes"/>
      <point x="98.732" y="334.88500000000005"/>
      <point x="89.789" y="296.08"/>
      <point x="65.306" y="296.08" type="curve" smooth="yes"/>
      <point x="45.794000000000004" y="296.08" type="line"/>
      <point x="45.794000000000004" y="233.64100000000002" type="line"/>
      <point x="65.306" y="233.64100000000002" type="line" smooth="yes"/>
      <point x="89.789" y="233.64100000000002"/>
      <point x="98.732" y="195.319"/>
      <point x="98.732" y="158.696" type="curve" smooth="yes"/>
      <point x="98.732" y="86.819"/>
      <point x="65.85600000000001" y="29.088"/>
    </contour>
  </outline>
</glyph>
<glyph name="bar" format="2">
  <advance width="146.634"/>
  <unicode hex="007C"/>
  <outline>
    <contour>
      <point x="104.707" y="790.279" type="line"/>
      <point x="41.92700000000001" y="790.279" type="line"/>
      <point x="41.92700000000001" y="-210.0" type="line"/>
      <point x="104.707" y="-210.0" type="line"/>
    </contour>
  </outline>
</glyph>
<glyph name="braceright" format="2">
  <advance width="234.80899999999997"/>
  <unicode hex="007D"/>
  <outline>
    <contour>
      <point x="25.283" y="-150.289" type="line"/>
      <point x="25.283" y="-210.279" type="line"/>
      <point x="67.045" y="-210.279" type="line" smooth="yes"/>
      <point x="132.37599999999998" y="-210.279"/>
      <point x="169.574" y="-151.06600000000003"/>
      <point x="169.574" y="-60.603" type="curve" smooth="yes"/>
      <point x="169.574" y="29.088"/>
      <point x="136.698" y="86.819"/>
      <point x="136.698" y="158.696" type="curve" smooth="yes"/>
      <point x="136.698" y="195.319"/>
      <point x="145.641" y="233.64100000000002"/>
      <point x="170.124" y="233.64100000000002" type="curve" smooth="yes"/>
      <point x="189.01500000000001" y="233.64100000000002" type="line"/>
      <point x="189.01500000000001" y="296.08" type="line"/>
      <point x="170.124" y="296.08" type="line" smooth="yes"/>
      <point x="145.01999999999998" y="296.08"/>
      <point x="136.698" y="334.88500000000005"/>
      <point x="136.698" y="370.887" type="curve" smooth="yes"/>
      <point x="136.698" y="441.039"/>
      <point x="169.574" y="496.01"/>
      <point x="169.574" y="590.186" type="curve" smooth="yes"/>
      <point x="169.574" y="680.649"/>
      <point x="132.37599999999998" y="740.0"/>
      <point x="67.045" y="740.0" type="curve" smooth="yes"/>
      <point x="25.283" y="740.0" type="line"/>
      <point x="25.283" y="680.0100000000001" type="line"/>
      <point x="47.422000000000004" y="680.0100000000001" type="line" smooth="yes"/>
      <point x="87.361" y="680.0100000000001"/>
      <point x="103.229" y="636.239"/>
      <point x="103.229" y="582.746" type="curve" smooth="yes"/>
      <point x="103.229" y="506.074"/>
      <point x="72.98799999999999" y="447.998"/>
      <point x="72.98799999999999" y="373.98699999999997" type="curve" smooth="yes"/>
      <point x="72.98799999999999" y="335.71599999999995"/>
      <point x="83.538" y="290.229"/>
      <point x="118.71999999999998" y="265.0" type="curve"/>
      <point x="83.46900000000001" y="242.377"/>
      <point x="72.98799999999999" y="193.867"/>
      <point x="72.98799999999999" y="155.596" type="curve" smooth="yes"/>
      <point x="72.98799999999999" y="77.514"/>
      <point x="103.229" y="19.093"/>
      <point x="103.229" y="-53.163000000000004" type="curve" smooth="yes"/>
      <point x="103.229" y="-106.656"/>
      <point x="87.361" y="-150.289"/>
      <point x="47.422000000000004" y="-150.289" type="curve" smooth="yes"/>
    </contour>
  </outline>
</glyph>
<glyph name="asciitilde" format="2">
  <advance width="409.832"/>
  <unicode hex="007E"/>
  <outline>
    <contour>
      <point x="354.755" y="247.389" type="curve"/>
      <point x="354.755" y="314.47999999999996" type="line"/>
      <point x="334.15799999999996" y="289.359"/>
      <point x="315.504" y="278.03"/>
      <point x="290.203" y="278.03" type="curve" smooth="yes"/>
      <point x="224.184" y="278.03"/>
      <point x="191.10799999999998" y="380.669"/>
      <point x="122.734" y="380.669" type="curve" smooth="yes"/>
      <point x="90.914" y="380.669"/>
      <point x="68.567" y="365.502"/>
      <point x="55.729" y="347.738" type="curve"/>
      <point x="55.729" y="280.57800000000003" type="line"/>
      <point x="70.439" y="300.632"/>
      <point x="92.269" y="316.83500000000004"/>
      <point x="121.91" y="316.83500000000004" type="curve" smooth="yes"/>
      <point x="183.242" y="316.83500000000004"/>
      <point x="217.311" y="214.165"/>
      <point x="289.751" y="214.165" type="curve" smooth="yes"/>
      <point x="316.86" y="214.165"/>
      <point x="335.693" y="224.324"/>
    </contour>
  </outline>
</glyph>
<glyph name="exclamdown" format="2">
  <advance width="161.86800000000002"/>
  <unicode hex="00A1"/>
  <outline>
    <contour>
      <point x="113.31599999999999" y="273.719" type="line"/>
      <point x="49.327" y="273.719" type="line"/>
      <point x="44.243" y="-203.83100000000002" type="line"/>
      <point x="117.56299999999999" y="-203.83100000000002" type="line"/>
    </contour>
    <contour>
      <point x="121.801" y="491.39300000000003" type="curve" smooth="yes"/>
      <point x="121.801" y="526.52"/>
      <point x="112.52499999999999" y="539.3"/>
      <point x="80.93400000000001" y="539.3" type="curve" smooth="yes"/>
      <point x="50.033" y="539.3"/>
      <point x="40.067" y="526.52"/>
      <point x="40.067" y="491.39300000000003" type="curve" smooth="yes"/>
      <point x="40.067" y="455.95599999999996"/>
      <point x="49.343" y="443.176"/>
      <point x="80.93400000000001" y="443.176" type="curve" smooth="yes"/>
      <point x="112.52499999999999" y="443.176"/>
      <point x="121.801" y="455.95599999999996"/>
    </contour>
  </outline>
</glyph>
<glyph name="cent" format="2">
  <advance width="376.326"/>
  <unicode hex="00A2"/>
  <outline>
    <contour>
      <point x="215.937" y="-10.279" type="curve" smooth="yes"/>
      <point x="247.98700000000002" y="-10.279"/>
      <point x="282.689" y="-4.84"/>
      <point x="310.897" y="5.17" type="curve"/>
      <point x="296.915" y="71.76" type="line"/>
      <point x="273.31" y="65.44699999999999"/>
      <point x="251.772" y="62.699000000000005"/>
      <point x="231.24099999999999" y="62.699000000000005" type="curve" smooth="yes"/>
      <point x="171.303" y="62.699000000000005"/>
      <point x="143.183" y="124.56"/>
      <point x="143.183" y="259.373" type="curve" smooth="yes"/>
      <point x="143.183" y="407.85400000000004"/>
      <point x="174.06799999999998" y="473.06699999999995"/>
      <point x="233.95499999999998" y="473.06699999999995" type="curve" smooth="yes"/>
      <point x="255.48100000000002" y="473.06699999999995"/>
      <point x="272.8" y="469.84"/>
      <point x="291.66499999999996" y="464.681" type="curve"/>
      <point x="304.594" y="533.6270000000001" type="line"/>
      <point x="281.707" y="540.851"/>
      <point x="250.992" y="546.758"/>
      <point x="218.858" y="546.758" type="curve" smooth="yes"/>
      <point x="109.11399999999999" y="546.758"/>
      <point x="68.49900000000001" y="439.22499999999997"/>
      <point x="68.49900000000001" y="257.51300000000003" type="curve" smooth="yes"/>
      <point x="68.49900000000001" y="76.518"/>
      <point x="114.06700000000001" y="-10.279"/>
    </contour>
    <contour>
      <point x="173.49200000000002" y="-105.279" type="line"/>
      <point x="238.442" y="-105.279" type="line"/>
      <point x="238.442" y="0.7729999999999997" type="line"/>
      <point x="173.49200000000002" y="5.264" type="line"/>
    </contour>
    <contour>
      <point x="173.49200000000002" y="529.5329999999999" type="line"/>
      <point x="238.442" y="536.364" type="line"/>
      <point x="238.442" y="640.9209999999999" type="line"/>
      <point x="173.49200000000002" y="640.9209999999999" type="line"/>
    </contour>
  </outline>
</glyph>
<glyph name="sterling" format="2">
  <advance width="376.512"/>
  <unicode hex="00A3"/>
  <outline>
    <contour>
      <point x="57.42400000000001" y="0.0" type="line"/>
      <point x="335.42300000000006" y="0.0" type="line"/>
      <point x="335.42300000000006" y="64.795" type="line"/>
      <point x="135.85000000000002" y="64.795" type="line"/>
      <point x="176.612" y="127.46999999999998"/>
      <point x="205.437" y="173.276"/>
      <point x="205.437" y="251.85299999999998" type="curve" smooth="yes"/>
      <point x="205.437" y="344.87399999999997"/>
      <point x="150.56099999999998" y="407.57"/>
      <point x="150.56099999999998" y="504.838" type="curve" smooth="yes"/>
      <point x="150.56099999999998" y="603.34"/>
      <point x="193.00400000000002" y="639.625"/>
      <point x="246.65699999999998" y="639.625" type="curve" smooth="yes"/>
      <point x="269.704" y="639.625"/>
      <point x="293.075" y="635.242"/>
      <point x="313.06600000000003" y="628.4730000000001" type="curve"/>
      <point x="325.965" y="689.1099999999999" type="line"/>
      <point x="300.847" y="702.7189999999999"/>
      <point x="264.194" y="710.0"/>
      <point x="233.637" y="710.0" type="curve" smooth="yes"/>
      <point x="130.216" y="710.0"/>
      <point x="75.691" y="634.1139999999999"/>
      <point x="75.691" y="524.64" type="curve" smooth="yes"/>
      <point x="75.691" y="398.784"/>
      <point x="136.612" y="350.32"/>
      <point x="136.612" y="245.267" type="curve" smooth="yes"/>
      <point x="136.612" y="173.036"/>
      <point x="111.06499999999998" y="128.80700000000002"/>
      <point x="57.42400000000001" y="52.084999999999994" type="curve"/>
    </contour>
    <contour>
      <point x="42.925" y="339.34000000000003" type="line"/>
      <point x="296.91" y="339.34000000000003" type="line"/>
      <point x="296.91" y="391.115" type="line"/>
      <point x="42.925" y="391.115" type="line"/>
    </contour>
  </outline>
</glyph>
<glyph name="currency" format="2">
  <advance width="425.51"/>
  <unicode hex="00A4"/>
  <outline>
    <contour>
      <point x="30.373" y="428.432" type="line"/>
      <point x="95.50699999999999" y="362.298" type="line"/>
      <point x="81.622" y="342.73900000000003"/>
      <point x="72.93900000000001" y="318.319"/>
      <point x="72.93900000000001" y="291.077" type="curve" smooth="yes"/>
      <point x="72.93900000000001" y="263.525"/>
      <point x="81.622" y="238.51600000000002"/>
      <point x="96.50699999999999" y="218.678" type="curve"/>
      <point x="30.373" y="152.54399999999998" type="line"/>
      <point x="75.15599999999999" y="107.761" type="line"/>
      <point x="143.863" y="176.437" type="line"/>
      <point x="162.647" y="162.01700000000002"/>
      <point x="186.85" y="154.42700000000002"/>
      <point x="213.15400000000002" y="154.42700000000002" type="curve" smooth="yes"/>
      <point x="238.962" y="154.42700000000002"/>
      <point x="263.04900000000004" y="162.048"/>
      <point x="281.616" y="176.189" type="curve"/>
      <point x="350.354" y="107.761" type="line"/>
      <point x="395.137" y="152.54399999999998" type="line"/>
      <point x="329.964" y="217.438" type="line"/>
      <point x="345.066" y="237.803"/>
      <point x="354.028" y="263.029"/>
      <point x="354.028" y="291.077" type="curve" smooth="yes"/>
      <point x="354.028" y="318.536"/>
      <point x="345.097" y="343.452"/>
      <point x="330.243" y="363.538" type="curve"/>
      <point x="395.137" y="428.432" type="line"/>
      <point x="350.354" y="473.215" type="line"/>
      <point x="282.73199999999997" y="405.593" type="line"/>
      <point x="263.886" y="419.765"/>
      <point x="239.93099999999998" y="428.35499999999996"/>
      <point x="213.15400000000002" y="428.35499999999996" type="curve" smooth="yes"/>
      <point x="185.602" y="428.35499999999996"/>
      <point x="161.399" y="419.486"/>
      <point x="142.057" y="405.34499999999997" type="curve"/>
      <point x="75.15599999999999" y="473.215" type="line"/>
    </contour>
    <contour>
      <point x="213.12300000000002" y="204.34199999999998" type="curve" smooth="yes"/>
      <point x="164.422" y="204.34199999999998"/>
      <point x="126.667" y="242.066"/>
      <point x="126.667" y="290.798" type="curve" smooth="yes"/>
      <point x="126.667" y="339.569"/>
      <point x="164.391" y="378.161"/>
      <point x="213.12300000000002" y="378.161" type="curve" smooth="yes"/>
      <point x="262.545" y="378.161"/>
      <point x="300.3" y="339.569"/>
      <point x="300.3" y="290.798" type="curve" smooth="yes"/>
      <point x="300.3" y="242.066"/>
      <point x="262.514" y="204.34199999999998"/>
    </contour>
  </outline>
</glyph>
<glyph name="yen" format="2">
  <advance width="376.55"/>
  <unicode hex="00A5"/>
  <outline>
    <contour>
      <point x="53.47" y="335.31" type="line"/>
      <point x="154.185" y="335.31" type="line"/>
      <point x="154.185" y="244.745" type="line"/>
      <point x="53.47" y="244.745" type="line"/>
      <point x="53.47" y="195.605" type="line"/>
      <point x="154.185" y="195.605" type="line"/>
      <point x="154.185" y="0.0" type="line"/>
      <point x="227.35" y="0.0" type="line"/>
      <point x="227.35" y="195.605" type="line"/>
      <point x="328.375" y="195.605" type="line"/>
      <point x="328.375" y="244.745" type="line"/>
      <point x="227.35" y="244.745" type="line"/>
      <point x="227.35" y="335.31" type="line"/>
      <point x="328.375" y="335.31" type="line"/>
      <point x="328.375" y="383.98499999999996" type="line"/>
      <point x="227.35" y="383.98499999999996" type="line"/>
      <point x="345.94" y="697.43" type="line"/>
      <point x="267.10999999999996" y="702.725" type="line"/>
      <point x="190.69" y="441.505" type="line"/>
      <point x="109.59500000000001" y="702.725" type="line"/>
      <point x="30.765" y="697.43" type="line"/>
      <point x="154.185" y="383.98499999999996" type="line"/>
      <point x="53.47" y="383.98499999999996" type="line"/>
    </contour>
  </outline>
</glyph>
<glyph name="brokenbar" format="2">
  <advance width="146.355"/>
  <unicode hex="00A6"/>
  <outline>
    <contour>
      <point x="104.428" y="391.0" type="line"/>
      <point x="104.428" y="790.279" type="line"/>
      <point x="41.92700000000001" y="790.279" type="line"/>
      <point x="41.92700000000001" y="391.0" type="line"/>
    </contour>
    <contour>
      <point x="41.92700000000001" y="190.279" type="line"/>
      <point x="41.92700000000001" y="-210.0" type="line"/>
      <point x="104.428" y="-210.0" type="line"/>
      <point x="104.428" y="190.279" type="line"/>
    </contour>
  </outline>
</glyph>
<glyph name="section" format="2">
  <advance width="384.7715"/>
  <unicode hex="00A7"/>
  <outline>
    <contour>
      <point x="152.63" y="-220.3875" type="curve" smooth="yes"/>
      <point x="277.15" y="-220.3875"/>
      <point x="358.88" y="-102.4515"/>
      <point x="358.88" y="56.3855" type="curve" smooth="yes"/>
      <point x="358.88" y="138.1765"/>
      <point x="340.567" y="222.56799999999998"/>
      <point x="280.76550000000003" y="392.1655" type="curve" smooth="yes"/>
      <point x="231.51299999999998" y="533.593"/>
      <point x="220.86599999999999" y="563.3460000000001"/>
      <point x="220.86599999999999" y="601.243" type="curve" smooth="yes"/>
      <point x="220.86599999999999" y="646.9185000000001"/>
      <point x="243.266" y="673.8885000000001"/>
      <point x="280.6995" y="673.8885000000001" type="curve" smooth="yes"/>
      <point x="294.72999999999996" y="673.8885000000001"/>
      <point x="307.6845" y="671.5435000000001"/>
      <point x="324.3245" y="663.8155" type="curve"/>
      <point x="341.006" y="730.777" type="line"/>
      <point x="315.56550000000004" y="743.254"/>
      <point x="283.61650000000003" y="749.4255"/>
      <point x="251.359" y="749.4255" type="curve" smooth="yes"/>
      <point x="117.5005" y="749.4255"/>
      <point x="34.02" y="648.947"/>
      <point x="35.345" y="482.8315" type="curve" smooth="yes"/>
      <point x="36.1975" y="397.41749999999996"/>
      <point x="51.745000000000005" y="314.88650000000007"/>
      <point x="113.90899999999999" y="147.89749999999998" type="curve" smooth="yes"/>
      <point x="159.6675" y="18.166500000000003"/>
      <point x="177.0275" y="-30.2625"/>
      <point x="177.0655" y="-73.01799999999999" type="curve" smooth="yes"/>
      <point x="177.1035" y="-119.58399999999999"/>
      <point x="153.61549999999997" y="-144.35349999999997"/>
      <point x="115.138" y="-144.35349999999997" type="curve" smooth="yes"/>
      <point x="91.852" y="-144.35349999999997"/>
      <point x="70.4795" y="-136.17400000000004"/>
      <point x="44.3255" y="-113.67200000000001" type="curve"/>
      <point x="25.8915" y="-179.518" type="line"/>
      <point x="63.38850000000001" y="-208.53049999999996"/>
      <point x="101.8935" y="-220.3875"/>
    </contour>
    <contour>
      <point x="150.21400000000003" y="-174.06699999999998" type="curve" smooth="yes"/>
      <point x="131.48600000000002" y="-174.06699999999998"/>
      <point x="117.42850000000001" y="-171.0215"/>
      <point x="104.2465" y="-165.0415" type="curve"/>
      <point x="129.62550000000002" y="-182.46200000000002" type="line"/>
      <point x="189.94700000000003" y="-180.99249999999998"/>
      <point x="229.126" y="-136.94750000000002"/>
      <point x="229.126" y="-72.1975" type="curve" smooth="yes"/>
      <point x="229.126" y="-24.1705"/>
      <point x="214.96650000000002" y="32.893"/>
      <point x="165.585" y="171.525" type="curve" smooth="yes"/>
      <point x="106.656" y="339.0595"/>
      <point x="89.95549999999999" y="403.382"/>
      <point x="89.95549999999999" y="488.72150000000005" type="curve" smooth="yes"/>
      <point x="89.95549999999999" y="611.8380000000001"/>
      <point x="145.57650000000004" y="692.6239999999999"/>
      <point x="223.02949999999998" y="692.6239999999999" type="curve" smooth="yes"/>
      <point x="233.33600000000004" y="692.6239999999999"/>
      <point x="240.47099999999998" y="691.1135"/>
      <point x="250.64550000000003" y="686.4330000000001" type="curve"/>
      <point x="235.5365" y="704.9215" type="line"/>
      <point x="194.58499999999998" y="694.616"/>
      <point x="166.64900000000003" y="654.1315"/>
      <point x="166.45600000000002" y="604.4995" type="curve" smooth="yes"/>
      <point x="166.45600000000002" y="557.4739999999999"/>
      <point x="177.69449999999998" y="511.62050000000005"/>
      <point x="227.5075" y="374.6925" type="curve" smooth="yes"/>
      <point x="290.5215" y="195.184"/>
      <point x="306.394" y="126.10900000000001"/>
      <point x="306.394" y="50.65050000000001" type="curve" smooth="yes"/>
      <point x="306.432" y="-78.71450000000002"/>
      <point x="247.65200000000002" y="-174.029"/>
    </contour>
  </outline>
</glyph>
<glyph name="copyright" format="2">
  <advance width="484.678"/>
  <unicode hex="00A9"/>
  <outline>
    <contour>
      <point x="242.37" y="20.754" type="curve" smooth="yes"/>
      <point x="128.71299999999997" y="20.754"/>
      <point x="67.475" y="114.17200000000001"/>
      <point x="67.475" y="350.217" type="curve" smooth="yes"/>
      <point x="67.475" y="586.945"/>
      <point x="128.77499999999998" y="679.556"/>
      <point x="242.37" y="679.556" type="curve" smooth="yes"/>
      <point x="356.74" y="679.556"/>
      <point x="416.924" y="586.945"/>
      <point x="416.924" y="350.217" type="curve" smooth="yes"/>
      <point x="416.924" y="114.17200000000001"/>
      <point x="356.802" y="20.754"/>
    </contour>
    <contour>
      <point x="242.37" y="710.0" type="curve" smooth="yes"/>
      <point x="108.014" y="710.0"/>
      <point x="35.760000000000005" y="605.7040000000001"/>
      <point x="35.760000000000005" y="350.217" type="curve" smooth="yes"/>
      <point x="35.760000000000005" y="95.63000000000001"/>
      <point x="107.95200000000001" y="-10.0"/>
      <point x="242.37" y="-10.0" type="curve" smooth="yes"/>
      <point x="376.726" y="-10.0"/>
      <point x="448.91799999999995" y="95.63000000000001"/>
      <point x="448.91799999999995" y="350.217" type="curve" smooth="yes"/>
      <point x="448.91799999999995" y="605.7040000000001"/>
      <point x="376.72600000000006" y="710.0"/>
    </contour>
    <contour>
      <point x="142.06" y="341.69" type="curve" smooth="yes"/>
      <point x="142.06" y="214.117"/>
      <point x="179.95" y="152.978"/>
      <point x="251.02899999999997" y="152.978" type="curve" smooth="yes"/>
      <point x="273.534" y="152.978"/>
      <point x="298.86100000000005" y="156.285"/>
      <point x="319.03900000000004" y="163.635" type="curve"/>
      <point x="310.03400000000005" y="212.742" type="line"/>
      <point x="294.37800000000004" y="208.20600000000002"/>
      <point x="273.635" y="205.46499999999997"/>
      <point x="256.76400000000007" y="205.46499999999997" type="curve" smooth="yes"/>
      <point x="213.568" y="205.46499999999997"/>
      <point x="198.85700000000003" y="252.54000000000002"/>
      <point x="198.85700000000003" y="339.98499999999996" type="curve" smooth="yes"/>
      <point x="198.85700000000003" y="449.516"/>
      <point x="218.676" y="487.64599999999996"/>
      <point x="261.423" y="487.64599999999996" type="curve" smooth="yes"/>
      <point x="275.498" y="487.64599999999996"/>
      <point x="293.084" y="485.162"/>
      <point x="307.49999999999994" y="480.907" type="curve"/>
      <point x="317.4659999999999" y="529.1460000000001" type="line"/>
      <point x="299.019" y="537.0900000000001"/>
      <point x="275.23300000000006" y="540.195"/>
      <point x="253.859" y="540.195" type="curve" smooth="yes"/>
      <point x="185.702" y="540.195"/>
      <point x="142.06" y="489.706"/>
    </contour>
  </outline>
</glyph>
<glyph name="ordfeminine" format="2">
  <advance width="255.274"/>
  <unicode hex="00AA"/>
  <outline>
    <contour>
      <point x="28.369" y="278.127" type="line"/>
      <point x="231.00199999999998" y="278.127" type="line"/>
      <point x="231.00199999999998" y="319.177" type="line"/>
      <point x="28.369" y="319.177" type="line"/>
    </contour>
    <component base="a.superior" xOffset="10.967"/>
  </outline>
</glyph>
<glyph name="logicalnot" format="2">
  <advance width="409.832"/>
  <unicode hex="00AC"/>
  <outline>
    <contour>
      <point x="44.628" y="353.744" type="line"/>
      <point x="301.03" y="353.744" type="line"/>
      <point x="301.03" y="176.78300000000002" type="line"/>
      <point x="365.825" y="176.78300000000002" type="line"/>
      <point x="365.825" y="418.539" type="line"/>
      <point x="44.628" y="418.539" type="line"/>
    </contour>
  </outline>
</glyph>
<glyph name="registered" format="2">
  <advance width="464.10350000000005"/>
  <unicode hex="00AE"/>
  <outline>
    <contour>
      <point x="231.843" y="207.9605" type="curve" smooth="yes"/>
      <point x="359.997" y="207.9605"/>
      <point x="428.34350000000006" y="308.149"/>
      <point x="428.34350000000006" y="550.3015" type="curve" smooth="yes"/>
      <point x="428.34350000000006" y="793.0905000000001"/>
      <point x="360.028" y="892.1774999999999"/>
      <point x="231.843" y="892.1774999999999" type="curve" smooth="yes"/>
      <point x="104.35549999999999" y="892.1774999999999"/>
      <point x="35.760000000000005" y="793.0905000000001"/>
      <point x="35.760000000000005" y="550.3015" type="curve" smooth="yes"/>
      <point x="35.760000000000005" y="308.47450000000003"/>
      <point x="104.24699999999999" y="207.9605"/>
    </contour>
    <contour>
      <point x="231.843" y="237.017" type="curve" smooth="yes"/>
      <point x="123.76" y="237.017"/>
      <point x="66.33649999999999" y="325.9855"/>
      <point x="66.33649999999999" y="550.3015" type="curve" smooth="yes"/>
      <point x="66.33649999999999" y="775.316"/>
      <point x="123.729" y="863.369"/>
      <point x="231.843" y="863.369" type="curve" smooth="yes"/>
      <point x="341.41400000000004" y="863.369"/>
      <point x="398.07800000000003" y="775.3470000000001"/>
      <point x="398.07800000000003" y="550.3015" type="curve" smooth="yes"/>
      <point x="398.07800000000003" y="325.877"/>
      <point x="341.33650000000006" y="237.017"/>
    </contour>
    <contour>
      <point x="325.29050000000007" y="381.24050000000005" type="curve" smooth="yes"/>
      <point x="329.112" y="381.24050000000005"/>
      <point x="332.72299999999996" y="381.24050000000005"/>
      <point x="337.70900000000006" y="382.094" type="curve"/>
      <point x="335.846" y="434.01499999999993" type="line"/>
      <point x="333.95449999999994" y="433.39399999999995"/>
      <point x="332.312" y="433.39399999999995"/>
      <point x="330.312" y="433.39399999999995" type="curve" smooth="yes"/>
      <point x="310.8355000000001" y="433.44049999999993"/>
      <point x="298.75050000000005" y="462.6875"/>
      <point x="278.70550000000003" y="529.4475" type="curve"/>
      <point x="312.195" y="545.076"/>
      <point x="322.6345" y="584.2560000000001"/>
      <point x="322.6345" y="632.764" type="curve" smooth="yes"/>
      <point x="322.6345" y="704.0110000000001"/>
      <point x="292.78950000000003" y="733.8675000000001"/>
      <point x="230.0815" y="733.8675000000001" type="curve" smooth="yes"/>
      <point x="204.95049999999998" y="733.8675000000001"/>
      <point x="180.49300000000002" y="731.7420000000001"/>
      <point x="151.558" y="728.0745000000001" type="curve"/>
      <point x="151.558" y="384.334" type="line"/>
      <point x="200.7365" y="384.334" type="line"/>
      <point x="200.7365" y="514.586" type="line"/>
      <point x="208.8685" y="513.927"/>
      <point x="216.246" y="513.206"/>
      <point x="223.29799999999997" y="513.206" type="curve" smooth="yes"/>
      <point x="226.992" y="513.206"/>
      <point x="230.3295" y="513.206"/>
      <point x="233.94600000000003" y="513.827" type="curve"/>
      <point x="268.0945" y="395.6945"/>
      <point x="291.28499999999997" y="381.31800000000004"/>
    </contour>
    <contour>
      <point x="224.968" y="550.34" type="curve" smooth="yes"/>
      <point x="217.2815" y="550.34"/>
      <point x="209.843" y="550.409"/>
      <point x="200.7365" y="551.378" type="curve"/>
      <point x="200.7365" y="685.713" type="line"/>
      <point x="213.25" y="687.782"/>
      <point x="220.875" y="688.441"/>
      <point x="230.005" y="688.441" type="curve" smooth="yes"/>
      <point x="268.32599999999996" y="688.441"/>
      <point x="272.185" y="663.3934999999999"/>
      <point x="272.185" y="625.26" type="curve" smooth="yes"/>
      <point x="272.185" y="579.145"/>
      <point x="265.787" y="550.34"/>
    </contour>
  </outline>
</glyph>
<glyph name="degree" format="2">
  <advance width="258.65"/>
  <unicode hex="00B0"/>
  <outline>
    <contour>
      <point x="128.666" y="472.26" type="curve" smooth="yes"/>
      <point x="196.511" y="472.26"/>
      <point x="231.192" y="527.591"/>
      <point x="231.192" y="596.6500000000001" type="curve" smooth="yes"/>
      <point x="231.192" y="663.57"/>
      <point x="198.433" y="722.42"/>
      <point x="128.666" y="722.42" type="curve" smooth="yes"/>
      <point x="58.837" y="722.42"/>
      <point x="27.458" y="663.57"/>
      <point x="27.458" y="596.6500000000001" type="curve" smooth="yes"/>
      <point x="27.458" y="527.591"/>
      <point x="60.821" y="472.26"/>
    </contour>
    <contour>
      <point x="128.666" y="526.1740000000001" type="curve" smooth="yes"/>
      <point x="94.885" y="526.1740000000001"/>
      <point x="78.582" y="556.633"/>
      <point x="78.582" y="596.371" type="curve" smooth="yes"/>
      <point x="78.582" y="635.427"/>
      <point x="94.54400000000001" y="667.3280000000001"/>
      <point x="128.666" y="667.3280000000001" type="curve" smooth="yes"/>
      <point x="162.72600000000003" y="667.3280000000001"/>
      <point x="180.13" y="635.427"/>
      <point x="180.13" y="596.371" type="curve" smooth="yes"/>
      <point x="180.13" y="556.633"/>
      <point x="162.447" y="526.1740000000001"/>
    </contour>
  </outline>
</glyph>
<glyph name="plusminus" format="2">
  <advance width="429.704"/>
  <unicode hex="00B1"/>
  <outline>
    <contour>
      <point x="42.144" y="49.649" type="line"/>
      <point x="387.55999999999995" y="49.649" type="line"/>
      <point x="387.55999999999995" y="114.444" type="line"/>
      <point x="247.854" y="114.444" type="line"/>
      <point x="247.854" y="282.438" type="line"/>
      <point x="387.55999999999995" y="282.438" type="line"/>
      <point x="387.55999999999995" y="347.233" type="line"/>
      <point x="247.854" y="347.233" type="line"/>
      <point x="247.854" y="504.3" type="line"/>
      <point x="181.81900000000002" y="504.3" type="line"/>
      <point x="181.81900000000002" y="347.233" type="line"/>
      <point x="42.144" y="347.233" type="line"/>
      <point x="42.144" y="282.438" type="line"/>
      <point x="181.81900000000002" y="282.438" type="line"/>
      <point x="181.81900000000002" y="114.444" type="line"/>
      <point x="42.144" y="114.444" type="line"/>
    </contour>
  </outline>
</glyph>
<glyph name="uni00B2" format="2">
  <advance width="274.82899999999995"/>
  <unicode hex="00B2"/>
  <outline>
    <contour>
      <point x="48.726" y="370.0" type="line"/>
      <point x="233.472" y="370.0" type="line"/>
      <point x="233.472" y="410.304" type="line"/>
      <point x="106.758" y="410.304" type="line"/>
      <point x="187.20100000000002" y="538.089"/>
      <point x="212.687" y="602.989"/>
      <point x="212.687" y="663.5830000000001" type="curve" smooth="yes"/>
      <point x="212.687" y="735.027"/>
      <point x="180.75" y="775.214"/>
      <point x="125.145" y="775.214" type="curve" smooth="yes"/>
      <point x="94.635" y="775.214"/>
      <point x="66.251" y="766.392"/>
      <point x="40.916000000000004" y="742.585" type="curve"/>
      <point x="58.977000000000004" y="701.1139999999999" type="line"/>
      <point x="78.36900000000001" y="720.225"/>
      <point x="95.374" y="724.3800000000001"/>
      <point x="115.42699999999999" y="724.3800000000001" type="curve" smooth="yes"/>
      <point x="144.128" y="724.3800000000001"/>
      <point x="161.937" y="695.615"/>
      <point x="161.937" y="652.0960000000001" type="curve" smooth="yes"/>
      <point x="161.937" y="601.7880000000001"/>
      <point x="125.573" y="522.9129999999999"/>
      <point x="46.656" y="406.227" type="curve"/>
    </contour>
  </outline>
</glyph>
<glyph name="uni00B3" format="2">
  <advance width="275.302"/>
  <unicode hex="00B3"/>
  <outline>
    <contour>
      <point x="36.51499999999999" y="389.008" type="line"/>
      <point x="63.769" y="369.916"/>
      <point x="90.187" y="361.767"/>
      <point x="126.14500000000001" y="361.767" type="curve" smooth="yes"/>
      <point x="193.851" y="361.767"/>
      <point x="235.047" y="406.781"/>
      <point x="235.047" y="483.13500000000005" type="curve" smooth="yes"/>
      <point x="235.047" y="532.4350000000001"/>
      <point x="216.26899999999998" y="567.7080000000001"/>
      <point x="178.75900000000001" y="580.256" type="curve"/>
      <point x="208.13" y="594.7869999999999"/>
      <point x="224.41400000000002" y="629.532"/>
      <point x="224.41400000000002" y="671.3489999999999" type="curve" smooth="yes"/>
      <point x="224.41400000000002" y="734.612"/>
      <point x="187.88199999999998" y="774.6679999999999"/>
      <point x="126.798" y="774.6679999999999" type="curve" smooth="yes"/>
      <point x="92.789" y="774.6679999999999"/>
      <point x="63.785999999999994" y="765.8380000000001"/>
      <point x="43.861" y="750.393" type="curve"/>
      <point x="59.979" y="713.9240000000001" type="line"/>
      <point x="72.29099999999998" y="722.4290000000001"/>
      <point x="89.299" y="727.6840000000001"/>
      <point x="115.784" y="727.6840000000001" type="curve" smooth="yes"/>
      <point x="153.154" y="727.6840000000001"/>
      <point x="175.525" y="702.155"/>
      <point x="175.525" y="659.1450000000001" type="curve" smooth="yes"/>
      <point x="175.525" y="622.737"/>
      <point x="161.38500000000002" y="594.3169999999999"/>
      <point x="126.25800000000001" y="594.3169999999999" type="curve" smooth="yes"/>
      <point x="88.023" y="594.3169999999999" type="line"/>
      <point x="88.023" y="555.973" type="line"/>
      <point x="126.158" y="555.973" type="line" smooth="yes"/>
      <point x="170.08599999999998" y="555.973"/>
      <point x="184.296" y="529.458"/>
      <point x="184.296" y="486.855" type="curve" smooth="yes"/>
      <point x="184.296" y="436.15599999999995"/>
      <point x="160.547" y="406.412"/>
      <point x="119.851" y="406.412" type="curve" smooth="yes"/>
      <point x="91.13300000000001" y="406.412"/>
      <point x="73.61800000000001" y="412.32699999999994"/>
      <point x="55.074" y="426.115" type="curve"/>
    </contour>
  </outline>
</glyph>
<glyph name="uni00B5" format="2">
  <advance width="376.84"/>
  <unicode hex="00B5"/>
  <outline>
    <contour>
      <point x="42.855" y="-210.0" type="line"/>
      <point x="112.26899999999999" y="-210.0" type="line"/>
      <point x="112.26899999999999" y="15.669" type="line"/>
      <point x="124.714" y="-2.574"/>
      <point x="143.99599999999998" y="-9.442"/>
      <point x="167.38899999999998" y="-9.442" type="curve" smooth="yes"/>
      <point x="201.008" y="-9.442"/>
      <point x="234.371" y="4.592"/>
      <point x="261.805" y="23.865" type="curve"/>
      <point x="270.92299999999994" y="2.899"/>
      <point x="287.511" y="-10.0"/>
      <point x="318.17199999999997" y="-10.0" type="curve" smooth="yes"/>
      <point x="340.266" y="-10.0"/>
      <point x="358.67199999999997" y="-4.5520000000000005"/>
      <point x="376.351" y="4.6419999999999995" type="curve"/>
      <point x="367.77700000000004" y="63.113" type="line"/>
      <point x="359.69199999999995" y="59.26"/>
      <point x="351.315" y="57.501"/>
      <point x="343.503" y="57.501" type="curve" smooth="yes"/>
      <point x="329.945" y="57.501"/>
      <point x="322.15000000000003" y="65.896"/>
      <point x="322.15000000000003" y="90.07000000000001" type="curve" smooth="yes"/>
      <point x="322.15000000000003" y="536.2" type="line"/>
      <point x="250.225" y="536.2" type="line"/>
      <point x="250.225" y="82.018" type="line"/>
      <point x="227.394" y="66.465"/>
      <point x="198.204" y="55.847"/>
      <point x="173.59600000000003" y="55.847" type="curve" smooth="yes"/>
      <point x="135.395" y="55.847"/>
      <point x="115.059" y="78.739"/>
      <point x="115.059" y="121.97500000000001" type="curve" smooth="yes"/>
      <point x="115.059" y="536.2" type="line"/>
      <point x="42.855" y="536.2" type="line"/>
    </contour>
  </outline>
</glyph>
<glyph name="paragraph" format="2">
  <advance width="474.92100000000005"/>
  <unicode hex="00B6"/>
  <outline>
    <contour>
      <point x="370.677" y="-210.0" type="line"/>
      <point x="429.551" y="-210.0" type="line"/>
      <point x="429.551" y="740.0" type="line"/>
      <point x="370.677" y="740.0" type="line"/>
    </contour>
    <contour>
      <point x="195.617" y="250.93900000000002" type="line"/>
      <point x="125.698" y="265.892"/>
      <point x="89.322" y="346.43199999999996"/>
      <point x="89.322" y="465.39" type="curve" smooth="yes"/>
      <point x="89.322" y="584.1370000000001"/>
      <point x="133.475" y="672.577"/>
      <point x="231.989" y="675.889" type="curve"/>
      <point x="231.989" y="-210.0" type="line"/>
      <point x="290.86300000000006" y="-210.0" type="line"/>
      <point x="290.86300000000006" y="740.0" type="line"/>
      <point x="251.94500000000002" y="740.0" type="line" smooth="yes"/>
      <point x="85.608" y="740.0"/>
      <point x="24.279000000000003" y="617.097"/>
      <point x="24.279000000000003" y="467.83899999999994" type="curve" smooth="yes"/>
      <point x="24.279000000000003" y="325.632"/>
      <point x="74.52900000000001" y="223.31"/>
      <point x="188.255" y="199.56699999999998" type="curve"/>
    </contour>
  </outline>
</glyph>
<glyph name="periodcentered" format="2">
  <advance width="139.153"/>
  <unicode hex="00B7"/>
  <outline>
    <contour>
      <point x="28.589000000000002" y="299.55499999999995" type="curve" smooth="yes"/>
      <point x="28.589000000000002" y="264.33500000000004"/>
      <point x="38.927" y="251.555"/>
      <point x="69.82799999999999" y="251.555" type="curve" smooth="yes"/>
      <point x="101.264" y="251.555"/>
      <point x="110.60199999999999" y="264.33500000000004"/>
      <point x="110.60199999999999" y="299.55499999999995" type="curve" smooth="yes"/>
      <point x="110.60199999999999" y="334.93"/>
      <point x="101.264" y="347.71"/>
      <point x="69.82799999999999" y="347.71" type="curve" smooth="yes"/>
      <point x="37.927" y="347.71"/>
      <point x="28.589000000000002" y="334.93"/>
    </contour>
  </outline>
</glyph>
<glyph name="uni00B9" format="2">
  <advance width="253.968"/>
  <unicode hex="00B9"/>
  <outline>
    <contour>
      <point x="29.265" y="370.0" type="line"/>
      <point x="230.55200000000002" y="370.0" type="line"/>
      <point x="230.55200000000002" y="411.08" type="line"/>
      <point x="160.22899999999998" y="411.08" type="line"/>
      <point x="160.22899999999998" y="769.397" type="line"/>
      <point x="134.257" y="769.397" type="line"/>
      <point x="24.432" y="707.556" type="line"/>
      <point x="36.355000000000004" y="663.471" type="line"/>
      <point x="108.989" y="709.409" type="line"/>
      <point x="108.989" y="411.08" type="line"/>
      <point x="29.265" y="411.08" type="line"/>
    </contour>
  </outline>
</glyph>
<glyph name="ordmasculine" format="2">
  <advance width="270.53200000000004"/>
  <unicode hex="00BA"/>
  <outline>
    <contour>
      <point x="35.483" y="278.19599999999997" type="line"/>
      <point x="238.66799999999998" y="278.19599999999997" type="line"/>
      <point x="238.66799999999998" y="319.246" type="line"/>
      <point x="35.483" y="319.246" type="line"/>
    </contour>
    <component base="o.superior" xOffset="15.452000000000002"/>
  </outline>
</glyph>
<glyph name="questiondown" format="2">
  <advance width="316.281"/>
  <unicode hex="00BF"/>
  <outline>
    <contour>
      <point x="219.41500000000002" y="270.85699999999997" type="line"/>
      <point x="155.147" y="270.85699999999997" type="line"/>
      <point x="155.08499999999998" y="196.134" type="line"/>
      <point x="71.22200000000001" y="131.031"/>
      <point x="31.871" y="74.465"/>
      <point x="31.871" y="-32.61" type="curve" smooth="yes"/>
      <point x="31.871" y="-158.01"/>
      <point x="99.90700000000001" y="-216.621"/>
      <point x="187.693" y="-216.621" type="curve" smooth="yes"/>
      <point x="237.4" y="-216.621"/>
      <point x="286.84799999999996" y="-195.197"/>
      <point x="322.37600000000003" y="-162.006" type="curve"/>
      <point x="294.58" y="-100.33200000000001" type="line"/>
      <point x="259.931" y="-131.30900000000003"/>
      <point x="227.62800000000001" y="-142.55800000000002"/>
      <point x="197.365" y="-142.55800000000002" type="curve" smooth="yes"/>
      <point x="146.05" y="-142.55800000000002"/>
      <point x="106.74199999999999" y="-97.36200000000001"/>
      <point x="106.74199999999999" y="-22.847" type="curve" smooth="yes"/>
      <point x="106.74199999999999" y="49.058"/>
      <point x="130.89999999999998" y="99.603"/>
      <point x="220.748" y="163.58700000000002" type="curve"/>
    </contour>
    <contour>
      <point x="228.19299999999998" y="488.324" type="curve" smooth="yes"/>
      <point x="228.19299999999998" y="523.451"/>
      <point x="217.26399999999998" y="536.231"/>
      <point x="186.705" y="536.231" type="curve" smooth="yes"/>
      <point x="156.014" y="536.231"/>
      <point x="145.838" y="523.451"/>
      <point x="145.838" y="488.324" type="curve" smooth="yes"/>
      <point x="145.838" y="452.887"/>
      <point x="156.014" y="440.10699999999997"/>
      <point x="186.705" y="440.10699999999997" type="curve" smooth="yes"/>
      <point x="218.57500000000002" y="440.10699999999997"/>
      <point x="228.19299999999998" y="452.887"/>
    </contour>
  </outline>
</glyph>
<glyph name="AE" format="2">
  <advance width="607.9879999999999"/>
  <unicode hex="00C6"/>
  <anchor x="337.9705" y="700.0" name="top"/>
  <outline>
    <contour>
      <point x="12.923" y="0.0" type="line"/>
      <point x="92.9795" y="-0.7295" type="line"/>
      <point x="183.8015" y="256.68149999999997" type="line"/>
      <point x="306.58500000000004" y="256.68149999999997" type="line"/>
      <point x="306.58500000000004" y="0.0" type="line"/>
      <point x="592.8344999999999" y="0.0" type="line"/>
      <point x="592.8344999999999" y="70.99499999999999" type="line"/>
      <point x="377.96750000000003" y="70.99499999999999" type="line"/>
      <point x="377.96750000000003" y="304.3895" type="line"/>
      <point x="561.894" y="304.3895" type="line"/>
      <point x="561.894" y="372.9045" type="line"/>
      <point x="377.96750000000003" y="372.9045" type="line"/>
      <point x="377.96750000000003" y="627.8425" type="line"/>
      <point x="580.795" y="627.8425" type="line"/>
      <point x="580.795" y="700.0" type="line"/>
      <point x="259.175" y="700.0" type="line"/>
    </contour>
    <contour>
      <point x="202.27450000000002" y="325.16450000000003" type="line"/>
      <point x="305.965" y="645.1585000000001" type="line"/>
      <point x="305.965" y="325.16450000000003" type="line"/>
    </contour>
  </outline>
</glyph>
<glyph name="multiply" format="2">
  <advance width="394.312"/>
  <unicode hex="00D7"/>
  <outline>
    <contour>
      <point x="96.154" y="99.395" type="line"/>
      <point x="196.60399999999998" y="254.09099999999998" type="line"/>
      <point x="298.089" y="100.223" type="line"/>
      <point x="345.759" y="143.26500000000001" type="line"/>
      <point x="241.602" y="303.717" type="line"/>
      <point x="345.27599999999995" y="465.58" type="line"/>
      <point x="297.606" y="508.622" type="line"/>
      <point x="196.60399999999998" y="353.964" type="line"/>
      <point x="96.085" y="508.76" type="line"/>
      <point x="48.415" y="465.71799999999996" type="line"/>
      <point x="152.196" y="303.717" type="line"/>
      <point x="48.483999999999995" y="142.437" type="line"/>
    </contour>
  </outline>
</glyph>
<glyph name="Oslash" format="2">
  <advance width="426.0"/>
  <unicode hex="00D8"/>
  <anchor x="212.525" y="700.0" name="top"/>
  <outline>
    <contour>
      <point x="81.985" y="-10.31" type="line"/>
      <point x="113.175" y="59.13" type="line"/>
      <point x="119.56" y="61.515" type="line"/>
      <point x="340.44" y="593.63" type="line"/>
      <point x="346.36" y="595.835" type="line"/>
      <point x="397.15" y="713.1" type="line"/>
      <point x="344.005" y="713.1" type="line"/>
      <point x="310.06" y="634.98" type="line"/>
      <point x="303.58" y="632.5" type="line"/>
      <point x="86.67" y="111.27" type="line"/>
      <point x="81.5" y="110.205" type="line"/>
      <point x="29.09" y="-10.31" type="line"/>
    </contour>
    <contour>
      <point x="212.525" y="53.355000000000004" type="curve" smooth="yes"/>
      <point x="140.28500000000003" y="53.355000000000004"/>
      <point x="99.57" y="110.635"/>
      <point x="99.57" y="349.155" type="curve" smooth="yes"/>
      <point x="99.57" y="589.84"/>
      <point x="140.28500000000003" y="646.645"/>
      <point x="212.525" y="646.645" type="curve" smooth="yes"/>
      <point x="285.61" y="646.645"/>
      <point x="326.575" y="590.4"/>
      <point x="326.575" y="349.62" type="curve" smooth="yes"/>
      <point x="326.575" y="110.22000000000001"/>
      <point x="285.61" y="53.355000000000004"/>
    </contour>
    <contour>
      <point x="212.525" y="-10.0" type="curve" smooth="yes"/>
      <point x="333.59" y="-10.0"/>
      <point x="398.44" y="66.25999999999999"/>
      <point x="398.44" y="350.58500000000004" type="curve" smooth="yes"/>
      <point x="398.44" y="634.05"/>
      <point x="333.89" y="710.0"/>
      <point x="212.525" y="710.0" type="curve" smooth="yes"/>
      <point x="91.66" y="710.0"/>
      <point x="27.8" y="633.3349999999999"/>
      <point x="27.8" y="349.155" type="curve" smooth="yes"/>
      <point x="27.8" y="66.925"/>
      <point x="92.28" y="-10.0"/>
    </contour>
  </outline>
</glyph>
<glyph name="Thorn" format="2">
  <advance width="383.76899999999995"/>
  <unicode hex="00DE"/>
  <outline>
    <contour>
      <point x="44.964" y="0.0" type="line"/>
      <point x="117.788" y="0.0" type="line"/>
      <point x="117.788" y="157.54799999999997" type="line"/>
      <point x="147.979" y="155.41100000000003"/>
      <point x="162.229" y="155.342"/>
      <point x="192.20499999999998" y="155.342" type="curve" smooth="yes"/>
      <point x="311.037" y="155.342"/>
      <point x="364.359" y="226.224"/>
      <point x="364.359" y="395.182" type="curve" smooth="yes"/>
      <point x="364.359" y="557.15"/>
      <point x="321.79799999999994" y="618.123"/>
      <point x="178.42400000000004" y="618.123" type="curve" smooth="yes"/>
      <point x="163.251" y="618.123"/>
      <point x="145.33399999999997" y="617.333"/>
      <point x="118.06700000000001" y="615.508" type="curve"/>
      <point x="118.06700000000001" y="700.0" type="line"/>
      <point x="44.964" y="700.0" type="line"/>
    </contour>
    <contour>
      <point x="179.248" y="224.41500000000002" type="curve" smooth="yes"/>
      <point x="156.32399999999998" y="224.41500000000002"/>
      <point x="141.34699999999998" y="224.653"/>
      <point x="118.06700000000001" y="226.163" type="curve"/>
      <point x="118.06700000000001" y="548.203" type="line"/>
      <point x="148.75799999999998" y="551.579"/>
      <point x="166.479" y="552.3380000000001"/>
      <point x="183.23000000000002" y="552.3380000000001" type="curve" smooth="yes"/>
      <point x="270.516" y="552.3380000000001"/>
      <point x="291.318" y="507.76099999999997"/>
      <point x="291.318" y="396.63599999999997" type="curve" smooth="yes"/>
      <point x="291.318" y="278.684"/>
      <point x="261.65299999999996" y="224.41500000000002"/>
    </contour>
  </outline>
</glyph>
<glyph name="germandbls" format="2">
  <advance width="455.808"/>
  <unicode hex="00DF"/>
  <outline>
    <contour>
      <point x="73.508" y="0.0" type="line"/>
      <point x="145.15400000000002" y="0.0" type="line"/>
      <point x="145.15400000000002" y="533.3639999999999" type="line" smooth="yes"/>
      <point x="145.15400000000002" y="635.384"/>
      <point x="180.48999999999998" y="684.128"/>
      <point x="256.79" y="684.128" type="curve" smooth="yes"/>
      <point x="311.754" y="684.128"/>
      <point x="338.57" y="660.336"/>
      <point x="338.57" y="616.632" type="curve" smooth="yes"/>
      <point x="338.57" y="580.722"/>
      <point x="326.386" y="560.998"/>
      <point x="278.97400000000005" y="527.7660000000001" type="curve" smooth="yes"/>
      <point x="229.564" y="494.256"/>
      <point x="203.148" y="454.428"/>
      <point x="203.148" y="399.126" type="curve" smooth="yes"/>
      <point x="203.148" y="326.252"/>
      <point x="228.266" y="292.584"/>
      <point x="304.46999999999997" y="242.49" type="curve" smooth="yes"/>
      <point x="365.974" y="198.85000000000002"/>
      <point x="384.306" y="174.582"/>
      <point x="384.306" y="132.48" type="curve" smooth="yes"/>
      <point x="384.306" y="84.538"/>
      <point x="351.842" y="53.833999999999996"/>
      <point x="295.118" y="53.833999999999996" type="curve" smooth="yes"/>
      <point x="255.47600000000003" y="53.833999999999996"/>
      <point x="224.75799999999998" y="62.326"/>
      <point x="193.864" y="73.954" type="curve"/>
      <point x="179.218" y="14.296" type="line"/>
      <point x="212.172" y="-1.626"/>
      <point x="255.94" y="-10.0"/>
      <point x="299.892" y="-10.0" type="curve" smooth="yes"/>
      <point x="390.13800000000003" y="-10.0"/>
      <point x="451.36400000000003" y="42.46"/>
      <point x="451.36400000000003" y="136.572" type="curve" smooth="yes"/>
      <point x="451.36400000000003" y="207.858"/>
      <point x="420.84999999999997" y="251.096"/>
      <point x="343.652" y="300.13599999999997" type="curve" smooth="yes"/>
      <point x="284.774" y="340.784"/>
      <point x="271.26000000000005" y="364.744"/>
      <point x="271.26000000000005" y="403.59" type="curve" smooth="yes"/>
      <point x="271.26000000000005" y="437.53799999999995"/>
      <point x="289.102" y="461.38"/>
      <point x="327.632" y="488.23600000000005" type="curve" smooth="yes"/>
      <point x="387.632" y="528.286"/>
      <point x="411.952" y="562.468"/>
      <point x="411.952" y="618.4300000000001" type="curve" smooth="yes"/>
      <point x="411.952" y="702.9000000000001"/>
      <point x="356.24" y="750.0"/>
      <point x="254.436" y="750.0" type="curve" smooth="yes"/>
      <point x="136.05800000000002" y="750.0"/>
      <point x="73.572" y="676.874"/>
      <point x="73.508" y="546.168" type="curve" smooth="yes"/>
      <point x="73.508" y="497.026" type="line"/>
      <point x="11.896" y="490.034" type="line"/>
      <point x="11.896" y="435.85799999999995" type="line"/>
      <point x="73.508" y="435.85799999999995" type="line"/>
    </contour>
  </outline>
</glyph>
<glyph name="ae" format="2">
  <advance width="548.4425"/>
  <unicode hex="00E6"/>
  <anchor x="276.4975" y="536.2" name="top"/>
  <outline>
    <contour>
      <point x="122.565" y="-10.0" type="curve" smooth="yes"/>
      <point x="176.24249999999998" y="-10.0"/>
      <point x="220.6925" y="16.7725"/>
      <point x="263.7575" y="64.67999999999999" type="curve"/>
      <point x="264.91249999999997" y="64.67999999999999" type="line"/>
      <point x="291.80999999999995" y="13.5025"/>
      <point x="330.5975" y="-10.0"/>
      <point x="391.29" y="-10.0" type="curve" smooth="yes"/>
      <point x="439.1275" y="-10.0"/>
      <point x="479.6275" y="-1.735"/>
      <point x="517.9775" y="14.295" type="curve"/>
      <point x="506.95" y="77.10749999999999" type="line"/>
      <point x="473.60249999999996" y="65.97"/>
      <point x="434.6275" y="58.69499999999999"/>
      <point x="402.13249999999994" y="58.69499999999999" type="curve" smooth="yes"/>
      <point x="332.1325" y="58.69499999999999"/>
      <point x="301.8525" y="100.7025"/>
      <point x="301.54249999999996" y="243.3925" type="curve" smooth="yes"/>
      <point x="301.38750000000005" y="248.63500000000002"/>
      <point x="301.38750000000005" y="254.525"/>
      <point x="301.63750000000005" y="259.2675" type="curve"/>
      <point x="399.9275" y="260.895"/>
      <point x="483.46750000000003" y="273.8525"/>
      <point x="524.24" y="279.6025" type="curve"/>
      <point x="524.4725000000001" y="288.5275"/>
      <point x="525.4725000000001" y="300.99249999999995"/>
      <point x="525.4725000000001" y="316.13" type="curve" smooth="yes"/>
      <point x="525.4725000000001" y="475.045"/>
      <point x="479.935" y="546.2"/>
      <point x="382.6825" y="546.2" type="curve" smooth="yes"/>
      <point x="330.9475" y="546.2"/>
      <point x="292.1175" y="516.0875000000001"/>
      <point x="270.4" y="456.68999999999994" type="curve"/>
      <point x="269.4" y="456.68999999999994" type="line"/>
      <point x="256.45000000000005" y="515.06"/>
      <point x="219.95000000000002" y="546.2"/>
      <point x="157.4975" y="546.2" type="curve" smooth="yes"/>
      <point x="121.14250000000001" y="546.2"/>
      <point x="76.51" y="537.6600000000001"/>
      <point x="38.49" y="523.24" type="curve"/>
      <point x="54.290000000000006" y="458.62" type="line"/>
      <point x="93.255" y="471.71250000000003"/>
      <point x="126.39750000000001" y="475.28249999999997"/>
      <point x="152.4775" y="475.28249999999997" type="curve" smooth="yes"/>
      <point x="202.435" y="475.28249999999997"/>
      <point x="228.68" y="447.2225"/>
      <point x="228.68" y="393.0925" type="curve" smooth="yes"/>
      <point x="228.68" y="310.845" type="line"/>
      <point x="75.89250000000001" y="280.69750000000005"/>
      <point x="12.9775" y="234.31"/>
      <point x="12.9775" y="125.015" type="curve" smooth="yes"/>
      <point x="12.9775" y="39.7075"/>
      <point x="54.497499999999995" y="-10.0"/>
    </contour>
    <contour>
      <point x="143.36249999999998" y="48.37" type="curve" smooth="yes"/>
      <point x="106.85" y="48.37"/>
      <point x="84.12750000000001" y="78.68"/>
      <point x="84.12750000000001" y="133.65749999999997" type="curve" smooth="yes"/>
      <point x="84.12750000000001" y="206.38250000000002"/>
      <point x="133.87250000000003" y="242.63500000000002"/>
      <point x="228.8175" y="263.40250000000003" type="curve"/>
      <point x="228.8175" y="253.70499999999998"/>
      <point x="228.8175" y="243.57750000000001"/>
      <point x="228.8175" y="233.725" type="curve" smooth="yes"/>
      <point x="228.8175" y="181.785"/>
      <point x="233.13" y="139.7475"/>
      <point x="238.3825" y="108.525" type="curve"/>
      <point x="213.475" y="73.915"/>
      <point x="175.8925" y="48.37"/>
    </contour>
    <contour>
      <point x="301.26750000000004" y="306.65749999999997" type="curve"/>
      <point x="300.88" y="439.86749999999995"/>
      <point x="332.72" y="487.5725"/>
      <point x="379.03000000000003" y="487.5725" type="curve" smooth="yes"/>
      <point x="428.4525" y="487.5725"/>
      <point x="452.6175" y="435.0125"/>
      <point x="453.7025" y="319.335" type="curve"/>
      <point x="429.0925" y="313.6"/>
      <point x="359.6625" y="306.65749999999997"/>
    </contour>
  </outline>
</glyph>
<glyph name="eth" format="2">
  <advance width="358.305"/>
  <unicode hex="00F0"/>
  <outline>
    <contour>
      <point x="271.65" y="460.405" type="curve"/>
      <point x="275.72499999999997" y="515.59" type="line"/>
      <point x="252.64999999999998" y="531.24"/>
      <point x="223.96" y="538.215"/>
      <point x="191.57" y="538.215" type="curve" smooth="yes"/>
      <point x="74.015" y="538.215"/>
      <point x="26.835" y="451.49499999999995"/>
      <point x="26.835" y="253.71" type="curve" smooth="yes"/>
      <point x="26.835" y="65.565"/>
      <point x="72.135" y="-10.0"/>
      <point x="174.71" y="-10.0" type="curve" smooth="yes"/>
      <point x="292.89" y="-10.0"/>
      <point x="332.52000000000004" y="70.115"/>
      <point x="332.52000000000004" y="331.79" type="curve" smooth="yes"/>
      <point x="332.52000000000004" y="605.085"/>
      <point x="279.40500000000003" y="723.02"/>
      <point x="129.29500000000002" y="723.02" type="curve" smooth="yes"/>
      <point x="93.72500000000001" y="723.02"/>
      <point x="64.175" y="716.7299999999999"/>
      <point x="29.445" y="706.2750000000001" type="curve"/>
      <point x="39.595" y="656.165" type="line"/>
      <point x="66.44" y="663.8199999999999"/>
      <point x="86.99" y="668.905"/>
      <point x="114.275" y="668.905" type="curve" smooth="yes"/>
      <point x="226.29" y="668.905"/>
      <point x="260.26" y="594.2850000000001"/>
      <point x="260.26" y="338.15999999999997" type="curve" smooth="yes"/>
      <point x="260.26" y="104.115"/>
      <point x="240.295" y="46.07"/>
      <point x="178.87" y="46.07" type="curve" smooth="yes"/>
      <point x="122.49000000000001" y="46.07"/>
      <point x="101.085" y="100.17999999999999"/>
      <point x="101.085" y="253.96" type="curve" smooth="yes"/>
      <point x="101.085" y="426.305"/>
      <point x="132.52999999999997" y="482.70500000000004"/>
      <point x="202.07500000000002" y="482.70500000000004" type="curve" smooth="yes"/>
      <point x="226.22" y="482.70500000000004"/>
      <point x="250.0" y="477.92"/>
    </contour>
    <contour>
      <point x="120.63" y="562.18" type="line"/>
      <point x="231.71999999999997" y="643.04" type="line"/>
      <point x="235.46999999999997" y="648.475" type="line"/>
      <point x="339.74" y="727.505" type="line"/>
      <point x="274.53999999999996" y="727.505" type="line"/>
      <point x="209.075" y="679.1199999999999" type="line"/>
      <point x="207.65" y="675.5100000000001" type="line"/>
      <point x="54.989999999999995" y="562.18" type="line"/>
    </contour>
  </outline>
</glyph>
<glyph name="divide" format="2">
  <advance width="409.925"/>
  <unicode hex="00F7"/>
  <outline>
    <contour>
      <point x="166.281" y="118.412" type="curve" smooth="yes"/>
      <point x="166.281" y="89.23700000000001"/>
      <point x="175.50200000000004" y="79.09200000000001"/>
      <point x="205.195" y="79.09200000000001" type="curve" smooth="yes"/>
      <point x="234.61599999999999" y="79.09200000000001"/>
      <point x="244.109" y="89.23700000000001"/>
      <point x="244.109" y="118.412" type="curve" smooth="yes"/>
      <point x="244.109" y="147.43200000000002"/>
      <point x="234.27400000000003" y="157.732"/>
      <point x="205.195" y="157.732" type="curve" smooth="yes"/>
      <point x="175.30900000000003" y="157.732"/>
      <point x="166.281" y="147.43200000000002"/>
    </contour>
    <contour>
      <point x="166.281" y="484.38800000000003" type="curve" smooth="yes"/>
      <point x="166.281" y="455.368"/>
      <point x="175.84400000000002" y="445.5330000000001"/>
      <point x="205.195" y="445.5330000000001" type="curve" smooth="yes"/>
      <point x="234.61599999999999" y="445.5330000000001"/>
      <point x="244.109" y="455.368"/>
      <point x="244.109" y="484.38800000000003" type="curve" smooth="yes"/>
      <point x="244.109" y="514.028"/>
      <point x="234.61599999999999" y="523.863"/>
      <point x="205.195" y="523.863" type="curve" smooth="yes"/>
      <point x="175.30900000000003" y="523.863"/>
      <point x="166.281" y="514.028"/>
    </contour>
    <contour>
      <point x="42.392" y="269.235" type="line"/>
      <point x="367.998" y="269.235" type="line"/>
      <point x="367.998" y="334.185" type="line"/>
      <point x="42.392" y="334.185" type="line"/>
    </contour>
  </outline>
</glyph>
<glyph name="oslash" format="2">
  <advance width="364.28499999999997"/>
  <unicode hex="00F8"/>
  <anchor x="181.01000000000002" y="536.2" name="top"/>
  <outline>
    <contour>
      <point x="181.01000000000002" y="-10.0" type="curve" smooth="yes"/>
      <point x="64.3" y="-10.0"/>
      <point x="26.37" y="69.39"/>
      <point x="26.37" y="268.81500000000005" type="curve" smooth="yes"/>
      <point x="26.37" y="466.895"/>
      <point x="62.395" y="546.2"/>
      <point x="181.01000000000002" y="546.2" type="curve" smooth="yes"/>
      <point x="299.565" y="546.2"/>
      <point x="336.21000000000004" y="466.895"/>
      <point x="336.21000000000004" y="268.81500000000005" type="curve" smooth="yes"/>
      <point x="336.21000000000004" y="69.39"/>
      <point x="297.815" y="-10.0"/>
    </contour>
    <contour>
      <point x="181.475" y="50.72" type="curve" smooth="yes"/>
      <point x="241.845" y="50.72"/>
      <point x="264.90500000000003" y="93.545"/>
      <point x="264.90500000000003" y="268.81500000000005" type="curve" smooth="yes"/>
      <point x="264.90500000000003" y="442.99"/>
      <point x="243.13" y="485.94500000000005"/>
      <point x="181.475" y="485.94500000000005" type="curve" smooth="yes"/>
      <point x="119.295" y="485.94500000000005"/>
      <point x="97.98499999999999" y="442.99"/>
      <point x="97.98499999999999" y="268.81500000000005" type="curve" smooth="yes"/>
      <point x="97.98499999999999" y="93.545"/>
      <point x="120.735" y="50.72"/>
    </contour>
    <contour>
      <point x="24.775000000000002" y="-7.21" type="line"/>
      <point x="76.39" y="102.50000000000001" type="line"/>
      <point x="80.0" y="101.415" type="line"/>
      <point x="255.89" y="490.71500000000003" type="line"/>
      <point x="260.42999999999995" y="489.63" type="line"/>
      <point x="287.57" y="546.2" type="line"/>
      <point x="337.805" y="546.2" type="line"/>
      <point x="290.49499999999995" y="447.45" type="line"/>
      <point x="286.42" y="448.535" type="line"/>
      <point x="108.80000000000001" y="54.355" type="line"/>
      <point x="104.26" y="55.440000000000005" type="line"/>
      <point x="74.69999999999999" y="-7.21" type="line"/>
    </contour>
  </outline>
</glyph>
<glyph name="thorn" format="2">
  <advance width="362.969"/>
  <unicode hex="00FE"/>
  <outline>
    <contour>
      <point x="42.855" y="-210.0" type="line"/>
      <point x="114.253" y="-210.0" type="line"/>
      <point x="114.253" y="-3.1450000000000005" type="line"/>
      <point x="133.832" y="-8.106"/>
      <point x="151.162" y="-10.0"/>
      <point x="167.184" y="-10.0" type="curve" smooth="yes"/>
      <point x="289.121" y="-10.0"/>
      <point x="336.165" y="69.32600000000001"/>
      <point x="336.165" y="280.35599999999994" type="curve" smooth="yes"/>
      <point x="336.165" y="455.862"/>
      <point x="291.15999999999997" y="546.2"/>
      <point x="202.841" y="546.2" type="curve" smooth="yes"/>
      <point x="174.34400000000002" y="546.2"/>
      <point x="139.02400000000003" y="536.239"/>
      <point x="114.81099999999999" y="522.872" type="curve"/>
      <point x="114.81099999999999" y="740.0" type="line"/>
      <point x="42.855" y="740.0" type="line"/>
    </contour>
    <contour>
      <point x="165.288" y="48.21300000000001" type="curve" smooth="yes"/>
      <point x="151.37700000000004" y="48.21300000000001"/>
      <point x="137.784" y="50.51"/>
      <point x="115.059" y="56.415" type="curve"/>
      <point x="115.059" y="461.60400000000004" type="line"/>
      <point x="139.477" y="475.07699999999994"/>
      <point x="156.938" y="479.70899999999995"/>
      <point x="178.793" y="479.70899999999995" type="curve" smooth="yes"/>
      <point x="233.353" y="479.70899999999995"/>
      <point x="261.047" y="413.789"/>
      <point x="261.047" y="274.063" type="curve" smooth="yes"/>
      <point x="261.047" y="101.80499999999999"/>
      <point x="235.73399999999998" y="48.21300000000001"/>
    </contour>
  </outline>
</glyph>
<glyph name="Dcroat" format="2">
  <advance width="419.06149999999997"/>
  <unicode hex="0110"/>
  <outline>
    <contour>
      <point x="3.795" y="324.27" type="line"/>
      <point x="214.18949999999998" y="324.27" type="line"/>
      <point x="214.18949999999998" y="389.4525" type="line"/>
      <point x="3.795" y="389.4525" type="line"/>
    </contour>
    <component base="D" xOffset="4.4864999999999995"/>
  </outline>
</glyph>
<glyph name="dcroat" format="2">
  <advance width="365.7125"/>
  <unicode hex="0111"/>
  <outline>
    <contour>
      <point x="152.118" y="613.2724999999999" type="line"/>
      <point x="369.04650000000004" y="613.2724999999999" type="line"/>
      <point x="369.04650000000004" y="659.6374999999999" type="line"/>
      <point x="152.118" y="659.6374999999999" type="line"/>
    </contour>
    <component base="d"/>
  </outline>
</glyph>
<glyph name="Hbar" format="2">
  <advance width="429.673"/>
  <unicode hex="0126"/>
  <outline>
    <contour>
      <point x="10.94" y="501.645" type="line"/>
      <point x="44.995" y="501.645" type="line"/>
      <point x="44.995" y="0.0" type="line"/>
      <point x="117.54" y="0.0" type="line"/>
      <point x="117.54" y="270.90500000000003" type="line"/>
      <point x="312.44300000000004" y="270.90500000000003" type="line"/>
      <point x="312.44300000000004" y="0.0" type="line"/>
      <point x="384.678" y="0.0" type="line"/>
      <point x="384.678" y="501.645" type="line"/>
      <point x="418.733" y="501.645" type="line"/>
      <point x="418.733" y="559.741" type="line"/>
      <point x="384.678" y="559.741" type="line"/>
      <point x="384.678" y="700.0" type="line"/>
      <point x="312.44300000000004" y="700.0" type="line"/>
      <point x="312.44300000000004" y="559.741" type="line"/>
      <point x="117.54" y="559.741" type="line"/>
      <point x="117.54" y="700.0" type="line"/>
      <point x="44.995" y="700.0" type="line"/>
      <point x="44.995" y="559.741" type="line"/>
      <point x="10.94" y="559.741" type="line"/>
    </contour>
    <contour>
      <point x="117.54" y="343.139" type="line"/>
      <point x="117.54" y="501.645" type="line"/>
      <point x="312.44300000000004" y="501.645" type="line"/>
      <point x="312.44300000000004" y="343.139" type="line"/>
    </contour>
  </outline>
</glyph>
<glyph name="hbar" format="2">
  <advance width="367.5535"/>
  <unicode hex="0127"/>
  <outline>
    <contour>
      <point x="-1.6745000000000003" y="613.2725" type="line"/>
      <point x="213.5815" y="613.2725" type="line"/>
      <point x="213.5815" y="659.6375" type="line"/>
      <point x="-1.6745000000000003" y="659.6375" type="line"/>
    </contour>
    <component base="h"/>
  </outline>
</glyph>
<glyph name="Idotaccent" format="2">
  <advance width="162.473"/>
  <unicode hex="0130"/>
  <outline>
    <contour>
      <point x="81.65500000000002" y="781.821" type="curve" smooth="yes"/>
      <point x="113.33899999999998" y="781.821"/>
      <point x="124.44400000000002" y="794.012"/>
      <point x="124.44400000000002" y="827.651" type="curve" smooth="yes"/>
      <point x="124.44400000000002" y="861.8480000000001"/>
      <point x="112.781" y="873.7600000000001"/>
      <point x="81.65500000000002" y="873.7600000000001" type="curve" smooth="yes"/>
      <point x="50.25" y="873.7600000000001"/>
      <point x="38.587" y="861.8480000000001"/>
      <point x="38.587" y="827.651" type="curve" smooth="yes"/>
      <point x="38.587" y="793.7330000000001"/>
      <point x="50.94" y="781.821"/>
    </contour>
    <component base="I"/>
  </outline>
</glyph>
<glyph name="dotlessi" format="2">
  <advance width="158.47199999999998"/>
  <unicode hex="0131"/>
  <anchor x="113.50200000000001" y="3.1" name="ogonek"/>
  <anchor x="79.794" y="0.0" name="bottom"/>
  <anchor x="79.23599999999999" y="536.2" name="top"/>
  <outline>
    <contour>
      <point x="42.855" y="0.0" type="line"/>
      <point x="115.61699999999999" y="0.0" type="line"/>
      <point x="115.61699999999999" y="536.2" type="line"/>
      <point x="42.855" y="536.2" type="line"/>
    </contour>
  </outline>
</glyph>
<glyph name="Ldot" format="2">
  <advance width="315.33"/>
  <unicode hex="013F"/>
  <outline>
    <contour>
      <point x="207.62400000000002" y="371.80899999999997" type="curve" smooth="yes"/>
      <point x="207.62400000000002" y="344.494"/>
      <point x="214.8" y="335.62"/>
      <point x="239.005" y="335.62" type="curve" smooth="yes"/>
      <point x="264.17900000000003" y="335.62"/>
      <point x="270.66499999999996" y="344.494"/>
      <point x="270.66499999999996" y="371.80899999999997" type="curve" smooth="yes"/>
      <point x="270.66499999999996" y="399.43399999999997"/>
      <point x="264.17900000000003" y="408.308"/>
      <point x="239.005" y="408.308" type="curve" smooth="yes"/>
      <point x="214.11" y="408.308"/>
      <point x="207.62400000000002" y="399.43399999999997"/>
    </contour>
    <component base="L"/>
  </outline>
</glyph>
<glyph name="ldot" format="2">
  <advance width="225.505"/>
  <unicode hex="0140"/>
  <outline>
    <contour>
      <point x="191.69000000000003" y="328.709" type="curve" smooth="yes"/>
      <point x="213.64000000000001" y="328.709"/>
      <point x="221.087" y="336.65299999999996"/>
      <point x="221.087" y="364.402" type="curve" smooth="yes"/>
      <point x="221.087" y="392.43"/>
      <point x="213.64000000000001" y="400.37399999999997"/>
      <point x="191.69000000000003" y="400.37399999999997" type="curve" smooth="yes"/>
      <point x="170.01899999999998" y="400.37399999999997"/>
      <point x="162.572" y="392.43"/>
      <point x="162.572" y="364.402" type="curve" smooth="yes"/>
      <point x="162.572" y="336.65299999999996"/>
      <point x="170.70899999999997" y="328.709"/>
    </contour>
    <component base="l"/>
  </outline>
</glyph>
<glyph name="Lslash" format="2">
  <advance width="334.977"/>
  <unicode hex="0141"/>
  <outline>
    <contour>
      <point x="18.310000000000002" y="208.285" type="line"/>
      <point x="64.61099999999999" y="246.52499999999998" type="line"/>
      <point x="64.61099999999999" y="0.0" type="line"/>
      <point x="326.61699999999996" y="0.0" type="line"/>
      <point x="326.61699999999996" y="70.28099999999999" type="line"/>
      <point x="137.435" y="70.28099999999999" type="line"/>
      <point x="137.435" y="288.06699999999995" type="line"/>
      <point x="270.653" y="394.46500000000003" type="line"/>
      <point x="270.653" y="467.88100000000003" type="line"/>
      <point x="137.435" y="362.104" type="line"/>
      <point x="137.435" y="700.0" type="line"/>
      <point x="64.61099999999999" y="700.0" type="line"/>
      <point x="64.61099999999999" y="320.562" type="line"/>
      <point x="18.310000000000002" y="282.322" type="line"/>
    </contour>
  </outline>
</glyph>
<glyph name="lslash" format="2">
  <advance width="198.163"/>
  <unicode hex="0142"/>
  <outline>
    <contour>
      <point x="135.78400000000002" y="-10.0" type="curve" smooth="yes"/>
      <point x="156.743" y="-10.0"/>
      <point x="178.37300000000002" y="-3.866"/>
      <point x="194.739" y="3.7209999999999996" type="curve"/>
      <point x="188.13500000000002" y="71.429" type="line"/>
      <point x="173.874" y="67.283"/>
      <point x="163.563" y="65.676"/>
      <point x="155.438" y="65.676" type="curve" smooth="yes"/>
      <point x="133.237" y="65.676"/>
      <point x="118.717" y="77.323"/>
      <point x="118.717" y="152.956" type="curve" smooth="yes"/>
      <point x="118.717" y="299.135" type="line"/>
      <point x="189.05999999999997" y="364.796" type="line"/>
      <point x="189.05999999999997" y="431.10999999999996" type="line"/>
      <point x="118.717" y="365.44899999999996" type="line"/>
      <point x="118.717" y="740.0" type="line"/>
      <point x="46.792" y="740.0" type="line"/>
      <point x="46.792" y="304.559" type="line"/>
      <point x="3.2730000000000006" y="264.086" type="line"/>
      <point x="3.2730000000000006" y="198.393" type="line"/>
      <point x="46.854" y="238.276" type="line"/>
      <point x="46.916000000000004" y="137.208" type="line" smooth="yes"/>
      <point x="47.443" y="18.977"/>
      <point x="76.825" y="-10.0"/>
    </contour>
  </outline>
</glyph>
<glyph name="Eng" format="2">
  <advance width="429.415"/>
  <unicode hex="014A"/>
  <outline>
    <contour>
      <point x="45.017500000000005" y="0.0" type="line"/>
      <point x="110.665" y="0.0" type="line"/>
      <point x="110.665" y="529.6725" type="line"/>
      <point x="313.8675" y="2.4000000000000004" type="line"/>
      <point x="313.8675" y="-10.985" type="line" smooth="yes"/>
      <point x="313.5225" y="-67.8175"/>
      <point x="284.695" y="-90.25500000000001"/>
      <point x="231.7475" y="-90.25500000000001" type="curve" smooth="yes"/>
      <point x="220.87" y="-90.25500000000001"/>
      <point x="208.285" y="-89.2375"/>
      <point x="195.8675" y="-85.585" type="curve"/>
      <point x="184.9825" y="-150.77499999999998" type="line"/>
      <point x="200.655" y="-157.4675"/>
      <point x="220.465" y="-162.9025"/>
      <point x="245.62" y="-162.9025" type="curve" smooth="yes"/>
      <point x="345.85" y="-162.9025"/>
      <point x="384.3975" y="-104.925"/>
      <point x="384.3975" y="-11.705" type="curve" smooth="yes"/>
      <point x="384.3975" y="700.0" type="line"/>
      <point x="318.905" y="700.0" type="line"/>
      <point x="318.905" y="164.02749999999997" type="line"/>
      <point x="118.38749999999999" y="700.69" type="line"/>
      <point x="45.017500000000005" y="700.69" type="line"/>
    </contour>
  </outline>
</glyph>
<glyph name="eng" format="2">
  <advance width="367.693"/>
  <unicode hex="014B"/>
  <outline>
    <contour>
      <point x="325.396" y="16.1" type="curve"/>
      <point x="325.396" y="431.104" type="line" smooth="yes"/>
      <point x="325.396" y="508.964"/>
      <point x="286.306" y="546.2"/>
      <point x="224.403" y="546.2" type="curve" smooth="yes"/>
      <point x="182.189" y="546.2"/>
      <point x="143.073" y="531.6080000000001"/>
      <point x="109.355" y="509.33700000000005" type="curve"/>
      <point x="109.355" y="536.2" type="line"/>
      <point x="42.855" y="536.2" type="line"/>
      <point x="42.855" y="0.0" type="line"/>
      <point x="115.059" y="0.0" type="line"/>
      <point x="115.059" y="452.53200000000004" type="line"/>
      <point x="138.28400000000002" y="467.572"/>
      <point x="167.812" y="478.834"/>
      <point x="193.644" y="478.834" type="curve" smooth="yes"/>
      <point x="233.72400000000002" y="478.834"/>
      <point x="253.192" y="454.76000000000005"/>
      <point x="253.192" y="411.01599999999996" type="curve" smooth="yes"/>
      <point x="253.192" y="14.274" type="line" smooth="yes"/>
      <point x="253.192" y="-59.843999999999994"/>
      <point x="238.00400000000002" y="-106.194"/>
      <point x="210.10899999999998" y="-128.274" type="curve" smooth="yes"/>
      <point x="205.07399999999998" y="-131.793"/>
      <point x="199.078" y="-134.281"/>
      <point x="193.508" y="-136.07899999999998" type="curve"/>
      <point x="196.96599999999998" y="-209.971" type="line"/>
      <point x="208.93099999999998" y="-208.17100000000002"/>
      <point x="220.77100000000002" y="-204.68200000000002"/>
      <point x="233.806" y="-200.54200000000003" type="curve" smooth="yes"/>
      <point x="292.151" y="-175.15"/>
      <point x="325.396" y="-102.18299999999999"/>
    </contour>
  </outline>
</glyph>
<glyph name="OE" format="2">
  <advance width="599.461"/>
  <unicode hex="0152"/>
  <outline>
    <contour>
      <point x="584.3075" y="0.0" type="line"/>
      <point x="584.3075" y="70.99499999999999" type="line"/>
      <point x="369.983" y="70.99499999999999" type="line"/>
      <point x="369.983" y="325.6275" type="line"/>
      <point x="553.212" y="325.6275" type="line"/>
      <point x="553.212" y="394.1425" type="line"/>
      <point x="369.983" y="394.1425" type="line"/>
      <point x="369.983" y="627.9975" type="line"/>
      <point x="572.113" y="627.9975" type="line"/>
      <point x="572.113" y="700.0" type="line"/>
      <point x="355.8005" y="700.0" type="line"/>
      <point x="316.321" y="704.5105"/>
      <point x="274.209" y="706.243"/>
      <point x="234.6655" y="706.243" type="curve" smooth="yes"/>
      <point x="101.612" y="706.243"/>
      <point x="27.409499999999998" y="634.791"/>
      <point x="27.409499999999998" y="351.778" type="curve" smooth="yes"/>
      <point x="27.409499999999998" y="65.52700000000002"/>
      <point x="104.62650000000001" y="-7.547000000000001"/>
      <point x="233.0805" y="-7.547000000000001" type="curve" smooth="yes"/>
      <point x="272.7955" y="-7.547000000000001"/>
      <point x="318.61949999999996" y="-5.4725"/>
      <point x="369.7505" y="0.0" type="curve"/>
    </contour>
    <contour>
      <point x="296.973" y="63.0395" type="line"/>
      <point x="280.1155" y="61.0395"/>
      <point x="255.61499999999995" y="59.230999999999995"/>
      <point x="234.8275" y="59.230999999999995" type="curve" smooth="yes"/>
      <point x="153.4165" y="59.230999999999995"/>
      <point x="103.04700000000001" y="107.7295"/>
      <point x="103.04700000000001" y="350.5" type="curve" smooth="yes"/>
      <point x="103.04700000000001" y="595.6974999999999"/>
      <point x="154.01999999999998" y="639.7294999999999"/>
      <point x="236.6695" y="639.7294999999999" type="curve" smooth="yes"/>
      <point x="252.5555" y="639.7294999999999"/>
      <point x="280.31949999999995" y="637.6899999999999"/>
      <point x="296.973" y="635.766" type="curve"/>
    </contour>
  </outline>
</glyph>
<glyph name="oe" format="2">
  <advance width="589.0730000000001"/>
  <unicode hex="0153"/>
  <outline>
    <contour>
      <point x="26.804" y="268.629" type="curve" smooth="yes"/>
      <point x="26.804" y="69.049"/>
      <point x="64.951" y="-10.0"/>
      <point x="181.81799999999998" y="-10.0" type="curve" smooth="yes"/>
      <point x="248.093" y="-10.0"/>
      <point x="279.15400000000005" y="22.496000000000002"/>
      <point x="299.24" y="90.616" type="curve"/>
      <point x="321.804" y="23.686"/>
      <point x="361.17" y="-10.0"/>
      <point x="430.36400000000003" y="-10.0" type="curve" smooth="yes"/>
      <point x="474.778" y="-10.0"/>
      <point x="520.678" y="-0.795"/>
      <point x="557.895" y="14.328" type="curve"/>
      <point x="547.007" y="77.497" type="line"/>
      <point x="507.265" y="64.945"/>
      <point x="466.619" y="58.693000000000005"/>
      <point x="437.73199999999997" y="58.693000000000005" type="curve" smooth="yes"/>
      <point x="378.672" y="58.693000000000005"/>
      <point x="336.117" y="94.933"/>
      <point x="336.117" y="225.247" type="curve" smooth="yes"/>
      <point x="336.117" y="237.0"/>
      <point x="336.086" y="250.13299999999998"/>
      <point x="336.305" y="262.38599999999997" type="curve"/>
      <point x="436.11400000000003" y="263.936"/>
      <point x="525.7080000000001" y="274.742"/>
      <point x="564.731" y="280.02500000000003" type="curve"/>
      <point x="565.0409999999999" y="288.392"/>
      <point x="566.0409999999999" y="300.88599999999997"/>
      <point x="566.0409999999999" y="316.537" type="curve" smooth="yes"/>
      <point x="566.0409999999999" y="475.80699999999996"/>
      <point x="520.111" y="546.2"/>
      <point x="419.86199999999997" y="546.2" type="curve" smooth="yes"/>
      <point x="360.37600000000003" y="546.2"/>
      <point x="325.32399999999996" y="511.77200000000005"/>
      <point x="302.701" y="441.745" type="curve"/>
      <point x="280.38100000000003" y="512.541"/>
      <point x="248.607" y="546.2"/>
      <point x="181.81799999999998" y="546.2" type="curve" smooth="yes"/>
      <point x="63.17" y="546.2"/>
      <point x="26.804" y="466.709"/>
    </contour>
    <contour>
      <point x="100.837" y="268.598" type="curve" smooth="yes"/>
      <point x="100.837" y="439.363"/>
      <point x="121.83699999999999" y="482.039"/>
      <point x="181.78699999999998" y="482.039" type="curve" smooth="yes"/>
      <point x="241.239" y="482.039"/>
      <point x="262.48699999999997" y="439.363"/>
      <point x="262.48699999999997" y="268.598" type="curve" smooth="yes"/>
      <point x="262.48699999999997" y="96.738"/>
      <point x="240.08" y="54.44"/>
      <point x="181.78699999999998" y="54.44" type="curve" smooth="yes"/>
      <point x="123.21499999999999" y="54.44"/>
      <point x="100.837" y="96.738"/>
    </contour>
    <contour>
      <point x="336.462" y="309.247" type="curve"/>
      <point x="343.513" y="458.971"/>
      <point x="375.731" y="487.774"/>
      <point x="418.99399999999997" y="487.774" type="curve" smooth="yes"/>
      <point x="464.55400000000003" y="487.774"/>
      <point x="493.713" y="445.992"/>
      <point x="494.178" y="319.463" type="curve"/>
      <point x="472.187" y="315.139"/>
      <point x="402.185" y="309.278"/>
    </contour>
  </outline>
</glyph>
<glyph name="uni0162" format="2">
  <advance width="346.466"/>
  <unicode hex="0162"/>
  <outline>
    <contour>
      <point x="102.333" y="-160.025" type="curve"/>
      <point x="97.527" y="-207.93699999999998" type="line"/>
      <point x="118.145" y="-217.248"/>
      <point x="137.74" y="-220.0"/>
      <point x="154.247" y="-220.0" type="curve" smooth="yes"/>
      <point x="210.44899999999998" y="-220.0"/>
      <point x="230.927" y="-179.267"/>
      <point x="230.927" y="-130.476" type="curve" smooth="yes"/>
      <point x="230.927" y="-90.352"/>
      <point x="211.587" y="-35.189"/>
      <point x="195.495" y="2.3289999999999997" type="curve"/>
      <point x="146.4" y="1.984" type="line"/>
      <point x="165.676" y="-41.188"/>
      <point x="181.417" y="-84.89399999999999"/>
      <point x="181.417" y="-116.154" type="curve" smooth="yes"/>
      <point x="181.417" y="-149.607"/>
      <point x="165.53900000000002" y="-168.72399999999996"/>
      <point x="140.665" y="-168.72399999999996" type="curve" smooth="yes"/>
      <point x="128.91600000000003" y="-168.72399999999996"/>
      <point x="116.72500000000001" y="-165.723"/>
    </contour>
    <component base="T"/>
  </outline>
</glyph>
